SplineFontDB: 3.0
FontName: CMUClassicalSerif-Italic
FullName: CMU Classical Serif Italic
FamilyName: CMU Classical Serif
Weight: Medium
Copyright: Converted by Andrey V. Panov from TeX fonts
UComments: "2009-6-18: Created." 
Version: 0.7.0
ItalicAngle: -14.04
UnderlinePosition: -100
UnderlineWidth: 50
Ascent: 800
Descent: 200
LayerCount: 2
Layer: 0 0 "+BBcEMAQ0BD0EOAQ5 +BD8EOwQwBD0A"  1
Layer: 1 0 "+BB8ENQRABDUENAQ9BDgEOQAA +BD8EOwQwBD0A"  0
NeedsXUIDChange: 1
XUID: [1067 15289103]
FSType: 0
OS2Version: 0
OS2_WeightWidthSlopeOnly: 0
OS2_UseTypoMetrics: 1
CreationTime: 1245315583
ModificationTime: 1245316107
PfmFamily: 17
TTFWeight: 500
TTFWidth: 5
LineGap: 200
VLineGap: 90
OS2TypoAscent: 0
OS2TypoAOffset: 1
OS2TypoDescent: 0
OS2TypoDOffset: 1
OS2TypoLinegap: 200
OS2WinAscent: 930
OS2WinAOffset: 0
OS2WinDescent: 250
OS2WinDOffset: 0
HheadAscent: 930
HheadAOffset: 0
HheadDescent: -250
HheadDOffset: 0
Lookup: 1 0 0 "Case substitutions"  {"Case substitutions subtable"  } ['case' ('cyrl' <'dflt' > 'grek' <'dflt' > 'latn' <'dflt' > ) ]
Lookup: 1 0 0 "Italic substitutions"  {"Italic substitutions cyr"  } ['locl' ('cyrl' <'MKD ' 'SRB ' > ) ]
Lookup: 3 0 0 "Greek alternatives"  {"Greek alternatives subtable"  } ['salt' ('grek' <'dflt' > ) ]
Lookup: 1 0 0 "Greek substitutions"  {"Greek substitutions subtable"  } ['locl' ('grek' <'dflt' > ) ]
Lookup: 4 0 1 "Latin Dutch ligatures"  {"Latin Dutch ligatures subtable"  } ['liga' ('latn' <'NLD ' > ) ]
Lookup: 4 0 1 "Latin ligatures excepting Turkic"  {"Latin ligatures excepting Turkic subtable"  } ['liga' ('latn' <'dflt' 'NLD ' 'VIT ' > ) ]
Lookup: 4 0 1 "Latin ligatures"  {"Latin ligatures subtable"  } ['liga' ('latn' <'dflt' 'NLD ' 'VIT ' 'TRK ' 'AZE ' > ) ]
Lookup: 4 0 1 "Cyrillic ligatures"  {"Cyrillic ligatures subtable"  } ['liga' ('cyrl' <'dflt' 'MKD ' 'SRB ' > ) ]
Lookup: 3 0 0 "Latin alternatives"  {"Latin alternatives subtable"  } ['salt' ('latn' <'dflt' > ) ]

StartChar: .notdef
Encoding: 0 0 0
Width: 760
Flags: HW
HStem: 10 60<105 655> 705 60<105 655>
VStem: 10 60<112 663> 690 60<112 663>
DStem2: 105 705 70 663 0.702289 -0.711892<5.31938 389.612 448.699 832.991> 70 112 105 70 0.702289 0.711892<0 384.292 443.379 827.672>
LayerCount: 2
Fore
SplineSet
10 10 m 1
 10 765 l 1
 750 765 l 1
 750 10 l 1
 10 10 l 1
70 112 m 1
 346 388 l 1
 70 663 l 1
 70 112 l 1
105 70 m 1
 655 70 l 1
 380 346 l 1
 105 70 l 1
105 705 m 1
 380 429 l 1
 655 705 l 1
 105 705 l 1
414 388 m 1
 690 112 l 1
 690 663 l 1
 414 388 l 1
EndSplineSet
EndChar

StartChar: uni262D
Encoding: 9773 9773 1
Width: 700
Flags: HW
TeX: 117 0
HStem: -1 21G<56 93 593.5 601> 39 76<321.786 462.78> 102 51<140.549 177.987>
VStem: 129 54<101.776 137.734> 556 82<197.341 366.709>
DStem2: 123 357 178 301 0.707107 0.707107<0 86.9741 130.108 182.434>
LayerCount: 2
Fore
SplineSet
40 18 m 0
 40 64 129 102 129 128 c 0
 129 148 134 153 148 153 c 0xb8
 162 153 164 157 182 180 c 1
 229 156 307 115 390 115 c 0
 438 115 463 128 463 129 c 0
 463 135 406 186 240 363 c 1
 178 301 l 1
 123 357 l 1
 252 486 l 1
 347 470 l 1
 271 393 l 1
 484 190 l 1
 513 165 l 1
 519 165 556 218 556 295 c 0
 556 473 346 588 346 593 c 1
 394 593 638 478 638 267 c 0
 638 167 592 118 580 100 c 1
 636 44 637 42 637 38 c 0xd8
 637 17 605 -1 597 -1 c 2
 596 -1 l 2
 591 -1 590 1 529 62 c 1
 500 51 474 39 428 39 c 0xd8
 297 39 201 138 188 138 c 0
 183 138 182 134 182 130 c 0
 182 126 183 123 183 118 c 0
 183 108 178 102 168 102 c 0
 131 102 122 0 64 -0 c 0
 48 0 40 7 40 18 c 0
EndSplineSet
EndChar

StartChar: longs
Encoding: 383 383 2
Width: 306
Flags: HW
TeX: 108 0
HStem: -205 22<21.8309 79.3019> -165 81<15 50.1904> 400 31<126.285 213> 584 81<376.81 412> 683 22<345.442 404.188>
VStem: -25 84<-154.756 -93.5671> 368 84<593.567 655.946>
DStem2: 140 27 207 41 0.19191 0.981413<-146.993 380.076 411.652 637.971>
AnchorPoint: "above" 350 694 basechar 0
AnchorPoint: "below" 81 -194 basechar 0
LayerCount: 2
Fore
SplineSet
-25 -139 m 0
 -25 -104 0 -84 25 -84 c 0
 41 -84 59 -94 59 -116 c 0
 59 -136 45 -160 15 -165 c 1
 26 -180 45 -183 55 -183 c 0
 89 -183 106 -148 140 27 c 2
 213 400 l 1
 151 400 l 2
 136 400 126 400 126 411 c 0
 126 431 137 431 153 431 c 2
 219 431 l 1
 242 551 257 705 370 705 c 0
 411 705 452 682 452 639 c 0
 452 604 427 584 402 584 c 0
 386 584 368 594 368 616 c 0
 368 636 382 660 412 665 c 1
 399 681 378 683 370 683 c 0
 331 683 323 638 283 431 c 2
 207 41 l 2
 200 5 159 -205 55 -205 c 0
 18 -205 -25 -184 -25 -139 c 0
EndSplineSet
EndChar

StartChar: afii10063
Encoding: 63172 63172 3
Width: 306
Flags: HW
TeX: 117 0
HStem: -11 22<187.407 237.026> 420 22<178.002 227.198> 491 31<113.061 442.84>
VStem: 83 33<278.014 338.924> 128 56<11.2992 123.031> 231 55<308.667 419.374> 299 32<92.5156 152.994>
LayerCount: 2
Fore
SplineSet
83 288 m 0
 83 293 117 442 211 442 c 0
 248 442 286 417 286 362 c 0
 286 302 184 101 184 39 c 0
 184 12 198 11 206 11 c 0
 264 11 291 107 299 136 c 0
 303 151 303 153 316 153 c 0
 323 153 331 153 331 143 c 0
 331 139 298 -11 204 -11 c 0
 152 -11 128 30 128 69 c 0
 128 120 231 333 231 392 c 0
 231 415 220 420 209 420 c 0
 151 420 125 327 116 294 c 0
 112 280 111 278 98 278 c 0
 93 278 83 278 83 288 c 0
113 505 m 0
 113 512 116 522 134 522 c 2
 421 522 l 2
 439 522 443 517 443 509 c 0
 443 492 429 491 417 491 c 2
 134 491 l 2
 122 491 113 494 113 505 c 0
EndSplineSet
EndChar

StartChar: circumflex.cap
Encoding: 65536 -1 4
Width: 511
Flags: HW
HStem: 741 159
VStem: 318 254<748 763>
AnchorPoint: "above" 432 705 mark 0
LayerCount: 2
Fore
SplineSet
318 757 m 0
 318 764 321 765 439 871 c 0
 464 893 470 900 478 900 c 0
 489 900 499 880 506 869 c 0
 570 764 572 763 572 756 c 0
 572 748 563 741 555 741 c 0
 543 741 503 801 470 847 c 1
 406 799 345 741 332 741 c 0
 328 741 318 744 318 757 c 0
EndSplineSet
EndChar

StartChar: dieresis.cap
Encoding: 65537 -1 5
Width: 511
Flags: HW
HStem: 786 105<339.164 412.192 518.164 589.839>
VStem: 322 108<804.25 873.408> 501 107<804.045 873.955>
AnchorPoint: "above" 431 705 mark 0
LayerCount: 2
Fore
SplineSet
322 829 m 0
 322 859 351 891 386 891 c 0
 408 891 430 875 430 848 c 0
 430 814 396 786 365 786 c 0
 341 786 322 803 322 829 c 0
501 829 m 0
 501 859 531 892 565 892 c 0
 591 892 608 872 608 849 c 0
 608 819 578 786 544 786 c 0
 520 786 501 803 501 829 c 0
EndSplineSet
EndChar

StartChar: dotaccent.cap
Encoding: 65538 -1 6
Width: 511
Flags: HW
HStem: 756 105<421.164 493.626>
VStem: 404 107<773.571 843.408>
AnchorPoint: "above" 432 705 mark 0
LayerCount: 2
Fore
SplineSet
404 799 m 0
 404 829 433 861 467 861 c 0
 492 861 511 844 511 818 c 0
 511 785 479 756 447 756 c 0
 423 756 404 773 404 799 c 0
EndSplineSet
EndChar

StartChar: caron.cap
Encoding: 65539 -1 7
Width: 511
Flags: HW
HStem: 800 62<432.086 494.696>
VStem: 346 280<913 925>
AnchorPoint: "above" 432 705 mark 0
LayerCount: 2
Fore
SplineSet
346 920 m 0
 346 925 350 930 356 930 c 0
 373 930 454 862 468 862 c 0
 488 862 599 930 616 930 c 0
 621 930 626 926 626 921 c 0
 626 910 615 905 476 808 c 0
 473 806 466 800 459 800 c 0
 449 800 438 815 430 823 c 0
 349 910 346 913 346 920 c 0
EndSplineSet
EndChar

StartChar: ring.cap
Encoding: 65540 -1 8
Width: 511
Flags: HW
HStem: 730 23<407.204 484.046> 891 22<438.172 512.962>
VStem: 366 29<762.212 849.199> 525 30<792.537 882.261>
AnchorPoint: "above" 431 705 mark 0
LayerCount: 2
Fore
SplineSet
366 800 m 0
 366 855 421 913 483 913 c 0
 524 913 555 885 555 843 c 0
 555 788 499 730 438 730 c 0
 396 730 366 758 366 800 c 0
395 794 m 0
 395 769 411 753 443 753 c 0
 519 753 525 838 525 849 c 0
 525 875 510 891 478 891 c 0
 403 891 395 809 395 794 c 0
EndSplineSet
EndChar

StartChar: breve.cap
Encoding: 65541 -1 9
Width: 511
Flags: HW
HStem: 753 36<386.1 521.786>
VStem: 333 24<823.797 888.411> 590 23<855.324 888.858>
AnchorPoint: "above" 432 705 mark 0
LayerCount: 2
Fore
SplineSet
333 854 m 0
 333 872 337 889 348 889 c 0
 356 889 358 882 358 874 c 0
 358 867 357 866 357 859 c 0
 357 819 394 789 451 789 c 0
 505 789 567 818 590 875 c 0
 592 881 596 889 603 889 c 0
 607 889 613 887 613 878 c 0
 613 848 552 753 447 753 c 0
 386 753 333 791 333 854 c 0
EndSplineSet
EndChar

StartChar: grave
Encoding: 96 96 10
Width: 511
Flags: HW
TeX: 641 0
HStem: 499 152
VStem: 274 147
LayerCount: 2
Fore
SplineSet
274 614 m 0
 274 635 297 651 312 651 c 0
 331 651 340 632 347 623 c 0
 408 538 421 524 421 515 c 0
 421 505 411 499 404 499 c 2
 403 499 l 2
 396 499 395 501 290 587 c 0
 283 594 274 601 274 614 c 0
EndSplineSet
EndChar

StartChar: acute
Encoding: 180 180 11
Width: 511
Flags: HW
TeX: 641 0
ItalicCorrection: 83
HStem: 499 152
VStem: 346 199
LayerCount: 2
Fore
SplineSet
346 514 m 0
 346 525 343 519 490 639 c 0
 497 645 506 651 517 651 c 0
 532 651 545 638 545 623 c 0
 545 600 520 589 515 586 c 0
 370 502 367 499 360 499 c 0
 352 499 346 507 346 514 c 0
EndSplineSet
EndChar

StartChar: circumflex
Encoding: 710 710 12
Width: 460
Flags: HW
TeX: 641 0
HStem: 481 167
VStem: 226 255
LayerCount: 2
Fore
SplineSet
226 496 m 0
 226 505 223 500 346 614 c 0
 373 639 380 648 389 648 c 0
 400 648 407 629 416 614 c 0
 479 504 481 504 481 497 c 0
 481 489 472 481 464 481 c 0
 454 481 455 482 380 594 c 1
 255 488 250 481 241 481 c 0
 234 481 226 488 226 496 c 0
EndSplineSet
EndChar

StartChar: tilde
Encoding: 732 732 13
Width: 511
Flags: HW
TeX: 641 0
ItalicCorrection: 108
HStem: 567 37<431.104 492.821> 631 36<326.713 386.896>
VStem: 248 322
LayerCount: 2
Fore
SplineSet
248 578 m 0
 248 591 330 667 374 667 c 0
 425 667 422 604 459 604 c 0
 497 604 545 666 560 666 c 0
 566 666 570 661 570 656 c 0
 570 644 489 567 444 567 c 0
 393 567 396 631 359 631 c 0
 321 631 273 569 258 569 c 0
 252 569 248 573 248 578 c 0
EndSplineSet
EndChar

StartChar: dieresis
Encoding: 168 168 14
Width: 511
Flags: HW
TeX: 661 0
ItalicCorrection: 102
HStem: 553 105<460.128 532.197> 553 106<282.161 353.031>
VStem: 264 107<571.047 640.955> 443 107<570.592 640.408>
LayerCount: 2
Fore
SplineSet
264 596 m 0
 264 626 294 659 328 659 c 0
 354 659 371 640 371 616 c 0
 371 583 339 553 307 553 c 0x70
 283 553 264 570 264 596 c 0
EndSplineSet
Refer: 20 729 S 1 0 0 1 177 -10 2
EndChar

StartChar: ring
Encoding: 730 730 16
Width: 813
Flags: HW
TeX: 641 0
HStem: 500 22<497.212 577.708> 638 23<521.303 603.947>
VStem: 456 30<530.082 607.747> 614 30<552.098 630.101>
LayerCount: 2
Fore
SplineSet
456 563 m 0
 456 616 515 661 570 661 c 0
 611 661 644 635 644 597 c 0
 644 547 589 500 530 500 c 0
 489 500 456 525 456 563 c 0
486 560 m 0
 486 532 506 522 535 522 c 0
 607 522 614 584 614 601 c 0
 614 628 594 638 565 638 c 0
 499 638 486 585 486 560 c 0
EndSplineSet
EndChar

StartChar: caron
Encoding: 711 711 17
Width: 460
Flags: HW
TeX: 641 0
HStem: 488 149
VStem: 246 280
LayerCount: 2
Fore
SplineSet
246 627 m 0
 246 632 250 637 256 637 c 2
 257 637 l 2
 267 637 365 553 365 553 c 1
 507 634 508 637 516 637 c 0
 522 637 526 633 526 628 c 0
 526 618 529 622 392 513 c 0
 368 494 362 488 354 488 c 0
 343 488 331 508 323 519 c 0
 252 613 246 619 246 627 c 0
EndSplineSet
EndChar

StartChar: breve
Encoding: 728 728 18
Width: 511
Flags: HW
TeX: 641 0
ItalicCorrection: 94
HStem: 504 37<321.291 460.396>
VStem: 270 24<574.369 636.697> 525 24<602.067 636.693>
LayerCount: 2
Fore
SplineSet
270 603 m 0
 270 620 273 637 284 637 c 0
 292 637 294 630 294 621 c 2
 294 610 l 2
 294 554 353 541 388 541 c 0
 444 541 505 572 525 622 c 0
 527 628 532 637 539 637 c 0
 543 637 549 634 549 625 c 0
 549 593 486 504 384 504 c 0
 319 504 270 544 270 603 c 0
EndSplineSet
EndChar

StartChar: macron
Encoding: 175 175 19
Width: 511
Flags: HW
TeX: 661 0
ItalicCorrection: 126
HStem: 650 31<256.078 585.834>
VStem: 256 330<650 681>
LayerCount: 2
Fore
SplineSet
256 664 m 0
 256 670 258 681 277 681 c 2
 564 681 l 2
 577 681 586 679 586 668 c 0
 586 661 583 650 564 650 c 2
 277 650 l 2
 268 650 256 652 256 664 c 0
EndSplineSet
EndChar

StartChar: dotaccent
Encoding: 729 729 20
Width: 307
Flags: HW
TeX: 661 0
ItalicCorrection: 117
HStem: 563 105<283.128 355.197>
VStem: 266 107<580.592 650.408>
LayerCount: 2
Fore
SplineSet
266 606 m 0
 266 636 295 668 329 668 c 0
 353 668 373 651 373 625 c 0
 373 595 343 563 309 563 c 0
 283 563 266 582 266 606 c 0
EndSplineSet
EndChar

StartChar: cedilla
Encoding: 184 184 21
Width: 460
Flags: HW
TeX: 0 170
HStem: -192 22<77.0102 194.612>
VStem: 183 79<-51.5556 18.25> 244 65<-147.358 -77.989>
LayerCount: 2
Fore
SplineSet
77 -181 m 0
 77 -170 91 -170 103 -170 c 2
 105 -170 l 2
 170 -170 244 -161 244 -109 c 0xa0
 244 -62 183 -82 183 -57 c 0
 183 -50 185 -48 196 -2 c 0
 201 20 204 22 227 22 c 2xc0
 238 22 l 2
 256 22 262 19 262 8 c 0xc0
 262 -3 256 -22 248 -53 c 1
 276 -59 309 -73 309 -109 c 0
 309 -179 215 -192 99 -192 c 2
 95 -192 l 2
 79 -192 77 -185 77 -181 c 0
EndSplineSet
EndChar

StartChar: ogonek
Encoding: 731 731 22
Width: 307
Flags: HW
TeX: 0 194
HStem: -179 40<61.6429 149.801>
VStem: 12 68<-137.086 -88.2913>
LayerCount: 2
Fore
SplineSet
12 -123 m 0
 12 -49 138 -20 185 10 c 0
 193 15 200 20 206 20 c 0
 211 20 215 17 215 12 c 0
 215 -9 80 -90 80 -116 c 0
 80 -130 96 -139 113 -139 c 0
 162 -139 190 -88 205 -88 c 0
 215 -88 216 -99 208 -110 c 0
 191 -132 141 -179 82 -179 c 0
 43 -179 12 -157 12 -123 c 0
EndSplineSet
EndChar

StartChar: guilsinglleft
Encoding: 8249 8249 24
Width: 460
Flags: HW
TeX: 483 0
ItalicCorrection: 69
VStem: 309 24<2.19882 60.6801>
LayerCount: 2
Fore
SplineSet
190 241 m 0
 190 259 279 290 389 426 c 0
 423 468 431 481 439 481 c 0
 442 481 448 479 448 472 c 0
 448 458 368 333 256 240 c 1
 331 119 333 23 333 17 c 0
 333 9 331 2 322 2 c 0
 313 3 311 13 309 21 c 0
 276 171 190 224 190 241 c 0
EndSplineSet
EndChar

StartChar: guilsinglright
Encoding: 8250 8250 25
Width: 460
Flags: HW
TeX: 483 0
ItalicCorrection: 69
VStem: 247 24<422.089 480.726> 324 66<227.068 270.145>
LayerCount: 2
Fore
SplineSet
132 11 m 0
 132 28 223 161 324 243 c 1
 324 244 l 1
 268 323 247 432 247 467 c 0
 247 473 249 481 257 481 c 0
 266 481 270 469 271 462 c 0
 304 311 390 259 390 242 c 0
 390 225 293 186 191 57 c 0
 157 14 151 2 141 2 c 0
 138 2 132 4 132 11 c 0
EndSplineSet
EndChar

StartChar: quotedblright
Encoding: 8221 8221 27
Width: 361
Flags: HW
TeX: 688 0
ItalicCorrection: 69
HStem: 589 105<401.128 470.344> 590 105<204.072 273.345>
VStem: 187 113<611.398 677.751> 384 113<611.222 676.929>
LayerCount: 2
Fore
SplineSet
346 405 m 0
 346 409 347 413 351 417 c 0
 362 428 451 495 471 606 c 1
 457 595 444 589 427 589 c 0
 401 589 384 605 384 630 c 0
 384 661 411 694 448 694 c 0
 467 694 497 683 497 632 c 0xb0
 497 522 380 396 355 396 c 0
 349 396 346 400 346 405 c 0
EndSplineSet
Refer: 48 8217 S 1 0 0 1 -72 1 2
EndChar

StartChar: quotedblbase
Encoding: 8222 8222 28
Width: 361
Flags: HW
TeX: 105 194
ItalicCorrection: 69
HStem: 0 106<58.7981 127.345 255.798 324.345>
VStem: 41 112<17.9802 88.1979> 238 112<17.9802 88.1979>
LayerCount: 2
Fore
SplineSet
2 -183 m 0
 2 -166 102 -113 128 17 c 1
 114 6 102 0 84 0 c 0
 58 0 41 17 41 42 c 0
 41 74 70 106 105 106 c 0
 144 106 153 70 153 45 c 0
 153 -70 36 -192 12 -192 c 0
 7 -192 2 -188 2 -183 c 0
199 -183 m 0
 199 -163 298 -116 325 17 c 1
 311 6 299 0 281 0 c 0
 255 0 238 17 238 42 c 0
 238 74 267 106 302 106 c 0
 341 106 350 70 350 45 c 0
 350 -70 233 -192 209 -192 c 0
 204 -192 199 -188 199 -183 c 0
EndSplineSet
EndChar

StartChar: endash
Encoding: 8211 8211 31
Width: 511
Flags: HW
TeX: 430 0
ItalicCorrection: 91
HStem: 255 22<94.0095 548.99>
LayerCount: 2
Fore
SplineSet
94 266 m 0
 94 278 107 277 115 277 c 2
 523 277 l 2
 535 277 549 277 549 266 c 0
 549 256 536 255 525 255 c 2
 116 255 l 2
 106 255 94 256 94 266 c 0
EndSplineSet
EndChar

StartChar: emdash
Encoding: 8212 8212 32
Width: 1022
Flags: HW
TeX: 430 0
ItalicCorrection: 91
HStem: 255 22<119.008 1033.99>
LayerCount: 2
Fore
SplineSet
119 266 m 0
 119 271 123 276 137 277 c 1
 1014 277 l 2
 1025 277 1034 275 1034 266 c 0
 1034 255 1020 255 1014 255 c 2
 141 255 l 2
 130 255 119 257 119 266 c 0
EndSplineSet
Substitution2: "Cyrillic substitutions subtable" emdash.cyr
AlternateSubs2: "Cyrillic alternatives subtable" emdash.cyr
EndChar

StartChar: dotlessi
Encoding: 305 305 34
Width: 307
Flags: HW
TeX: 430 0
ItalicCorrection: 76
HStem: -11 23<186.697 235.094> 393 34<154.275 218.962>
VStem: 127 56<12.5702 121.037> 219 83<337.707 424.129> 296 33<88.0858 152.791>
AnchorPoint: "below" 148 0 basechar 0
AnchorPoint: "above" 258 442 basechar 0
LayerCount: 2
Fore
SplineSet
127 69 m 0
 127 121 219 350 219 375 c 0
 219 397 167 385 155 393 c 0
 148 398 149 407 153 413 c 0
 161 425 192 421 231 427 c 0
 249 430 235 432 275 432 c 2
 279 432 l 2
 291 432 302 430 302 419 c 0xf0
 302 412 298 400 290 366 c 0
 278 319 283 357 265 303 c 0
 183 57 183 64 183 41 c 0
 183 25 189 12 206 12 c 0
 224 12 266 24 296 132 c 0
 299 142 303 153 315 153 c 0xe8
 325 153 329 147 329 140 c 0xe8
 329 129 293 -11 203 -11 c 0
 158 -11 127 23 127 69 c 0
EndSplineSet
EndChar

StartChar: dotlessj
Encoding: 567 567 35
Width: 332
Flags: HW
TeX: 430 194
ItalicCorrection: 37
HStem: -207 26<17.6477 90.8146>
VStem: -35 86<-164.998 -102.784> 261 80<347.141 423.177>
DStem2: 117.988 -207 186.488 -207 0.242599 0.970127<80.2407 593.167>
AnchorPoint: "below" 91 -194 basechar 0
AnchorPoint: "above" 314 442 basechar 0
LayerCount: 2
Fore
SplineSet
-35 -146 m 0
 -35 -119 -13 -93 15 -93 c 0
 37 -93 51 -109 51 -128 c 0
 51 -146 39 -162 17 -173 c 1
 29 -178 39 -181 52 -181 c 0
 117 -181 147 -92 161 -35 c 2
 256 343 l 2
 258 353 261 362 261 369 c 0
 261 407 189 373 189 404 c 0
 189 420 205 423 278 427 c 1
 285 431 289 432 299 432 c 2
 316 432 l 2
 330 432 341 431 341 417 c 0
 341 412 340 408 339 403 c 2
 230 -33 l 2
 224 -56 219 -80 204 -107 c 0
 171 -167 113 -207 53 -207 c 0
 2 -207 -35 -182 -35 -146 c 0
EndSplineSet
EndChar

StartChar: ff
Encoding: 64256 64256 36
Width: 613
Flags: HW
TeX: 688 194
ItalicCorrection: 211
HStem: -205 22<22.5443 78.0072 265.002 342.751> -165 80<14 49.75 252 284.055> 400 30<127.1 212 283 508 579 680.84> 585 79<453.574 485 683.039 717> 683 23<372.75 471.577 645.335 708.105>
VStem: -25 83<-155.923 -94.6108> 210 83<-153.983 -94.4562> 445 83<593.913 654.068> 675 82<594.56 654.799>
DStem2: 118 -70 206 38 0.196116 0.980581<-50.8281 479.308 522.65 734.574>
LayerCount: 2
Fore
SplineSet
-25 -139 m 0
 -25 -103 3 -85 25 -85 c 0
 47 -85 58 -101 58 -118 c 0
 58 -137 45 -159 14 -165 c 1
 24 -174 36 -183 53 -183 c 0
 92 -183 105 -125 118 -70 c 0
 146 46 212 400 212 400 c 1
 198 400 184 399 170 399 c 2
 154 399 l 2
 139 399 129 400 127 409 c 0
 125 416 128 429 142 430 c 0
 151 431 161 430 170 430 c 2
 218 430 l 1
 244 565 253 706 422 706 c 2
 423 706 l 1
 488 705 528 678 528 638 c 0
 528 611 509 585 479 585 c 0
 459 585 445 599 445 617 c 0
 445 631 453 654 485 664 c 1
 469 675 451 683 422 683 c 0
 391 683 351 668 334 640 c 0
 313 605 296 492 283 430 c 1
 515 430 l 1
 542 596 563 637 582 660 c 0
 598 679 630 706 671 706 c 0
 710 706 757 684 757 639 c 0
 757 607 732 585 708 585 c 0
 689 585 675 597 675 617 c 0
 675 636 689 659 717 665 c 1
 702 678 688 683 675 683 c 0
 652 683 633 664 625 645 c 0
 616 624 588 480 579 430 c 1
 659 430 l 2
 669 430 681 430 681 417 c 0
 681 409 675 401 661 400 c 1
 573 400 l 1
 499 14 487 -89 414 -157 c 0
 393 -176 355 -206 305 -206 c 0
 265 -206 210 -188 210 -139 c 0
 210 -113 229 -85 259 -85 c 0
 279 -85 293 -99 293 -117 c 0
 293 -136 280 -157 252 -164 c 1
 266 -174 284 -183 306 -183 c 0
 346 -183 388 -144 406 -91 c 0
 435 -5 491 316 508 400 c 1
 277 400 l 1
 277 399 l 1
 271 363 214 74 206 38 c 0
 184 -58 145 -205 54 -205 c 0
 17 -205 -25 -183 -25 -139 c 0
EndSplineSet
Ligature2: "Latin ligatures subtable" f f
EndChar

StartChar: fi
Encoding: 64257 64257 37
Width: 562
Flags: HW
TeX: 688 194
ItalicCorrection: 103
HStem: -205 22<22.5443 78.3431> -165 80<14 49.75> -11 23<465.219 507.319> 400 30<126.009 212 283 476> 574 80<520.879 556> 683 23<387.532 527.971>
VStem: -25 83<-155.923 -94.6108> 218 65<430 541.224> 400 60<16.5792 161.977> 513 83<583.545 644.998>
DStem2: 156 109 208 44 0.188973 0.981982<-227.647 296.339> 324.476 -205 389.228 -205 0.242599 0.970127<294.749 623.686>
LayerCount: 2
Fore
SplineSet
-25 -139 m 0
 -25 -103 3 -85 25 -85 c 0
 47 -85 58 -101 58 -118 c 0
 58 -137 45 -159 14 -165 c 1
 24 -174 36 -183 53 -183 c 0
 94 -183 108 -134 156 109 c 2
 204 357 l 2
 207 371 209 386 212 400 c 1
 198 400 184 399 170 399 c 2
 156 399 l 2
 139 399 126 400 126 415 c 0
 126 424 133 430 154 430 c 2
 218 430 l 1
 218 431 l 1
 249 622 280 706 456 706 c 0
 574 706 596 660 596 630 c 0
 596 599 575 574 547 574 c 0
 527 574 513 588 513 607 c 0
 513 626 526 649 556 654 c 1
 541 667 520 683 454 683 c 0
 345 683 328 621 323 608 c 0
 304 558 283 432 283 430 c 1
 523 430 l 2
 540 430 544 426 544 418 c 0
 544 413 542 406 540 398 c 2
 470 118 l 2
 467 106 460 76 460 51 c 0
 460 30 465 12 485 12 c 0
 529 12 550 124 556 141 c 0
 559 150 566 153 572 153 c 0
 577 153 586 151 586 141 c 0
 586 133 582 116 570 78 c 0
 557 40 535 -11 483 -11 c 0
 433 -11 400 29 400 79 c 0
 400 99 406 120 409 133 c 2
 476 400 l 1
 277 400 l 1
 277 399 l 1
 271 363 216 79 208 44 c 0
 186 -56 146 -205 54 -205 c 0
 17 -205 -25 -183 -25 -139 c 0
EndSplineSet
Ligature2: "Latin ligatures excepting Turkic subtable" f i
EndChar

StartChar: fl
Encoding: 64258 64258 38
Width: 588
Flags: HW
TeX: 688 194
ItalicCorrection: 103
HStem: -205 22<22.982 78.3301> -165 80<14 49.75> -11 23<491.717 534.898> 400 30<126.009 212 283 502> 585 79<484.608 515> 674 20G<584 620.5> 683 23<379.738 500.76>
VStem: -25 83<-155.011 -94.5571> 425 60<15.9117 158.422> 589 22<128.375 151.57>
DStem2: 158 118 229 151 0.188265 0.982118<-182.839 287.124 329.954 531.652> 349.975 -205 415.476 -205 0.242599 0.970127<294.628 623.808 654.61 843.302 863.918 928.694>
LayerCount: 2
Fore
SplineSet
-25 -139 m 0
 -25 -112 -5 -85 25 -85 c 0
 47 -85 58 -101 58 -118 c 0
 58 -137 45 -159 14 -165 c 1
 24 -174 36 -183 53 -183 c 0
 97 -183 112 -119 158 118 c 0
 201 343 206 372 212 400 c 1
 198 400 184 399 170 399 c 2
 156 399 l 2
 139 399 126 400 126 415 c 0
 126 424 135 430 154 430 c 2
 218 430 l 1
 218 431 l 1
 246 601 271 705 435 706 c 1
 436 706 l 2xfbc0
 560 706 559 650 560 633 c 1
 573 693 575 694 593 694 c 2xfdc0
 616 694 l 2xfdc0
 625 694 636 693 636 681 c 0
 636 676 634 671 633 666 c 2
 500 133 l 2
 496 115 485 81 485 50 c 0
 485 32 491 12 511 12 c 0
 563 12 573 143 589 151 c 0
 596 155 609 153 611 144 c 0
 612 138 610 132 609 126 c 0
 588 47 566 -11 509 -11 c 0
 480 -11 425 8 425 79 c 0
 425 99 432 120 438 147 c 2
 502 400 l 1
 277 400 l 1
 229 151 l 2
 190 -54 166 -120 126 -167 c 0
 106 -190 83 -205 54 -205 c 0
 11 -205 -25 -179 -25 -139 c 0
283 430 m 1
 509 430 l 1
 555 613 l 1
 545 597 531 585 510 585 c 0xfbc0
 492 585 477 598 477 617 c 0
 477 636 489 656 515 664 c 1
 495 677 472 683 438 683 c 0
 396 683 361 669 341 646 c 0
 315 616 291 481 283 430 c 1
EndSplineSet
Ligature2: "Latin ligatures subtable" f l
EndChar

StartChar: ffi
Encoding: 64259 64259 39
Width: 881
Flags: HW
TeX: 688 194
ItalicCorrection: 103
HStem: -205 22<22.5443 78.2479 266.338 348.08> -165 80<14 49.75> -11 23<784.052 826.233> 400 30<127.1 212 283 518 589 795> 574 80<840.216 875> 683 23<378.651 495.516 693.255 845.557>
VStem: -25 83<-155.923 -94.5001> 210 83<-155.277 -94.3867> 471 83<594.536 654.317> 719 60<16.5861 159.469> 832 83<583.926 644.998>
DStem2: 118 -70 208 48 0.196116 0.980581<-53.42 479.308 522.65 729.313> 518 400 526 103 0.189182 0.981942<-220.054 0 42.8902 240.82> 643.226 -206 709.227 -206 0.242599 0.970127<295.78 624.717>
LayerCount: 2
Fore
SplineSet
-25 -139 m 0
 -25 -105 0 -85 25 -85 c 0
 47 -85 58 -101 58 -118 c 0
 58 -137 45 -159 14 -165 c 1
 24 -174 36 -183 53 -183 c 0
 92 -183 105 -125 118 -70 c 0
 146 46 212 400 212 400 c 1
 198 400 183 399 169 399 c 2
 154 399 l 2
 139 399 129 400 127 409 c 0
 125 415 127 428 142 430 c 0
 151 431 161 430 170 430 c 2
 218 430 l 1
 246 577 255 706 433 706 c 0
 487 706 554 692 554 638 c 0
 554 603 527 585 504 585 c 0
 486 585 471 595 471 617 c 0
 471 642 492 659 509 664 c 1
 490 677 468 683 435 683 c 0
 393 683 358 668 339 644 c 0
 314 613 301 516 283 430 c 1
 525 430 l 1
 556 591 563 706 768 706 c 0
 896 706 915 660 915 630 c 0
 915 588 883 574 866 574 c 0
 847 574 832 587 832 607 c 0
 832 626 845 648 875 654 c 1
 860 667 837 683 768 683 c 0
 617 683 624 595 589 430 c 1
 842 430 l 2
 858 430 863 427 863 418 c 0
 863 413 862 407 860 398 c 2
 790 117 l 2
 783 90 779 68 779 50 c 0
 779 26 786 12 804 12 c 0
 848 12 867 120 875 141 c 0
 878 150 885 153 891 153 c 0
 896 153 905 151 905 141 c 0
 905 133 901 116 889 78 c 0
 876 40 854 -11 802 -11 c 0
 752 -11 719 29 719 79 c 0
 719 99 725 120 728 133 c 2
 795 400 l 1
 583 400 l 1
 578 370 560 281 526 103 c 0
 495 -54 471 -110 428 -152 c 0
 376 -202 328 -206 311 -206 c 0
 269 -206 210 -188 210 -138 c 0
 210 -110 231 -85 260 -85 c 0
 285 -85 293 -106 293 -116 c 0
 293 -145 271 -159 253 -164 c 1
 262 -171 281 -183 310 -183 c 0
 359 -183 402 -130 414 -94 c 1
 444 -12 518 400 518 400 c 1
 277 400 l 1
 271 365 216 83 208 48 c 0
 185 -55 147 -205 54 -205 c 0
 17 -205 -25 -183 -25 -139 c 0
EndSplineSet
Ligature2: "Latin ligatures excepting Turkic subtable" ff i
Ligature2: "Latin ligatures excepting Turkic subtable" f f i
EndChar

StartChar: ffl
Encoding: 64260 64260 40
Width: 894
Flags: HW
TeX: 688 194
ItalicCorrection: 103
HStem: -205 22<22.5443 78.1351 265.803 349.319> -165 80<14 49.75 253 284.245> -11 23<798.267 839.972> 400 30<127.1 212 283 519 590 808> 585 79<454.051 485 791.015 822> 674 20G<890 927.5> 683 23<374.389 471.577 686.613 808.282>
VStem: -25 83<-155.923 -94.6108> 210 83<-155.277 -94.5749> 446 82<593.913 655.748> 519 65<300.535 400 430 512.478> 732 60<16.3443 161.312> 896 22<130.752 151.57>
DStem2: 118 -70 207 42 0.196116 0.980581<-49.5706 479.308 522.65 735.574> 656.227 -206 721.226 -206 0.242599 0.970127<295.639 624.717 655.761 844.454 865.07 929.846>
LayerCount: 2
Fore
SplineSet
-25 -139 m 0
 -25 -103 3 -85 25 -85 c 0
 47 -85 58 -101 58 -118 c 0
 58 -137 45 -159 14 -165 c 1
 24 -174 36 -183 53 -183 c 0
 92 -183 105 -125 118 -70 c 0
 146 46 212 400 212 400 c 1
 198 400 183 399 169 399 c 2
 154 399 l 2
 139 399 129 400 127 409 c 0
 125 416 128 429 142 430 c 0
 151 431 161 430 170 430 c 2
 218 430 l 1
 243 562 252 616 292 657 c 0
 321 687 365 706 421 706 c 2
 423 706 l 1
 488 705 528 678 528 638 c 0
 528 611 509 585 479 585 c 0
 459 585 446 599 446 617 c 0
 446 631 453 654 485 664 c 1
 480 667 460 683 423 683 c 0
 392 683 351 668 334 640 c 0
 313 605 296 492 283 430 c 1
 525 430 l 1
 552 602 578 706 744 706 c 0xfbd8
 851 706 866 662 866 633 c 1
 867 633 l 1
 880 693 881 694 899 694 c 0xfdd8
 907 694 915 694 923 694 c 0
 932 694 943 693 943 681 c 0
 943 676 941 672 940 667 c 2
 806 133 l 2
 802 115 792 81 792 50 c 0
 792 32 797 12 817 12 c 0
 868 12 880 143 896 151 c 0
 903 155 916 153 918 144 c 0
 919 138 916 132 915 126 c 0
 894 45 872 -11 816 -11 c 0
 786 -11 732 9 732 79 c 0
 732 96 735 109 738 121 c 2
 808 400 l 1
 584 400 l 1
 531 122 504 -54 451 -126 c 0
 429 -157 377 -206 311 -206 c 0
 267 -206 210 -188 210 -138 c 0
 210 -108 233 -85 259 -85 c 0
 278 -85 293 -98 293 -117 c 0
 293 -136 280 -157 253 -164 c 1
 268 -175 286 -183 310 -183 c 0
 323 -183 344 -181 373 -155 c 0
 439 -94 435 -3 519 400 c 1xfdb8
 277 400 l 1
 277 399 l 1
 271 363 215 78 207 42 c 0
 185 -56 146 -205 54 -205 c 0
 17 -205 -25 -183 -25 -139 c 0
590 430 m 1
 816 430 l 1
 862 613 l 1
 861 613 l 1
 851 597 838 585 817 585 c 0xfb98
 799 585 783 598 783 617 c 0
 783 636 796 656 822 664 c 1
 802 677 779 683 745 683 c 0
 703 683 668 669 648 646 c 0
 622 616 598 481 590 430 c 1
EndSplineSet
Ligature2: "Latin ligatures subtable" ff l
Ligature2: "Latin ligatures subtable" f f l
EndChar

StartChar: uni2423
Encoding: 9251 9251 41
Width: 511
Flags: HW
TeX: 430 97
ItalicCorrection: 47
HStem: -97 63<121.899 377.221>
LayerCount: 2
Fore
SplineSet
77 47 m 0
 77 57 83 63 92 63 c 0
 120 63 101 11 125 -17 c 0
 138 -32 163 -34 187 -34 c 2
 213 -34 l 2
 237 -34 261 -33 285 -33 c 0
 290 -33 294 -34 299 -34 c 0
 362 -34 379 -22 420 44 c 0
 425 53 432 63 443 63 c 0
 451 63 457 58 457 52 c 0
 457 45 455 42 379 -82 c 0
 372 -93 369 -97 352 -97 c 2
 113 -97 l 2
 90 -97 91 -85 88 -60 c 0
 84 -24 77 43 77 47 c 0
EndSplineSet
EndChar

StartChar: exclam
Encoding: 33 33 42
Width: 307
Flags: HW
TeX: 688 0
ItalicCorrection: 124
HStem: 0 106<129.789 201.839> 696 20G<321.5 340.5>
VStem: 112 108<18.045 88.0312> 188 34<187.279 228.34> 264 109<610.84 698.175>
LayerCount: 2
Fore
SplineSet
112 43 m 0xe8
 112 78 146 106 176 106 c 0
 200 106 220 89 220 63 c 0
 220 33 190 0 156 0 c 0
 130 0 112 19 112 43 c 0xe8
188 201 m 0
 188 204 188 208 189 211 c 2
 264 652 l 2
 274 711 314 716 329 716 c 0
 352 716 373 701 373 676 c 0
 373 666 369 656 366 646 c 2
 222 207 l 2
 219 198 215 187 202 187 c 0xd8
 193 187 188 192 188 201 c 0
EndSplineSet
EndChar

StartChar: quotedbl
Encoding: 34 34 43
Width: 511
Flags: HW
TeX: 688 0
ItalicCorrection: 86
HStem: 685 20G<340.5 359.5 493.5 514>
VStem: 254 24<338.239 353> 409 24<338.228 353>
LayerCount: 2
Fore
SplineSet
254 352 m 0
 254 360 302 665 306 675 c 0
 313 692 331 704 350 705 c 0
 369 705 385 693 385 673 c 0
 385 662 381 650 377 640 c 2
 278 353 l 2
 276 347 272 338 264 338 c 0
 260 338 254 341 254 352 c 0
409 354 m 0
 409 360 455 661 461 675 c 0
 468 692 484 704 503 705 c 1
 504 705 l 2
 524 705 539 691 539 673 c 0
 539 662 534 650 531 640 c 2
 433 353 l 2
 431 347 427 338 419 338 c 0
 412 338 409 344 409 354 c 0
EndSplineSet
EndChar

StartChar: numbersign
Encoding: 35 35 44
Width: 818
Flags: HW
TeX: 688 194
ItalicCorrection: 66
HStem: 142 22<116.01 294 331 512 549 775.989> 336 22<165.011 391 428 610 647 823.991> 672 20G<574.5 581.5 793.5 800.5>
DStem2: 167 -110 170 -157 0.449477 0.893292<-79.8856 282.193 318.476 499.091 535.374 901.003> 386 -110 388 -157 0.448079 0.893994<-80.3401 281.744 317.991 499.091 535.338 900.992>
LayerCount: 2
Fore
SplineSet
116 153 m 0
 116 164 130 164 141 164 c 2
 305 164 l 1
 391 336 l 1
 191 336 l 2
 180 336 165 336 165 347 c 0
 165 358 177 358 188 358 c 2
 403 358 l 1
 403 358 555 663 564 679 c 0
 567 684 571 692 578 692 c 0
 585 692 592 686 584 669 c 2
 428 358 l 1
 622 358 l 1
 622 358 773 663 782 679 c 0
 785 684 790 692 797 692 c 0
 804 692 810 686 802 669 c 2
 647 358 l 1
 801 358 l 2
 812 358 824 357 824 347 c 0
 824 336 811 336 800 336 c 2
 635 336 l 1
 549 164 l 1
 750 164 l 2
 761 164 776 164 776 153 c 0
 776 143 766 142 752 142 c 2
 537 142 l 1
 388 -157 l 2
 380 -173 372 -192 362 -192 c 0
 356 -192 353 -189 353 -184 c 0
 353 -170 370 -141 386 -110 c 2
 512 142 l 1
 319 142 l 1
 170 -157 l 2
 162 -173 154 -192 144 -192 c 0
 138 -192 135 -189 135 -184 c 0
 135 -170 151 -141 167 -110 c 2
 294 142 l 1
 139 142 l 2
 129 142 116 143 116 153 c 0
331 164 m 1
 524 164 l 1
 610 336 l 1
 416 336 l 1
 331 164 l 1
EndSplineSet
EndChar

StartChar: dollar
Encoding: 36 36 45
Width: 511
Flags: HW
TeX: 749 55
ItalicCorrection: 135
HStem: -10 30<192.641 236> 143 79<145.981 194.749> 324 83<291.617 320> 486 79<490.206 539.273>
VStem: 113 32<65.324 142.966> 199 56<442.225 559.594> 432 56<148.607 278.154> 540 31<567.32 629.441>
DStem2: 224.747 -55 255.997 -55 0.242599 0.970127<15.3137 46.3857 86.1636 389.091 476.159 750.467 790.972 823.348>
LayerCount: 2
Fore
SplineSet
113 123 m 0
 113 170 125 222 169 222 c 0
 191 222 202 207 202 189 c 0
 202 167 185 143 151 143 c 2
 145 143 l 1
 145 127 l 2
 145 42 203 24 244 20 c 1
 320 324 l 1
 303 328 199 348 199 468 c 0
 199 575 289 691 415 705 c 1
 422 734 424 749 439 749 c 0
 449 749 453 745 453 737 c 0
 453 729 449 718 446 705 c 1
 520 699 571 657 571 578 c 0
 571 499 539 486 517 486 c 0
 495 486 483 502 483 519 c 0
 483 541 500 565 534 565 c 2
 540 565 l 1
 540 596 539 664 439 674 c 1
 370 398 l 1
 385 394 488 376 488 248 c 0
 488 131 395 5 267 -11 c 1
 261 -40 258 -55 243 -55 c 0
 233 -55 230 -49 230 -41 c 0
 230 -31 234 -18 236 -10 c 1
 156 -3 113 46 113 123 c 0
255 506 m 0
 255 423 329 410 340 407 c 1
 407 673 l 1
 311 656 255 573 255 506 c 0
276 21 m 1
 362 35 432 126 432 211 c 0
 432 300 361 312 349 315 c 1
 276 21 l 1
EndSplineSet
EndChar

StartChar: percent
Encoding: 37 37 46
Width: 818
Flags: HW
TeX: 749 55
ItalicCorrection: 136
HStem: -55 22<584.043 641.068> 324 23<669.363 727.352> 347 23<276.317 335.468> 621 22<539.923 673.831> 727 23<362.097 421.829>
VStem: 204 52<391.705 570.53> 448 30<537.406 681.883> 512 52<-11.6551 167.445> 756 30<133.669 295.374>
DStem2: 160 -10 189 -38 0.653406 0.757007<-28.3672 872.823 884.707 1006.76>
LayerCount: 2
Fore
SplineSet
145 -35 m 0
 145 -25 155 -16 160 -10 c 2
 730 651 l 1
 696 635 656 621 606 621 c 0
 560 621 517 632 475 663 c 1
 477 650 478 636 478 623 c 0
 478 499 389 347 299 347 c 0
 242 347 204 404 204 479 c 0
 204 609 301 750 394 750 c 0
 442 750 452 713 483 686 c 0
 516 657 561 643 605 643 c 2
 606 643 l 2
 675 643 747 677 792 723 c 0
 800 731 812 749 825 749 c 0
 834 749 844 741 844 730 c 0
 844 720 835 710 826 700 c 2
 189 -38 l 2
 183 -45 174 -54 164 -54 c 0
 152 -54 145 -45 145 -35 c 0
256 449 m 0
 256 398 275 370 302 370 c 0
 370 370 448 516 448 629 c 0
 448 678 433 727 394 727 c 0
 311 727 256 526 256 449 c 0
512 78 m 0
 512 204 607 347 702 347 c 0
 767 347 786 274 786 223 c 0
 786 95 697 -55 607 -55 c 0
 550 -55 512 -2 512 78 c 0
564 45 m 0
 564 13 573 -33 610 -33 c 0
 676 -33 756 109 756 225 c 0
 756 287 733 324 701 324 c 0
 618 324 564 123 564 45 c 0
EndSplineSet
EndChar

StartChar: ampersand
Encoding: 38 38 47
Width: 766
Flags: HW
TeX: 688 0
ItalicCorrection: 96
HStem: -22 23<308.305 472> 242 46<520.225 539.651> 309 23<299.469 367.067> 438 23<329.366 392.201> 522 80<450.644 497.706> 674 20G<758.5 778> 694 22<386.818 460.738>
VStem: 125 76<90.7704 265.816> 210 58<427.456 542.286> 399 30<360.857 433.316> 489 31<288.896 360.687> 498 30<602 658.129> 701 32<219.476 388.216> 723 79<620.591 686.237>
LayerCount: 2
Fore
SplineSet
125 176 m 0
 125 244 168 331 222 388 c 1
 217 401 210 422 210 455 c 0
 210 582 317 716 423 716 c 0
 486 716 528 669 528 602 c 0
 528 536 496 522 475 522 c 0
 457 522 442 535 442 554 c 0
 442 576 460 602 492 602 c 2
 498 602 l 1xffd8
 495 680 449 694 423 694 c 0
 388 694 356 665 335 638 c 0
 284 572 269 457 268 427 c 1
 293 443 327 461 366 461 c 2
 367 461 l 2
 404 461 429 436 429 401 c 0
 429 356 387 309 333 309 c 0
 297 309 273 324 252 341 c 1
 217 268 201 193 201 156 c 0
 201 51 282 1 383 1 c 0
 637 1 701 221 701 309 c 0xffd8
 701 370 680 406 649 448 c 1
 577 404 520 372 520 311 c 0
 520 304 520 296 522 288 c 1
 523 288 l 1
 534 310 549 319 567 319 c 0
 585 319 600 307 600 288 c 0
 600 266 580 242 551 242 c 0
 514 242 489 273 489 312 c 0
 489 400 592 443 652 486 c 0
 697 519 734 562 757 616 c 1
 728 619 723 637 723 648 c 0
 723 676 748 694 769 694 c 0
 787 694 802 681 802 662 c 0xffe4
 802 643 774 542 675 466 c 1
 707 428 733 376 733 311 c 0
 733 206 656 -22 380 -22 c 0
 235 -22 125 57 125 176 c 0
278 376 m 0xffc0
 278 361 300 332 334 332 c 0
 373 332 399 372 399 404 c 0
 399 427 385 438 366 438 c 0
 328 438 278 392 278 376 c 0xffc0
EndSplineSet
EndChar

StartChar: quoteright
Encoding: 8217 8217 48
Width: 307
Flags: HW
TeX: 688 0
ItalicCorrection: 124
HStem: 589 105<276.072 345.345>
VStem: 259 113<610.398 676.751>
LayerCount: 2
Fore
SplineSet
220 406 m 0
 220 414 234 423 241 429 c 0
 291 473 333 537 346 606 c 1
 332 595 320 589 303 589 c 0
 277 589 259 605 259 630 c 0
 259 661 286 694 323 694 c 0
 342 694 372 682 372 631 c 0
 372 522 255 396 230 396 c 0
 225 396 220 401 220 406 c 0
EndSplineSet
EndChar

StartChar: parenleft
Encoding: 40 40 49
Width: 409
Flags: HW
TeX: 749 249
ItalicCorrection: 161
VStem: 151 50<-107.743 194.273>
LayerCount: 2
Fore
SplineSet
151 46 m 0
 151 247 245 562 483 738 c 0
 489 743 497 748 504 748 c 0
 509 748 514 746 514 740 c 0
 514 716 336 634 239 266 c 0
 220 194 201 101 201 10 c 0
 201 -147 261 -220 267 -232 c 0
 271 -241 267 -248 259 -248 c 0
 242 -248 151 -146 151 46 c 0
EndSplineSet
EndChar

StartChar: parenright
Encoding: 41 41 50
Width: 409
Flags: HW
TeX: 749 249
ItalicCorrection: 36
VStem: 331 50<303.024 604.88>
LayerCount: 2
Fore
SplineSet
18 -240 m 0
 18 -216 202 -129 298 251 c 0
 318 329 331 409 331 490 c 0
 331 666 263 719 263 740 c 0
 263 744 268 748 273 748 c 0
 294 748 381 639 381 453 c 0
 381 252 287 -64 46 -240 c 0
 43 -242 35 -248 28 -248 c 0
 23 -248 18 -245 18 -240 c 0
EndSplineSet
EndChar

StartChar: asterisk
Encoding: 42 42 51
Width: 511
Flags: HW
TeX: 749 0
ItalicCorrection: 149
VStem: 315 46<320.399 406.981>
LayerCount: 2
Fore
SplineSet
195 436 m 0
 195 459 204 459 367 535 c 1
 246 609 241 608 241 624 c 0
 241 639 260 653 273 653 c 2
 275 653 l 2
 285 653 286 651 382 557 c 1
 412 732 410 727 416 735 c 0
 422 743 431 749 441 749 c 0
 447 749 461 745 461 730 c 0
 461 723 462 728 406 557 c 1
 537 643 549 653 562 653 c 0
 572 653 581 646 581 634 c 0
 581 611 571 610 410 535 c 1
 532 460 534 462 534 446 c 0
 534 431 517 416 503 416 c 2
 501 416 l 2
 491 416 490 419 394 513 c 1
 364 338 367 343 361 335 c 0
 355 327 345 320 335 320 c 0
 329 320 315 324 315 339 c 0
 315 346 315 344 371 513 c 1
 240 427 228 416 215 416 c 0
 205 416 195 424 195 436 c 0
EndSplineSet
EndChar

StartChar: plus
Encoding: 43 43 52
Width: 766
Flags: HW
TeX: 556 56
ItalicCorrection: 36
HStem: 239 22<141.009 431 460 749.991>
VStem: 507 22<501 553.931>
DStem2: 357.73 -54 380.998 -54 0.242599 0.970127<114.667 302.022 330.401 619.334>
LayerCount: 2
Fore
SplineSet
141 250 m 0
 141 260 153 262 164 262 c 0
 169 262 173 261 176 261 c 2
 437 261 l 1
 438 267 505 535 507 542 c 0
 509 548 513 554 519 554 c 0
 527 554 529 549 529 542 c 0
 529 533 525 522 524 517 c 2
 460 261 l 1
 715 261 l 2
 718 261 723 262 727 262 c 0
 738 262 750 260 750 250 c 0
 750 239 738 239 715 239 c 2
 454 239 l 1
 389 -22 l 2
 384 -41 382 -54 372 -54 c 0
 364 -54 362 -49 362 -42 c 0
 362 -29 409 144 431 239 c 1
 176 239 l 2
 173 239 167 238 163 238 c 0
 152 238 141 240 141 250 c 0
EndSplineSet
EndChar

StartChar: comma
Encoding: 44 44 53
Width: 307
Flags: HW
TeX: 105 194
HStem: 0 106<129.789 195.023>
VStem: 112 110<20.1447 88.2976>
LayerCount: 2
Fore
SplineSet
73 -182 m 0
 73 -164 166 -118 196 15 c 1
 175 1 164 0 156 0 c 0
 130 0 112 17 112 42 c 0
 112 73 140 106 176 106 c 0
 195 106 222 96 222 47 c 0
 222 -67 107 -192 83 -192 c 0
 78 -192 73 -188 73 -182 c 0
EndSplineSet
EndChar

StartChar: hyphen
Encoding: 45 45 54
Width: 358
Flags: HW
TeX: 430 0
ItalicCorrection: 28
HStem: 187 56<90.4148 333.249>
VStem: 86 251<190.3 242.581>
LayerCount: 2
Fore
SplineSet
86 201 m 1
 86 201 90 236 103 241 c 0
 107 243 111 243 116 243 c 2
 315 243 l 2
 326 243 337 242 337 229 c 0
 337 228 334 196 323 190 c 0
 319 188 313 187 308 187 c 2
 108 187 l 2
 96 187 86 188 86 201 c 1
EndSplineSet
EndChar

StartChar: period
Encoding: 46 46 55
Width: 307
Flags: HW
TeX: 105 0
HStem: 0 106<130.161 200.839>
VStem: 112 107<18.045 87.955>
LayerCount: 2
Fore
SplineSet
112 43 m 0
 112 73 142 106 176 106 c 0
 202 106 219 87 219 63 c 0
 219 33 189 0 155 0 c 0
 129 0 112 19 112 43 c 0
EndSplineSet
EndChar

StartChar: slash
Encoding: 47 47 56
Width: 511
Flags: HW
TeX: 749 249
ItalicCorrection: 161
DStem2: 27 -217 66 -196 0.509519 0.860459<-22.3705 1120.78>
LayerCount: 2
Fore
SplineSet
18 -238 m 0
 18 -231 23 -223 27 -217 c 2
 570 700 l 2
 585 725 595 748 606 748 c 0
 612 748 616 742 616 737 c 0
 616 732 612 726 609 721 c 2
 66 -196 l 2
 36 -247 35 -248 27 -248 c 0
 21 -248 18 -244 18 -238 c 0
EndSplineSet
EndChar

StartChar: zero
Encoding: 48 48 57
Width: 511
Flags: HW
TeX: 641 0
ItalicCorrection: 135
HStem: -22 23<217.516 296.115> 644 22<371.221 453.261>
VStem: 116 64<43.0726 236.851> 493 62<413.712 600.096>
LayerCount: 2
Fore
SplineSet
116 149 m 0
 116 220 160 489 277 602 c 0
 310 634 363 666 421 666 c 0
 474 666 555 641 555 494 c 0
 555 420 494 -22 250 -22 c 0
 196 -22 116 3 116 149 c 0
180 97 m 0
 180 22 223 1 256 1 c 0
 281 1 343 17 383 105 c 0
 418 180 493 468 493 549 c 0
 493 608 461 644 415 644 c 0
 374 644 338 615 314 584 c 0
 285 547 264 493 229 352 c 0
 214 292 180 162 180 97 c 0
EndSplineSet
Substitution2: "LGC old numerals subtable" zerooldstyle
EndChar

StartChar: one
Encoding: 49 49 58
Width: 511
Flags: HW
TeX: 641 0
ItalicCorrection: 135
HStem: 0 31<118.171 232.817 312.866 410.811> 507 25<240.097 290.98> 645 20G<445 451.5>
DStem2: 227.244 0 296.745 0 0.242599 0.970127<71.2373 564.079>
LayerCount: 2
Fore
SplineSet
118 13 m 0
 118 30 133 31 143 31 c 2
 153 31 l 1
 235 33 238 40 249 87 c 2
 365 547 l 1
 326 522 283 507 259 507 c 0
 249 507 242 510 240 515 c 0
 238 521 240 528 243 532 c 0
 258 550 323 514 433 655 c 0
 437 660 442 665 448 665 c 0
 455 665 459 658 459 652 c 0
 459 648 458 643 457 639 c 2
 315 73 l 2
 313 64 312 57 312 52 c 0
 312 33 337 31 363 31 c 0
 369 31 375 32 381 32 c 0
 394 32 404 31 409 28 c 0
 416 23 415 13 411 7 c 0
 407 1 401 0 394 0 c 0
 381 0 343 3 266 3 c 0
 188 3 149 0 136 0 c 0
 126 0 118 3 118 13 c 0
EndSplineSet
Substitution2: "LGC old numerals subtable" oneoldstyle
EndChar

StartChar: two
Encoding: 50 50 59
Width: 511
Flags: HW
TeX: 641 0
ItalicCorrection: 135
HStem: -22 70<283.631 417.219> 54 23<151.221 213.009> 336 23<198.059 247.842> 644 22<342.778 431.869>
VStem: 164 30<360.24 460.093> 313 22<447.275 536.773> 479 71<420.008 587.746> 479 34<115.5 172.815>
LayerCount: 2
Fore
SplineSet
84 -9 m 0
 84 9 125 138 255 223 c 0
 304 255 479 334 479 535 c 0
 479 602 444 644 391 644 c 0
 273 644 194 462 194 391 c 0
 194 367 204 359 217 359 c 0
 270 359 313 454 313 493 c 0
 313 513 303 528 303 536 c 0
 303 542 309 547 315 546 c 0
 326 543 335 517 335 494 c 0
 335 449 290 336 215 336 c 0
 179 336 164 365 164 398 c 0
 164 470 247 666 394 666 c 0
 485 666 550 597 550 498 c 0xfe
 550 391 490 325 330 233 c 0
 278 203 208 168 151 74 c 1
 159 76 167 77 175 77 c 0
 236 77 301 48 362 48 c 0
 430 48 465 116 475 140 c 0
 485 163 483 173 499 173 c 0
 506 173 513 170 513 160 c 0
 513 138 461 -22 353 -22 c 0xfd
 276 -22 235 54 172 54 c 0
 161 54 152 51 143 42 c 0
 114 14 121 -22 98 -22 c 0
 92 -22 84 -19 84 -9 c 0
EndSplineSet
Substitution2: "LGC old numerals subtable" twooldstyle
EndChar

StartChar: three
Encoding: 51 51 60
Width: 511
Flags: HW
TeX: 641 0
ItalicCorrection: 135
HStem: -22 23<179.183 280.157> 103 80<125.726 171.625> 320 30<277.139 378.5> 413 22<235.273 285.663> 644 23<358.609 460.889>
VStem: 94 86<111.313 171.457> 198 30<438.934 528.729> 314 23<462.571 535.911> 407 72<131.296 280.529> 501 61<456.26 606.762>
LayerCount: 2
Fore
SplineSet
94 106 m 0
 94 170 125 183 146 183 c 0
 169 183 180 168 180 151 c 0
 180 137 170 103 127 103 c 2
 125 103 l 1
 130 17 193 1 226 1 c 0
 283 1 340 39 369 93 c 0
 396 144 407 215 407 237 c 0
 407 277 391 320 327 320 c 2
 298 320 l 2
 289 320 277 319 277 333 c 0
 277 342 284 351 302 351 c 0
 306 351 310 350 314 350 c 2
 325 350 l 2
 485 350 501 527 501 555 c 0
 501 613 465 644 416 644 c 0
 319 644 228 550 228 473 c 0
 228 442 245 435 256 435 c 0
 279 435 314 461 314 496 c 0
 314 513 303 527 303 536 c 0
 303 542 309 546 313 546 c 0
 322 546 337 524 337 497 c 0
 337 451 295 413 253 413 c 0
 220 413 198 438 198 476 c 0
 198 560 298 667 419 667 c 0
 496 667 562 617 562 532 c 0
 562 457 509 373 400 330 c 1
 445 310 479 265 479 203 c 0
 479 80 349 -22 228 -22 c 0
 148 -22 94 31 94 106 c 0
EndSplineSet
Substitution2: "LGC old numerals subtable" threeoldstyle
EndChar

StartChar: four
Encoding: 52 52 61
Width: 511
Flags: HW
TeX: 641 194
ItalicCorrection: 135
HStem: -194 21G<278.5 293.5> -15 31<368 457.383> 36 31<142 247.566> 646 20G<438.5 452.5>
VStem: 258 62<-191.76 -89.9829> 408 63<565.955 662.851>
DStem2: 249.986 -194 314.987 -194 0.242599 0.970127<28.8191 203.926 233.327 435.516>
LayerCount: 2
Fore
SplineSet
44 18 m 0
 44 45 71 30 167 138 c 0
 345 340 393 598 408 639 c 0
 416 660 433 666 444 666 c 0
 461 666 471 654 471 642 c 0
 471 616 393 294 142 67 c 1
 171 67 l 2
 227 67 252 54 307 32 c 1
 314 63 322 94 345 186 c 0
 348 200 354 241 389 241 c 0
 404 241 416 230 416 214 c 0
 416 204 374 40 368 17 c 1
 373 17 378 16 383 16 c 0
 421 16 445 29 458 29 c 0
 467 29 473 20 473 14 c 0
 473 -4 407 -15 381 -15 c 0
 374 -15 367 -15 360 -14 c 1
 321 -169 323 -163 320 -170 c 0
 314 -184 301 -194 286 -194 c 0
 271 -194 258 -183 258 -167 c 0
 258 -153 280 -81 299 2 c 1
 241 21 227 36 167 36 c 0
 103 36 100 29 77 12 c 0
 68 5 62 3 57 3 c 0
 45 3 44 17 44 18 c 0
EndSplineSet
Substitution2: "LGC old numerals subtable" fouroldstyle
EndChar

StartChar: five
Encoding: 53 53 62
Width: 511
Flags: HW
TeX: 641 0
ItalicCorrection: 135
HStem: -22 28<185.695 288.488> 122 86<137.21 189.167> 398 22<306.782 394.684> 558 76<313.313 464.673>
VStem: 106 31<54.5216 119.655> 425 71<188.354 354.823>
DStem2: 110.224 -22 142.222 -22 0.242599 0.970127<414.926 619.869>
LayerCount: 2
Fore
SplineSet
106 116 m 0
 106 195 140 208 163 208 c 0
 187 208 199 191 199 173 c 0
 199 154 185 122 144 122 c 0
 142 122 139 123 137 123 c 1
 138 28 196 6 235 6 c 0
 285 6 331 44 357 81 c 0
 396 136 425 257 425 309 c 0
 425 351 409 398 363 398 c 0
 272 398 230 320 212 320 c 0
 205 320 200 325 200 334 c 0
 200 339 203 347 204 353 c 2
 277 643 l 2
 279 649 281 664 292 664 c 0
 304 664 338 634 415 634 c 0
 493 634 543 665 554 665 c 0
 559 665 564 661 564 655 c 0
 564 637 474 558 367 558 c 0
 336 558 312 564 290 572 c 1
 241 373 l 1
 272 397 313 420 364 420 c 0
 450 420 496 349 496 265 c 0
 496 113 363 -22 234 -22 c 0
 154 -22 106 36 106 116 c 0
EndSplineSet
Substitution2: "LGC old numerals subtable" fiveoldstyle
EndChar

StartChar: six
Encoding: 54 54 63
Width: 511
Flags: HW
TeX: 641 0
ItalicCorrection: 135
HStem: -22 28<215.523 307.796> 403 23<316.579 401.618> 522 80<490.216 533.479> 641 26<413.916 514.467>
VStem: 119 67<48.3061 232.42> 433 73<195.517 353.998> 482 85<532.519 592.802>
LayerCount: 2
Fore
SplineSet
119 158 m 0
 119 229 142 332 165 392 c 0
 222 541 349 667 471 667 c 0
 527 667 567 640 567 588 c 0
 567 537 536 522 516 522 c 0
 497 522 482 535 482 554 c 0xfa
 482 567 490 600 534 602 c 1
 531 610 521 641 469 641 c 0
 422 641 298 605 233 340 c 1
 255 375 298 426 367 426 c 0
 478 426 506 318 506 270 c 0
 506 126 384 -22 254 -22 c 0
 200 -22 119 7 119 158 c 0
186 98 m 0
 186 53 204 6 256 6 c 0
 293 6 322 24 348 53 c 0
 411 124 433 300 433 317 c 0xfc
 433 361 416 403 363 403 c 0
 303 403 243 348 212 248 c 0
 203 219 186 143 186 98 c 0
EndSplineSet
Substitution2: "LGC old numerals subtable" sixoldstyle
EndChar

StartChar: seven
Encoding: 55 55 64
Width: 511
Flags: HW
TeX: 641 0
ItalicCorrection: 135
HStem: -22 21G<295 325> 527 22<448.544 503.494> 596 70<313.507 409.094>
VStem: 268 88<-10.9653 90.6956>
LayerCount: 2
Fore
SplineSet
145 432 m 0
 145 439 146 437 239 638 c 0
 245 651 250 666 265 666 c 0
 274 666 277 662 277 656 c 0
 277 645 267 626 256 603 c 1
 284 628 331 666 390 666 c 0
 470 666 413 549 469 549 c 0
 515 549 561 612 584 645 c 0
 589 652 596 666 610 666 c 0
 618 666 623 662 623 656 c 0
 623 632 470 475 356 30 c 0
 354 24 346 -22 304 -22 c 0
 286 -22 268 -10 268 12 c 0
 268 22 300 192 470 470 c 1
 512 537 l 1
 494 530 480 527 468 527 c 0
 410 527 423 596 374 596 c 2
 370 596 l 1
 290 590 221 517 181 442 c 0
 176 434 173 422 160 421 c 0
 153 421 145 424 145 432 c 0
EndSplineSet
Substitution2: "LGC old numerals subtable" sevenoldstyle
EndChar

StartChar: eight
Encoding: 56 56 65
Width: 511
Flags: HW
TeX: 641 0
ItalicCorrection: 135
HStem: -22 28<197.749 320.566> 641 25<358.687 465.519>
VStem: 96 50<45.1849 192.252> 209 55<455.935 545.223> 433 59<123.438 227.433> 508 45<477.851 611.507>
LayerCount: 2
Fore
SplineSet
96 114 m 0
 96 203 173 290 284 338 c 1
 254 363 209 392 209 463 c 0
 209 562 307 666 419 666 c 0
 494 666 553 619 553 548 c 0
 553 473 489 404 396 360 c 1
 439 323 492 292 492 209 c 0
 492 95 379 -22 251 -22 c 0
 163 -22 96 32 96 114 c 0
146 112 m 0
 146 48 191 6 254 6 c 0
 345 6 433 86 433 167 c 0
 433 223 404 236 304 321 c 1
 216 278 146 196 146 112 c 0
264 508 m 0
 264 463 288 452 376 377 c 1
 443 409 508 479 508 551 c 0
 508 604 471 641 416 641 c 0
 338 641 264 575 264 508 c 0
EndSplineSet
Substitution2: "LGC old numerals subtable" eightoldstyle
EndChar

StartChar: nine
Encoding: 57 57 66
Width: 511
Flags: HW
TeX: 641 0
ItalicCorrection: 135
HStem: -22 28<158.157 266.312> 42 81<138.594 179.575> 218 23<269.505 353.37> 641 25<371.446 456.868>
VStem: 104 85<52.8435 111.911> 164 74<289.476 449.44> 487 65<420.746 599.912>
LayerCount: 2
Fore
SplineSet
104 58 m 0
 104 107 135 123 155 123 c 0
 174 123 189 109 189 90 c 0xfa
 189 78 179 44 138 42 c 1
 151 18 174 6 214 6 c 0
 272 6 324 55 359 106 c 0
 399 166 421 235 438 304 c 1
 437 304 l 1
 400 247 356 218 302 218 c 0
 200 218 164 316 164 375 c 0
 164 417 180 479 203 520 c 0
 229 567 311 666 422 666 c 0
 474 666 552 638 552 490 c 0
 552 392 516 279 503 245 c 0
 447 101 328 -22 212 -22 c 0
 152 -22 104 2 104 58 c 0
238 328 m 0
 238 290 252 241 307 241 c 0
 381 241 434 318 459 398 c 0
 468 428 487 507 487 553 c 0xf6
 487 608 460 641 421 641 c 0
 288 641 256 432 255 427 c 0
 240 368 238 348 238 328 c 0
EndSplineSet
Substitution2: "LGC old numerals subtable" nineoldstyle
EndChar

StartChar: less
Encoding: 60 60 69
Width: 766
Flags: HW
TeX: 533 39
ItalicCorrection: 83
VStem: 166 35<238.884 256.158>
DStem2: 201 248 192 227 0.868734 -0.495278<0 523.492> 194 271 201 249 0.914273 0.405098<-2.32966 640.151>
LayerCount: 2
Fore
SplineSet
166 250 m 0
 166 260 183 266 194 271 c 2
 765 524 l 2
 774 528 777 529 780 529 c 0
 786 529 791 524 791 519 c 0
 791 509 778 505 765 499 c 2
 261 276 l 2
 241 267 221 257 201 249 c 1
 201 248 l 1
 211 243 220 238 230 232 c 2
 641 -3 l 2
 652 -10 656 -15 656 -20 c 0
 656 -25 651 -29 646 -29 c 0
 639 -29 632 -24 627 -21 c 2
 192 227 l 2
 178 235 166 241 166 250 c 0
EndSplineSet
EndChar

StartChar: equal
Encoding: 61 61 70
Width: 766
Flags: HW
TeX: 366 -133
ItalicCorrection: 66
HStem: 142 22<116.009 721.86> 336 22<165.01 772.99>
LayerCount: 2
Fore
SplineSet
116 153 m 0
 116 163 129 164 141 164 c 2
 699 164 l 2
 706 164 713 165 719 162 c 0
 725 159 727 151 722 146 c 0
 719 143 717 142 697 142 c 2
 138 142 l 2
 128 142 116 143 116 153 c 0
165 347 m 0
 165 356 174 358 185 358 c 2
 754 358 l 2
 762 358 773 357 773 347 c 0
 773 336 759 336 748 336 c 2
 214 336 l 2
 207 336 199 335 192 335 c 2
 189 335 l 2
 179 335 165 336 165 347 c 0
EndSplineSet
EndChar

StartChar: greater
Encoding: 62 62 71
Width: 766
Flags: HW
TeX: 533 39
ItalicCorrection: 11
VStem: 689 35<243.842 261.172>
DStem2: 125 1 138 -18 0.914212 0.405236<-25.5234 616.739> 259 523 249 502 0.869457 -0.494009<-15.8001 507.743>
LayerCount: 2
Fore
SplineSet
99 -19 m 0
 99 -9 112 -5 125 1 c 2
 629 224 l 2
 649 233 669 243 689 251 c 1
 689 252 l 1
 666 264 644 277 621 290 c 2
 249 502 l 2
 237 509 234 515 234 520 c 0
 234 525 239 529 244 529 c 0
 249 529 255 525 259 523 c 2
 698 273 l 2
 712 265 724 259 724 250 c 0
 724 240 707 234 696 229 c 2
 138 -18 l 2
 129 -22 118 -29 110 -29 c 0
 104 -29 99 -24 99 -19 c 0
EndSplineSet
EndChar

StartChar: question
Encoding: 63 63 72
Width: 511
Flags: HW
TeX: 688 0
ItalicCorrection: 122
HStem: 0 106<232.407 303.839> 187 23<287.596 340.953> 694 22<381.251 472.733>
VStem: 194 81<439.737 505.554> 215 107<18.045 88.0312> 246 36<211.603 293.507> 383 33<244.473 284.952> 516 35<541 660.567>
LayerCount: 2
Fore
SplineSet
194 463 m 0xf3
 194 503 275 716 431 716 c 0
 505 716 551 663 551 593 c 0
 551 535 521 482 487 448 c 0
 462 423 317 314 302 296 c 0
 291 284 282 264 282 243 c 0
 282 220 294 210 309 210 c 0
 333 210 368 234 383 271 c 0
 385 276 386 283 390 287 c 0
 397 294 411 293 415 285 c 0
 416 284 416 282 416 280 c 0
 416 256 371 187 306 187 c 0
 268 187 246 217 246 256 c 0xe7
 246 291 261 322 279 343 c 0
 290 356 305 367 417 456 c 0
 431 467 516 520 516 606 c 0
 516 656 482 694 430 694 c 0
 353 694 277 618 238 511 c 1
 270 509 275 491 275 478 c 0xf3
 275 450 249 431 227 431 c 0
 208 431 194 444 194 463 c 0xf3
215 43 m 0
 215 78 249 106 279 106 c 0xeb
 303 106 322 89 322 63 c 0
 322 33 292 0 258 0 c 0
 232 0 215 19 215 43 c 0
EndSplineSet
EndChar

StartChar: at
Encoding: 64 64 73
Width: 766
Flags: HW
TeX: 688 0
ItalicCorrection: 95
HStem: -11 22<318.792 494.929> 128 22<382.985 463.819 617.216 659.735> 544 23<480.664 562.228> 683 23<484.574 619.091>
VStem: 150 31<152.601 351.78> 278 62<196.239 378.602> 758 31<337.142 543.246>
LayerCount: 2
Fore
SplineSet
150 248 m 0
 150 481 357 706 557 706 c 0
 696 706 789 596 789 446 c 0
 789 363 751 248 733 210 c 0
 705 152 669 127 627 127 c 0
 605 127 556 136 552 193 c 1
 515 158 470 128 416 128 c 0
 333 128 278 195 278 287 c 0
 278 429 402 567 520 567 c 0
 588 567 621 518 634 482 c 1
 655 482 l 2
 673 482 683 482 683 469 c 0
 683 466 682 462 681 457 c 2
 619 210 l 2
 616 196 614 185 614 176 c 0
 614 160 620 151 633 151 c 0
 715 151 758 383 758 448 c 0
 758 585 677 683 556 683 c 0
 372 683 181 465 181 246 c 0
 181 120 252 11 387 11 c 0
 549 11 637 79 680 79 c 0
 698 79 705 75 705 70 c 0
 705 67 702 64 699 61 c 0
 690 54 546 -11 387 -11 c 0
 232 -11 150 108 150 248 c 0
340 271 m 0
 340 215 360 150 418 150 c 0
 490 150 554 232 564 254 c 0
 567 260 612 432 612 446 c 0
 612 476 585 544 521 544 c 0
 434 544 340 398 340 271 c 0
EndSplineSet
EndChar

StartChar: A
Encoding: 65 65 74
Width: 743
Flags: HW
TeX: 688 0
HStem: 0 31<615.536 689.897> 1 23<439.026 499.084> 230 30<307 515> 696 20G<540 558.5>
VStem: 59 145<9 75.5> 528 162<12 75>
DStem2: 190 113 289 230 0.493698 0.869633<-33.9594 150.623 185.599 561.797> 568 688 493 587 0.0690778 -0.997611<95.5779 423.316 453.383 610.51>
AnchorPoint: "ogonek" 587 0 basechar 0
AnchorPoint: "below" 370 0 basechar 0
AnchorPoint: "above" 546 705 basechar 0
LayerCount: 2
Fore
SplineSet
59 14 m 0
 59 55 121 -8 190 113 c 2
 517 689 l 2
 522 698 531 716 549 716 c 0
 568 716 567 700 568 688 c 2
 611 67 l 2
 613 36 623 32 663 31 c 0
 674 31 690 32 690 17 c 0
 690 9 686 0 670 0 c 0xbc
 649 0 629 3 567 3 c 0
 515 3 482 1 464 1 c 0
 448 1 439 5 439 13 c 0
 439 16 440 20 443 24 c 0x7c
 455 42 528 15 528 73 c 0
 528 77 520 178 517 230 c 1
 289 230 l 1
 226 118 204 86 204 65 c 0
 204 25 257 40 259 19 c 0
 260 10 255 0 239 0 c 0xbc
 230 0 203 3 150 3 c 0
 117 3 95 1 81 1 c 0x7c
 65 1 59 4 59 14 c 0
307 260 m 1x3c
 515 260 l 1
 493 587 l 1
 307 260 l 1x3c
EndSplineSet
EndChar

StartChar: B
Encoding: 66 66 75
Width: 704
Flags: HW
TeX: 688 0
ItalicCorrection: 102
HStem: -0 31<65.0586 160.461 243.006 466.84> 344 23<322 534.891> 652 31<230.192 310.591 391.238 604.375>
VStem: 587 90<144.056 289.649> 645 88<472.793 617.084>
DStem2: 153.993 -0 229.976 -0 0.242599 0.970127<136.034 373.026 396.795 651.905>
AnchorPoint: "below" 321 0 basechar 0
AnchorPoint: "above" 497 705 basechar 0
LayerCount: 2
Fore
SplineSet
65 14 m 0
 65 31 81 31 101 31 c 2
 109 31 l 2
 125 31 143 32 155 41 c 0
 171 52 175 83 179 100 c 2
 307 610 l 2
 309 619 311 627 311 633 c 0
 311 651 288 652 267 652 c 2
 259 652 l 2
 248 652 238 652 233 655 c 0
 226 659 226 669 230 675 c 0
 234 683 244 683 253 683 c 2
 556 683 l 2
 698 683 733 601 733 547 c 0xe8
 733 509 710 398 533 357 c 1
 634 348 677 279 677 219 c 0xf0
 677 118 572 18 456 2 c 0
 439 0 421 0 403 -0 c 2
 85 -0 l 2
 74 0 65 2 65 14 c 0
243 44 m 0
 243 32 251 31 272 31 c 2
 389 31 l 2
 428 31 455 36 492 60 c 0
 550 98 587 164 587 233 c 0xf0
 587 293 556 344 492 344 c 2
 316 344 l 1
 311 324 243 54 243 44 c 0
322 367 m 1
 426 367 l 2
 434 367 444 366 452 366 c 0
 577 366 645 475 645 554 c 0xe8
 645 593 627 652 549 652 c 2
 441 652 l 2
 396 652 393 649 384 616 c 0
 334 417 327 392 322 367 c 1
EndSplineSet
EndChar

StartChar: C
Encoding: 67 67 76
Width: 715
Flags: HW
TeX: 688 0
ItalicCorrection: 145
HStem: -22 31<339.816 478.744> 674 31<500.48 640.08>
VStem: 149 88<130 344.908> 661 35<188.171 248.761> 719 91<462.212 696.5>
AnchorPoint: "below" 400 0 basechar 0
AnchorPoint: "above" 568 705 basechar 0
LayerCount: 2
Fore
SplineSet
149 245 m 0
 149 482 368 705 569 705 c 0
 605 705 676 697 719 620 c 1
 791 702 790 704 800 704 c 0
 804 704 810 701 810 692 c 0
 810 687 810 688 748 440 c 0
 744 424 737 419 730 419 c 0
 725 419 715 422 715 434 c 0
 715 443 719 456 719 490 c 0
 719 583 679 674 577 674 c 0
 476 674 380 598 325 510 c 0
 271 423 237 289 237 206 c 0
 237 57 333 9 407 9 c 0
 509 9 618 94 661 223 c 0
 664 232 665 244 674 249 c 0
 682 253 696 250 696 239 c 0
 696 192 588 -22 394 -22 c 0
 247 -22 149 92 149 245 c 0
EndSplineSet
EndChar

StartChar: D
Encoding: 68 68 77
Width: 755
Flags: HW
TeX: 688 0
ItalicCorrection: 94
HStem: 0 31<63.1642 159.344 244.006 453.968> 652 31<226.094 308.692 393.112 602.038>
VStem: 691 83<336.444 554.668>
DStem2: 151.993 0 230.996 0 0.242599 0.970127<64.2652 651.905>
AnchorPoint: "below" 345 0 basechar 0
AnchorPoint: "above" 521 705 basechar 0
LayerCount: 2
Fore
SplineSet
63 13 m 0
 63 38 88 27 131 33 c 0
 166 38 166 56 176 96 c 2
 304 609 l 2
 307 619 309 627 309 633 c 0
 309 648 298 651 254 652 c 0
 246 652 235 651 230 656 c 0
 227 658 226 662 226 666 c 0
 226 674 233 683 249 683 c 2
 562 683 l 2
 700 683 774 574 774 438 c 0
 774 226 602 19 420 1 c 0
 406 0 393 0 379 0 c 2
 85 0 l 2
 75 0 63 1 63 13 c 0
244 43 m 0
 244 32 252 31 283 31 c 2
 372 31 l 2
 398 31 493 33 574 127 c 0
 663 230 691 423 691 478 c 0
 691 559 657 652 524 652 c 2
 438 652 l 2
 397 652 394 650 382 602 c 2
 247 64 l 2
 245 55 244 48 244 43 c 0
EndSplineSet
EndChar

StartChar: E
Encoding: 69 69 78
Width: 678
Flags: HW
TeX: 688 0
ItalicCorrection: 120
HStem: -0 31<62.0844 150.435 245.009 505.519> 338 31<325 471.759> 650 30<228.188 306.489 394.215 653.875>
VStem: 526 33<421.052 483.752> 688 54<489.855 626.071>
DStem2: 150.994 -0 232.476 -0 0.242599 0.970127<125.467 368.176 400.19 649.677>
AnchorPoint: "ogonek" 342 0 basechar 0
AnchorPoint: "below" 342 0 basechar 0
AnchorPoint: "above" 518 705 basechar 0
LayerCount: 2
Fore
SplineSet
62 14 m 0
 62 31 78 32 98 32 c 2
 107 32 l 2
 123 32 139 32 151 40 c 0
 165 50 168 69 172 84 c 2
 302 602 l 2
 305 615 307 624 307 631 c 0
 307 648 287 649 267 649 c 2
 254 649 l 2
 243 649 233 649 228 653 c 0
 222 658 224 668 228 674 c 0
 232 679 237 680 243 680 c 2
 723 680 l 2
 735 680 742 676 742 664 c 0
 742 655 718 473 718 473 c 2
 716 459 709 456 703 456 c 0
 696 456 688 458 688 472 c 0
 688 486 694 510 694 548 c 0
 694 644 638 650 541 650 c 2
 441 650 l 2
 403 650 395 649 385 609 c 2
 325 369 l 1
 403 369 l 2
 475 369 504 379 526 460 c 0
 528 470 531 484 545 484 c 0
 556 484 559 478 559 470 c 0
 559 463 557 455 556 452 c 0
 498 221 503 227 491 223 c 0
 482 220 472 224 472 235 c 0
 472 248 481 271 481 295 c 0
 481 335 448 338 396 338 c 2
 317 338 l 1
 258 101 245 56 245 43 c 0
 245 32 258 31 269 31 c 2
 381 31 l 2
 542 31 581 66 652 236 c 0
 657 247 659 257 673 257 c 0
 680 257 686 254 686 245 c 0
 686 236 685 238 595 18 c 0
 586 -3 580 1 558 -0 c 1
 88 -0 l 2
 75 0 62 1 62 14 c 0
EndSplineSet
EndChar

StartChar: F
Encoding: 70 70 79
Width: 653
Flags: HW
TeX: 688 0
ItalicCorrection: 133
HStem: 1 31<62.196 157.758 248.729 353.974> 325 31<322 462.498> 650 30<224.135 306.342 393.93 641.375>
VStem: 518 33<408.692 470.77> 675 54<490.763 626.281>
DStem2: 151.243 0 232.727 0 0.242599 0.970127<111.336 354.776 386.791 648.367>
AnchorPoint: "below" 322 0 basechar 0
AnchorPoint: "above" 498 705 basechar 0
LayerCount: 2
Fore
SplineSet
62 14 m 0
 62 31 79 32 100 32 c 2
 105 32 l 2
 121 32 138 32 150 40 c 0
 167 50 172 82 176 99 c 2
 290 556 l 2
 300 595 307 617 307 630 c 0
 307 647 288 649 268 649 c 2
 254 649 l 2
 235 649 224 652 224 663 c 0
 224 671 229 679 243 680 c 1
 710 680 l 2
 722 680 729 676 729 664 c 0
 729 655 705 474 705 474 c 2
 703 460 696 456 690 456 c 0
 682 456 675 459 675 472 c 0
 675 486 681 510 681 549 c 0
 681 644 625 650 532 650 c 2
 444 650 l 2
 388 650 395 647 375 567 c 0
 333 398 328 377 322 356 c 1
 396 356 l 2
 468 356 496 365 518 448 c 0
 520 458 524 471 537 471 c 0
 548 471 551 465 551 458 c 0
 551 452 549 444 548 439 c 0
 492 213 494 214 483 210 c 0
 475 207 462 211 463 224 c 0
 464 236 472 259 472 283 c 0
 472 322 438 325 390 325 c 2
 314 325 l 1
 297 247 248 72 248 53 c 0
 248 36 262 31 327 31 c 2
 332 31 l 2
 345 31 354 29 354 17 c 0
 354 9 347 0 333 0 c 0
 319 0 279 3 196 3 c 0
 104 3 102 1 80 1 c 0
 66 1 62 6 62 14 c 0
EndSplineSet
EndChar

StartChar: G
Encoding: 71 71 80
Width: 773
Flags: HW
TeX: 688 0
ItalicCorrection: 87
HStem: -22 31<341.604 486.919> 241 31<508.19 608.083> 674 31<500.272 640.348>
VStem: 149 88<130.033 344.884> 719 91<463.189 696.5>
AnchorPoint: "below" 401 0 basechar 0
AnchorPoint: "above" 568 705 basechar 0
LayerCount: 2
Fore
SplineSet
149 244 m 0
 149 483 367 705 569 705 c 0
 652 705 696 661 719 620 c 1
 791 702 790 704 800 704 c 0
 804 704 810 701 810 692 c 0
 810 687 810 688 748 440 c 0
 744 424 737 419 730 419 c 0
 725 419 715 423 715 434 c 0
 715 442 719 454 719 492 c 0
 719 583 680 674 577 674 c 0
 507 674 398 631 323 508 c 0
 260 405 237 267 237 207 c 0
 237 58 335 9 412 9 c 0
 484 9 555 48 581 106 c 0
 589 125 609 208 609 219 c 0
 609 234 601 241 544 241 c 2
 533 241 l 2
 520 241 506 242 506 253 c 0
 506 256 506 259 508 263 c 0
 512 271 519 272 528 272 c 0
 541 272 579 269 656 269 c 0
 711 269 738 271 747 271 c 0
 761 271 765 265 765 259 c 0
 765 228 718 253 699 228 c 0
 688 213 672 128 643 19 c 0
 640 9 636 2 630 2 c 0
 617 2 598 37 589 61 c 1
 541 3 463 -22 395 -22 c 0
 248 -22 149 91 149 244 c 0
EndSplineSet
EndChar

StartChar: H
Encoding: 72 72 81
Width: 743
Flags: HW
TeX: 688 0
ItalicCorrection: 163
HStem: 0 31<62.1511 158.337 247.427 327.81 419.06 515.176 605.334 687.904> 340 30<326 593> 651 32<225.103 307.877 585.19 664.889 753.865 850.793>
DStem2: 151.492 0 233.495 0 0.242599 0.970127<71.9043 370.238 401.282 645.786> 508.494 0 590.245 0 0.242599 0.970127<72.2388 350.344 381.389 623.477>
AnchorPoint: "below" 370 0 basechar 0
AnchorPoint: "above" 547 705 basechar 0
LayerCount: 2
Fore
SplineSet
62 13 m 0
 62 37 85 28 126 33 c 0
 164 37 163 47 181 118 c 2
 302 604 l 2
 305 617 308 626 308 633 c 0
 308 650 289 651 269 651 c 2
 259 651 l 2
 242 651 227 653 225 664 c 1
 224 677 232 683 245 683 c 0
 257 683 291 680 360 680 c 0
 439 680 462 683 474 683 c 0
 488 683 493 676 493 669 c 0
 493 665 492 662 490 659 c 0
 478 644 422 661 400 639 c 0
 388 628 392 632 326 370 c 1
 601 370 l 1
 601 370 665 623 665 633 c 0
 665 650 648 652 629 652 c 0
 623 652 617 651 611 651 c 0
 601 651 592 652 587 656 c 0
 581 661 581 669 585 675 c 0
 589 681 596 683 603 683 c 0
 615 683 649 680 719 680 c 0
 797 680 820 683 832 683 c 0
 843 683 851 681 851 670 c 0
 851 652 833 651 812 651 c 2
 807 651 l 2
 747 651 750 638 732 565 c 2
 610 79 l 2
 607 66 605 57 605 50 c 0
 605 29 634 32 670 31 c 0
 682 31 688 25 688 17 c 0
 688 1 673 0 668 0 c 2
 666 0 l 2
 654 0 620 3 551 3 c 0
 472 3 450 0 438 0 c 0
 424 0 419 7 419 14 c 0
 419 33 438 31 449 31 c 0
 519 33 519 41 531 90 c 2
 593 340 l 1
 318 340 l 1
 250 66 l 2
 249 60 247 55 247 50 c 0
 247 32 271 31 293 31 c 2
 298 31 l 2
 310 31 321 32 326 28 c 0
 332 23 332 14 328 8 c 0
 324 2 317 0 310 0 c 0
 298 0 263 3 192 3 c 0
 114 3 93 0 81 0 c 0
 70 0 62 3 62 13 c 0
EndSplineSet
EndChar

StartChar: I
Encoding: 73 73 82
Width: 385
Flags: HW
TeX: 688 0
ItalicCorrection: 158
HStem: 0 33<57.4446 160.711 248.008 335.907> 656 27<220.509 305.531 405.554 497.981>
DStem2: 151.993 0 233.243 0 0.242599 0.970127<72.3029 651.432>
AnchorPoint: "ogonek" 192 0 basechar 0
AnchorPoint: "below" 192 0 basechar 0
AnchorPoint: "above" 369 705 basechar 0
LayerCount: 2
Fore
SplineSet
57 13 m 0
 58 37 81 29 123 33 c 0
 168 38 166 56 176 96 c 2
 296 577 l 2
 303 605 308 622 308 633 c 0
 308 649 297 651 249 652 c 0
 241 652 230 651 225 656 c 0
 222 658 220 662 220 666 c 0
 220 674 227 683 240 683 c 0
 244 683 249 682 253 682 c 0
 297 680 341 680 363 680 c 0
 433 680 467 683 479 683 c 0
 489 683 498 680 498 669 c 0
 498 645 472 654 433 650 c 0
 387 645 390 626 380 587 c 2
 260 107 l 2
 253 78 248 61 248 50 c 0
 248 34 259 32 307 31 c 0
 315 31 326 32 331 27 c 0
 334 24 336 21 336 18 c 0
 336 10 328 0 316 0 c 0
 312 0 308 1 303 1 c 0
 271 2 238 3 196 3 c 0
 124 3 89 0 77 0 c 0
 67 0 57 2 57 13 c 0
EndSplineSet
EndChar

StartChar: J
Encoding: 74 74 83
Width: 525
Flags: HW
TeX: 688 0
ItalicCorrection: 140
HStem: -22 23<165.581 247.82> 66 96<125.672 181.236> 652 31<349.065 458.002>
VStem: 93 102<79.9713 145.372>
DStem2: 297.239 -22 376.987 -22 0.242599 0.970127<98.4798 671.537>
AnchorPoint: "below" 260 0 basechar 0
AnchorPoint: "above" 519 705 basechar 0
LayerCount: 2
Fore
SplineSet
93 86 m 0
 93 144 130 162 155 162 c 0
 179 162 195 147 195 124 c 0
 195 102 178 66 133 66 c 2
 125 66 l 1
 139 17 177 1 209 1 c 0
 260 1 314 61 336 133 c 0
 341 148 344 164 348 179 c 2
 456 610 l 2
 458 619 459 625 459 630 c 0
 459 648 444 652 375 652 c 2
 370 652 l 2
 359 652 349 653 349 666 c 0
 349 675 354 683 369 683 c 0
 382 683 423 680 504 680 c 0
 562 680 591 682 602 682 c 2
 603 682 l 2
 612 682 619 679 619 669 c 0
 619 640 570 661 549 641 c 0
 541 633 538 621 535 611 c 2
 424 166 l 2
 421 155 405 40 282 -8 c 0
 260 -17 235 -22 211 -22 c 0
 143 -22 93 21 93 86 c 0
EndSplineSet
EndChar

StartChar: K
Encoding: 75 75 84
Width: 769
Flags: HW
TeX: 688 0
ItalicCorrection: 145
HStem: 0 31<247.264 329.926 644.404 706.935> 1 41<477.504 543.988> 652 31<225.094 307.625 396.765 489.766 784.95 856.94>
VStem: 544 163<10 66>
DStem2: 151.242 0 233.484 0 0.242599 0.970127<71.4693 305.203 321.791 651.799> 499 417 434 363 0.352849 -0.93568<27.5915 346.845>
AnchorPoint: "below" 381 0 basechar 0
AnchorPoint: "above" 557 705 basechar 0
LayerCount: 2
Fore
SplineSet
62 13 m 0
 62 45 122 21 151 40 c 0
 166 50 170 75 180 115 c 2
 302 603 l 2
 305 616 308 626 308 633 c 0
 308 650 287 652 266 652 c 2
 255 652 l 2
 245 652 236 652 231 655 c 0
 227 657 225 662 225 666 c 0
 225 674 232 683 245 683 c 0
 257 683 291 680 361 680 c 0
 439 680 462 683 474 683 c 0
 487 683 494 677 494 669 c 0
 494 666 492 662 490 659 c 0
 485 653 481 652 470 652 c 2
 463 652 l 2
 397 652 392 638 385 608 c 2
 306 293 l 1
 633 564 l 2
 645 574 692 607 692 631 c 0
 692 658 654 643 654 667 c 0
 654 675 660 683 674 683 c 0
 685 683 717 680 781 680 c 0
 807 680 825 682 837 682 c 0
 852 682 857 679 857 669 c 0
 857 650 839 654 819 649 c 0
 752 633 700 583 499 417 c 1
 611 120 l 2
 639 46 641 34 683 31 c 0
 692 30 707 31 707 17 c 0
 707 3 697 0 687 0 c 0xb0
 669 0 670 3 600 3 c 0
 536 3 505 1 494 1 c 0
 480 1 476 7 476 13 c 0
 476 42 510 22 533 42 c 0x70
 540 48 544 55 544 63 c 0
 544 69 542 75 539 83 c 2
 434 363 l 1
 287 241 297 254 291 230 c 0
 259 104 247 64 247 49 c 0
 247 35 261 32 305 31 c 0xb0
 319 31 330 31 330 17 c 0
 330 9 324 0 310 0 c 0
 298 0 264 3 193 3 c 0
 111 3 91 0 80 0 c 0
 70 0 62 3 62 13 c 0
EndSplineSet
EndChar

StartChar: L
Encoding: 76 76 85
Width: 627
Flags: HW
TeX: 688 0
HStem: -0 31<61.1619 158.051 246.004 442.416> 652 31<224.094 306.608 399.066 515.839>
VStem: 598 24<230.113 256.855>
DStem2: 150.744 -0 232.994 -0 0.242599 0.970127<66.1619 650.477>
AnchorPoint: "below" 309 0 basechar 0
AnchorPoint: "above" 486 705 basechar 0
LayerCount: 2
Fore
SplineSet
61 13 m 0
 61 29 75 31 85 31 c 2
 90 31 l 1
 167 32 162 44 174 93 c 2
 293 570 l 2
 301 602 307 620 307 632 c 0
 307 648 297 651 252 652 c 0
 244 652 233 651 228 656 c 0
 225 658 224 662 224 666 c 0
 224 674 231 683 244 683 c 0
 256 683 268 680 365 680 c 0
 484 681 484 683 497 683 c 0
 507 683 516 681 516 670 c 0
 516 653 502 652 492 652 c 2
 481 652 l 1
 406 651 394 646 383 603 c 2
 254 84 l 2
 249 64 246 52 246 44 c 0
 246 32 252 31 272 31 c 2
 345 31 l 2
 400 31 447 39 492 74 c 0
 563 129 584 241 598 253 c 0
 601 255 604 257 608 257 c 0
 615 257 622 253 622 244 c 0
 622 235 622 242 543 20 c 0
 537 5 534 1 519 -0 c 1
 82 -0 l 2
 70 0 61 2 61 13 c 0
EndSplineSet
EndChar

StartChar: M
Encoding: 77 77 86
Width: 896
Flags: HW
TeX: 688 0
ItalicCorrection: 163
HStem: 0 26<758.323 836.019> 1 34<65.4807 151.425> 652 31<902.843 999.916>
VStem: 65 145<9 80>
DStem2: 155.74 0 189.243 0 0.242599 0.970127<85.4985 650.708> 416 652 348 634 0.100482 -0.994939<11.0761 554.833> 472 100 456 25 0.514496 0.857493<0 643.613> 665.993 0 739.495 0 0.242599 0.970127<69.8881 659.699>
AnchorPoint: "below" 447 0 basechar 0
AnchorPoint: "above" 623 705 basechar 0
LayerCount: 2
Fore
SplineSet
65 14 m 0
 65 36 92 29 117 35 c 0
 175 49 180 95 191 141 c 2
 307 607 l 2
 309 616 312 625 312 632 c 0
 312 666 238 641 230 660 c 0
 229 662 229 664 229 666 c 0
 229 674 235 683 252 683 c 2
 390 683 l 2
 413 683 414 676 416 652 c 2
 466 155 l 2
 468 136 469 118 472 100 c 1
 480 115 489 129 498 143 c 2
 798 642 l 2
 820 679 822 683 843 683 c 2
 972 683 l 2
 985 683 1000 683 1000 669 c 0x70
 1000 653 987 652 974 652 c 2
 970 652 l 1
 903 651 899 643 889 600 c 2
 758 74 l 2
 755 63 753 56 753 50 c 0
 753 21 820 38 833 26 c 0
 835 24 837 21 837 18 c 0
 837 10 829 0 816 0 c 0xb0
 805 0 771 3 703 3 c 0
 626 3 606 1 595 1 c 0
 581 1 576 7 576 14 c 0
 576 18 577 21 579 23 c 0
 591 41 650 21 672 46 c 0
 679 54 681 61 691 100 c 2
 798 527 l 1
 826 640 l 1
 825 640 l 1
 812 617 798 595 785 573 c 2
 456 25 l 2
 449 14 440 1 427 1 c 0
 411 1 410 16 409 30 c 2
 348 634 l 1
 344 617 339 600 335 583 c 2
 216 107 l 2
 214 97 210 86 210 74 c 0
 210 18 280 42 286 22 c 0
 287 20 287 18 287 16 c 0
 287 9 282 1 264 1 c 0
 249 1 223 3 173 3 c 0
 112 3 103 1 85 1 c 2
 82 1 l 2
 74 1 65 4 65 14 c 0
EndSplineSet
EndChar

StartChar: N
Encoding: 78 78 87
Width: 743
Flags: HW
TeX: 688 0
ItalicCorrection: 163
HStem: 1 31<62.1436 140.93> 652 31<227.19 313 773.954 850.925>
VStem: 62 144<8.5 78.5> 706 145<605 674>
DStem2: 150.989 0 185.493 0 0.242599 0.970127<84.6663 642.239> 409 653 340 615 0.339839 -0.940484<12.2895 539.356> 556.49 0 589.998 0 0.242599 0.970127<150.496 627.593>
AnchorPoint: "below" 370 0 basechar 0
AnchorPoint: "above" 547 705 basechar 0
LayerCount: 2
Fore
SplineSet
62 14 m 0
 62 33 82 31 93 32 c 0
 171 40 174 94 190 156 c 2
 313 647 l 1
 292 651 272 652 248 652 c 0
 230 652 224 658 224 665 c 0
 224 668 225 672 227 675 c 0
 231 682 239 683 246 683 c 2
 378 683 l 2
 400 683 400 677 409 653 c 2
 593 146 l 1
 701 581 l 2
 703 590 706 600 706 610 c 0
 706 666 637 642 630 661 c 1
 630 666 l 2
 630 673 634 683 651 683 c 0
 665 683 690 680 743 680 c 0
 784 680 811 682 827 682 c 0
 845 682 851 679 851 669 c 0
 851 647 825 653 804 649 c 0
 749 637 739 596 732 567 c 2
 596 24 l 2
 593 12 591 0 576 0 c 0
 563 0 559 8 555 20 c 2
 340 615 l 1
 339 615 l 1
 212 106 l 2
 209 96 206 84 206 73 c 0
 206 13 283 45 283 17 c 0
 283 10 279 0 263 0 c 0
 253 0 224 3 165 3 c 0
 114 3 89 1 80 1 c 0
 70 1 62 4 62 14 c 0
EndSplineSet
EndChar

StartChar: O
Encoding: 79 79 88
Width: 766
Flags: HW
TeX: 688 0
ItalicCorrection: 94
HStem: -22 27<327.463 445.189> 680 25<490.161 608.349>
VStem: 147 91<121.13 356.535> 701 86<342.563 561.772>
AnchorPoint: "ogonek" 383 0 basechar 0
AnchorPoint: "below" 383 0 basechar 0
AnchorPoint: "above" 558 705 basechar 0
LayerCount: 2
Fore
SplineSet
147 237 m 0
 147 472 356 705 558 705 c 0
 694 705 787 598 787 444 c 0
 787 204 577 -22 377 -22 c 0
 239 -22 147 86 147 237 c 0
238 203 m 0
 238 82 296 5 384 5 c 0
 455 5 518 54 556 96 c 0
 660 210 701 397 701 488 c 0
 701 603 642 680 552 680 c 0
 478 680 411 628 375 588 c 0
 273 477 238 297 238 203 c 0
EndSplineSet
EndChar

StartChar: P
Encoding: 80 80 89
Width: 678
Flags: HW
TeX: 688 0
ItalicCorrection: 102
HStem: 0 32<248.123 330.956> 315 27<317 517.567> 652 31<226.071 308.51 392.819 592.814>
VStem: 640 89<457.794 611.419>
DStem2: 152.494 0 233.995 0 0.242599 0.970127<71.9042 344.528 371.692 650.768>
AnchorPoint: "below" 306 0 basechar 0
AnchorPoint: "above" 482 705 basechar 0
LayerCount: 2
Fore
SplineSet
63 14 m 0
 63 49 134 16 159 46 c 0
 167 56 170 70 173 82 c 2
 303 603 l 2
 306 616 309 625 309 632 c 0
 309 648 296 651 252 652 c 1
 246 652 l 2
 237 652 226 653 226 666 c 0
 226 683 240 683 249 683 c 2
 542 683 l 2
 691 683 729 595 729 536 c 0
 729 432 617 315 455 315 c 2
 313 315 l 1
 251 68 l 2
 249 61 248 55 248 50 c 0
 248 33 267 32 287 32 c 2
 298 32 l 2
 316 32 331 31 331 17 c 0
 331 9 325 0 311 0 c 0
 299 0 264 3 193 3 c 0
 128 3 94 1 81 1 c 0
 71 1 63 4 63 14 c 0
317 342 m 1
 434 342 l 2
 464 342 555 344 601 420 c 0
 624 458 640 527 640 563 c 0
 640 589 632 612 609 629 c 0
 580 651 543 652 508 652 c 2
 440 652 l 2
 398 652 394 648 385 613 c 2
 317 342 l 1
EndSplineSet
EndChar

StartChar: Q
Encoding: 81 81 90
Width: 766
Flags: HW
TeX: 688 194
ItalicCorrection: 94
HStem: -194 94<518.638 598.815> -22 25<351.693 445.459> 125 23<383.152 453.722> 680 25<490.896 608.287>
VStem: 147 86<120.421 346.343> 321 22<16.2106 81.9771> 667 25<-36.0424 7.69565> 701 86<332.411 561.648>
AnchorPoint: "below" 333 -194 basechar 0
AnchorPoint: "above" 558 705 basechar 0
LayerCount: 2
Fore
SplineSet
147 237 m 0
 147 468 354 705 558 705 c 0
 695 705 787 596 787 444 c 0
 787 280 682 88 500 5 c 1
 503 -46 508 -100 561 -100 c 0
 603 -100 648 -63 667 -14 c 0
 670 -6 673 5 680 8 c 0
 686 10 692 6 692 -0 c 0
 692 -22 646 -194 536 -194 c 0
 489 -194 458 -169 458 -102 c 0
 458 -69 463 -38 467 -7 c 1
 441 -15 413 -22 377 -22 c 0
 239 -22 147 86 147 237 c 0
233 202 m 0
 233 109 266 43 325 16 c 1
 322 25 321 33 321 43 c 0
 321 90 362 148 418 148 c 0
 483 148 495 85 498 42 c 1
 637 129 701 351 701 480 c 0
 701 602 641 680 552 680 c 0
 446 680 317 573 258 361 c 0
 250 330 233 266 233 202 c 0
343 44 m 0
 343 24 351 3 384 3 c 0
 405 3 435 9 471 26 c 1
 472 36 473 45 473 55 c 0
 473 94 462 125 419 125 c 0
 373 125 343 77 343 44 c 0
EndSplineSet
EndChar

StartChar: R
Encoding: 82 82 91
Width: 729
Flags: HW
TeX: 688 0
ItalicCorrection: 38
HStem: -22 23<590.164 643.003> 0 31<246.486 327.852> 1 37<63.9521 165.073> 330 23<320 472.913> 652 31<226.065 308.736 392.207 579.906>
VStem: 484 96<18.7307 189.551> 515 78<141.028 290.257> 627 90<462.15 605.425> 687 35<44.7264 103.621>
DStem2: 146.493 -22 225.975 -22 0.242599 0.970127<139.287 382.122 405.89 674.536>
AnchorPoint: "below" 306 0 basechar 0
AnchorPoint: "above" 482 705 basechar 0
LayerCount: 2
Fore
SplineSet
63 14 m 0
 63 44 117 23 148 38 c 0
 166 46 169 67 173 84 c 2
 303 604 l 2
 306 616 309 626 309 633 c 0
 309 650 295 651 251 652 c 1
 246 652 l 2
 236 652 226 653 226 666 c 0
 226 680 236 683 249 683 c 2
 503 683 l 2
 673 683 717 594 717 535 c 0
 717 456 647 375 508 339 c 1
 569 313 593 268 593 221 c 0x3b
 593 197 580 101 580 61 c 0
 580 29 584 1 613 1 c 0
 628 1 664 12 687 79 c 0
 690 89 693 104 708 104 c 0
 714 104 722 101 722 91 c 0
 722 78 690 -22 608 -22 c 0
 559 -22 484 -1 484 84 c 0x9c80
 484 129 515 204 515 243 c 0x9a
 515 281 497 330 421 330 c 2
 314 330 l 1
 314 330 246 62 246 51 c 0
 246 33 265 31 285 31 c 2
 296 31 l 2
 312 31 325 30 328 21 c 0
 328 20 329 19 329 17 c 0
 329 10 324 0 307 0 c 0x5a
 293 0 266 3 191 3 c 0
 125 3 92 1 81 1 c 0
 71 1 63 4 63 14 c 0
320 353 m 1
 410 353 l 2
 578 353 606 451 619 507 c 0
 623 524 627 542 627 559 c 0
 627 642 551 652 487 652 c 0x19
 471 652 455 652 439 652 c 0
 395 652 393 645 385 615 c 0
 333 406 326 379 320 353 c 1
EndSplineSet
EndChar

StartChar: S
Encoding: 83 83 92
Width: 562
Flags: HW
TeX: 688 0
ItalicCorrection: 119
HStem: -22 31<226.065 362.873> 677 28<371.038 489.276>
VStem: 74 78<-13.5 181.715> 199 67<442.014 560.536> 470 67<139.361 268.237> 546 32<456.058 533.28> 551 80<503.237 696.5>
AnchorPoint: "below" 305 0 basechar 0
AnchorPoint: "above" 431 705 basechar 0
LayerCount: 2
Fore
SplineSet
74 -9 m 0
 74 1 128 208 128 208 c 2
 132 223 139 227 145 227 c 0
 149 227 159 225 159 215 c 0
 159 203 152 180 152 149 c 0
 152 37 239 9 302 9 c 0
 392 9 470 108 470 200 c 0
 470 250 446 278 423 290 c 0
 403 301 304 324 276 337 c 0
 246 351 199 389 199 467 c 0
 199 588 311 705 431 705 c 0
 508 705 543 666 560 637 c 1
 598 684 611 704 621 704 c 0
 625 704 631 701 631 692 c 0xfa
 631 688 631 688 578 475 c 0
 574 460 567 456 561 456 c 0xfc
 555 456 546 459 546 471 c 0xfc
 546 481 551 498 551 535 c 0
 551 661 473 677 429 677 c 0
 345 677 266 590 266 506 c 0
 266 371 436 426 505 339 c 0
 528 310 537 274 537 238 c 0
 537 113 428 -22 299 -22 c 0
 204 -22 165 23 147 47 c 1
 105 -6 94 -21 84 -21 c 0
 80 -21 74 -18 74 -9 c 0
EndSplineSet
EndChar

StartChar: T
Encoding: 84 84 93
Width: 715
Flags: HW
TeX: 688 0
ItalicCorrection: 133
HStem: 0 31<187.313 319.822 414.491 533.922> 647 30<311.179 472.993 558.564 725.968>
VStem: 753 51<528.161 669>
DStem2: 316.245 0 398.245 0 0.242599 0.970127<76.0872 652.812>
AnchorPoint: "below" 357 0 basechar 0
AnchorPoint: "above" 533 705 basechar 0
LayerCount: 2
Fore
SplineSet
176 466 m 0
 176 476 240 661 240 661 c 2
 245 675 251 677 265 677 c 2
 782 677 l 2
 796 677 804 676 804 662 c 0
 804 655 783 536 773 473 c 0
 772 467 772 461 767 457 c 0
 765 455 760 453 755 453 c 0
 749 453 742 457 742 469 c 0
 742 488 753 524 753 570 c 0
 753 613 746 647 647 647 c 0
 632 647 617 647 602 647 c 0
 560 647 559 645 546 591 c 2
 416 71 l 2
 414 64 413 59 413 54 c 0
 413 34 432 32 496 31 c 1
 512 31 l 2
 522 31 534 30 534 17 c 0
 534 13 533 0 514 0 c 0
 499 0 452 3 360 3 c 0
 271 3 225 0 207 0 c 0
 195 0 187 3 187 13 c 0
 188 29 200 31 211 31 c 0
 216 31 221 31 226 31 c 0
 311 32 325 36 336 79 c 2
 464 590 l 2
 471 616 473 628 473 634 c 0
 473 646 464 647 432 647 c 2
 397 647 l 2
 267 647 250 588 212 481 c 0
 207 467 204 453 189 453 c 0
 182 453 176 457 176 466 c 0
EndSplineSet
EndChar

StartChar: U
Encoding: 85 85 94
Width: 743
Flags: HW
TeX: 688 0
ItalicCorrection: 163
HStem: -22 31<328.829 452.83> 639 43<752.474 849.01> 652 31<225.078 307.51 636.189 698.498>
VStem: 201 75<70.8501 253.977> 709 142<604 674>
DStem2: 145.481 -22 227.983 -22 0.242599 0.970127<196.379 673.707> 553.73 -22 585.23 -22 0.242599 0.970127<163.129 649.363>
AnchorPoint: "ogonek" 386 0 basechar 0
AnchorPoint: "below" 386 0 basechar 0
AnchorPoint: "above" 547 705 basechar 0
LayerCount: 2
Fore
SplineSet
201 165 m 0
 201 198 207 224 213 248 c 2
 306 617 l 2
 307 623 308 628 308 632 c 0
 308 649 295 651 251 652 c 1
 247 652 l 2
 237 652 225 653 225 666 c 0
 225 673 229 683 246 683 c 0
 257 683 291 680 360 680 c 0
 442 680 463 683 475 683 c 0
 489 683 494 676 494 669 c 0
 494 639 431 662 404 643 c 0
 392 635 388 619 384 604 c 2
 288 218 l 2
 284 201 276 167 276 133 c 0
 276 37 338 9 384 9 c 0
 472 9 564 86 604 191 c 0
 613 214 619 239 625 263 c 2
 704 580 l 2
 706 589 709 599 709 609 c 0
 709 659 650 647 638 655 c 0
 631 660 632 672 636 677 c 0
 640 682 646 683 652 683 c 0xb8
 661 683 689 680 745 680 c 0
 801 680 823 682 834 682 c 0xd8
 844 682 851 679 851 669 c 0
 851 642 816 660 777 639 c 0xd8
 743 620 737 588 731 562 c 2
 658 269 l 2
 642 207 628 134 554 60 c 0
 512 18 450 -22 380 -22 c 0
 279 -22 201 52 201 165 c 0
EndSplineSet
EndChar

StartChar: V
Encoding: 86 86 95
Width: 743
Flags: HW
TeX: 688 0
ItalicCorrection: 183
HStem: -22 21G<356 375.5> 650 33<210.018 282.931 374.313 454.538>
VStem: 210 159<612.5 671.5> 724 141<614.5 673>
DStem2: 371 590 286 617 0.0980475 -0.995182<-26.6461 495.429> 420 97 399 7 0.513368 0.858168<0 603.663>
AnchorPoint: "below" 372 0 basechar 0
AnchorPoint: "above" 547 705 basechar 0
LayerCount: 2
Fore
SplineSet
210 666 m 0
 210 677 218 683 230 683 c 0
 240 683 268 680 326 680 c 0
 392 680 426 683 437 683 c 0
 451 683 455 676 455 670 c 0
 455 664 451 657 447 655 c 0
 436 649 369 658 369 617 c 0
 369 608 370 599 371 590 c 2
 416 137 l 2
 417 124 418 110 420 97 c 1
 703 570 l 2
 720 599 724 610 724 619 c 0
 724 662 670 642 670 666 c 0
 670 675 676 683 690 683 c 0
 699 683 725 680 777 680 c 0
 820 680 842 682 849 682 c 0
 861 682 865 677 865 669 c 0
 865 628 808 691 734 567 c 2
 399 7 l 2
 393 -2 385 -22 366 -22 c 0
 346 -22 347 -2 346 8 c 2
 286 617 l 2
 285 627 285 645 261 650 c 0
 234 655 210 648 210 666 c 0
EndSplineSet
EndChar

StartChar: W
Encoding: 87 87 96
Width: 999
Flags: HW
TeX: 688 0
ItalicCorrection: 183
HStem: -22 21G<314.5 332 655 673.5> 645 37<701.195 788.041> 652 31<209.078 274.832 553.189 613.936 921.094 978.101 1059.21 1121.93>
VStem: 279 80<453.667 644.423> 305 75<116.609 161.308> 620 80<460.875 499 515.422 644.763> 629 87<216.353 394.312> 646 76<116 152.647> 987 135<606 674>
DStem2: 382 116 353 3 0.478108 0.878301<0 451.613> 722 116 696 9 0.478611 0.878027<0 565.008>
AnchorPoint: "below" 498 0 basechar 0
AnchorPoint: "above" 674 705 basechar 0
LayerCount: 2
Fore
SplineSet
209 666 m 0
 209 677 217 683 229 683 c 0xb080
 248 683 257 680 323 680 c 0
 384 680 414 682 430 682 c 0
 446 682 447 680 448 673 c 0
 448 671 449 670 449 668 c 0
 449 634 356 676 359 603 c 2xd080
 380 155 l 2
 381 142 381 129 382 116 c 1
 389 130 397 144 405 158 c 2
 609 533 l 2
 617 548 620 553 620 567 c 0
 620 577 618 592 617 619 c 0
 615 648 608 651 574 652 c 0
 567 652 559 652 554 655 c 0
 547 660 548 672 553 677 c 0
 557 682 563 683 569 683 c 0xac80
 578 683 606 680 662 680 c 0
 727 680 760 682 771 682 c 0
 785 682 789 676 789 670 c 0
 789 643 753 658 721 645 c 0
 709 640 699 631 699 614 c 0
 699 607 700 601 700 594 c 2xcc80
 716 239 l 2xc280
 718 198 721 157 722 116 c 1
 728 129 735 141 742 153 c 2
 958 548 l 2
 967 564 987 596 987 616 c 0
 987 623 984 645 944 651 c 0
 934 652 921 653 921 666 c 0
 921 673 926 683 942 683 c 0
 951 683 979 680 1035 680 c 0xa180
 1066 680 1087 682 1100 682 c 0
 1116 682 1122 679 1122 669 c 0
 1122 650 1101 651 1093 650 c 0
 1038 640 1017 597 974 519 c 2
 696 9 l 2
 690 -1 683 -22 664 -22 c 0
 646 -22 647 -7 646 4 c 2xc180
 629 365 l 2
 627 410 624 454 623 499 c 1
 614 481 604 464 595 447 c 2
 353 3 l 2
 347 -7 341 -22 323 -22 c 0
 306 -22 306 -8 305 3 c 2xca80
 279 591 l 2
 277 641 282 650 233 652 c 0
 221 652 209 652 209 666 c 0
EndSplineSet
EndChar

StartChar: X
Encoding: 88 88 97
Width: 743
Flags: HW
TeX: 688 0
ItalicCorrection: 158
HStem: 1 44<452.496 519.998> 652 31<227.078 306.354 414.516 476.398 605.073 647.187>
VStem: 52 173<8 69.5> 651 172<613.5 675>
DStem2: 481 413 419 341 0.347494 -0.937682<-200.938 0 21.4863 56.7541 76.9837 325.244> 419 341 430 312 0.66545 0.746442<-337.498 -14.3269 95.0018 275.71>
AnchorPoint: "below" 372 0 basechar 0
AnchorPoint: "above" 548 705 basechar 0
LayerCount: 2
Fore
SplineSet
52 13 m 0
 52 47 101 10 177 72 c 0
 220 107 372 291 419 341 c 1
 294 659 331 650 251 652 c 0
 239 652 227 652 227 666 c 0
 227 674 233 683 247 683 c 0
 257 683 286 680 344 680 c 0
 405 680 436 682 453 682 c 0
 471 682 477 677 477 671 c 0
 477 663 468 654 465 653 c 0
 460 651 406 647 406 621 c 0
 406 610 459 480 481 413 c 1
 496 429 510 446 626 578 c 0
 635 589 651 605 651 622 c 0
 651 652 616 649 608 657 c 0
 606 659 605 663 605 666 c 0
 605 674 611 683 625 683 c 0
 635 683 663 680 721 680 c 0
 760 680 784 682 800 682 c 0
 818 682 823 680 823 670 c 0
 823 638 776 668 707 618 c 0
 660 584 557 451 492 383 c 1
 607 73 l 2
 611 63 613 52 620 45 c 0
 644 20 692 42 698 21 c 0
 699 19 699 18 699 16 c 0
 699 7 691 1 676 1 c 0
 661 1 635 3 580 3 c 0
 513 3 490 1 468 1 c 0
 454 1 450 7 450 13 c 0
 450 39 480 25 508 45 c 0
 517 51 520 57 520 63 c 0
 520 75 454 241 430 312 c 1
 254 110 l 2
 242 96 225 78 225 61 c 0
 225 25 269 39 270 19 c 0
 270 11 267 0 251 0 c 0
 231 0 210 3 149 3 c 0
 113 3 89 1 74 1 c 0
 57 1 52 3 52 13 c 0
EndSplineSet
EndChar

StartChar: Y
Encoding: 89 89 98
Width: 743
Flags: HW
TeX: 688 0
ItalicCorrection: 193
HStem: 0 37<242.901 343.21> 652 31<203.103 280.998 798.6 872.786>
DStem2: 477 315 494 292 0.634939 0.772562<0 395.586>
AnchorPoint: "below" 371 0 basechar 0
AnchorPoint: "above" 547 705 basechar 0
LayerCount: 2
Fore
SplineSet
203 666 m 0
 203 673 206 683 223 683 c 0
 233 683 264 680 325 680 c 0
 391 680 420 682 435 682 c 0
 442 682 445 681 448 680 c 0
 457 675 454 662 449 657 c 0
 439 646 379 659 379 626 c 0
 379 615 477 315 477 315 c 1
 497 341 518 366 683 567 c 0
 706 596 720 614 720 628 c 0
 720 659 677 644 676 665 c 0
 676 676 683 683 695 683 c 2
 697 683 l 2
 706 683 732 680 785 680 c 0
 816 680 837 682 851 682 c 0
 867 682 873 680 873 670 c 0
 873 652 854 652 850 652 c 0
 785 646 749 602 697 539 c 2
 494 292 l 2
 474 268 483 293 430 80 c 0
 427 67 425 57 425 50 c 0
 425 15 508 46 508 18 c 0
 508 11 504 0 488 0 c 2
 487 0 l 2
 475 0 441 3 371 3 c 0
 304 3 271 0 260 0 c 0
 245 0 242 8 242 13 c 0
 242 43 293 23 326 37 c 0
 347 46 345 55 395 253 c 0
 397 260 399 265 399 271 c 0
 399 275 397 281 395 288 c 2
 292 612 l 2
 280 650 270 650 231 652 c 0
 219 652 203 652 203 666 c 0
EndSplineSet
EndChar

StartChar: Z
Encoding: 90 90 99
Width: 613
Flags: HW
TeX: 688 0
ItalicCorrection: 145
HStem: -0 33<177 426.707> 652 31<374.505 608>
DStem2: 97 43 177 33 0.642779 0.766052<43.7618 794.986>
AnchorPoint: "below" 308 0 basechar 0
AnchorPoint: "above" 485 705 basechar 0
LayerCount: 2
Fore
SplineSet
80 12 m 0
 80 24 95 40 97 43 c 2
 608 652 l 1
 465 652 l 2
 256 652 255 482 233 462 c 0
 230 460 226 458 222 458 c 0
 215 458 208 463 208 472 c 0
 208 478 210 484 264 663 c 0
 270 681 277 683 289 683 c 2
 679 683 l 2
 692 683 703 683 703 672 c 0
 703 661 690 647 682 637 c 2
 177 33 l 1
 308 33 l 2
 473 33 519 86 569 243 c 0
 572 253 576 266 590 266 c 0
 600 266 603 260 603 253 c 0
 603 242 531 17 531 17 c 2
 526 3 521 0 506 -0 c 2
 100 -0 l 2
 94 0 80 -1 80 12 c 0
EndSplineSet
EndChar

StartChar: bracketleft
Encoding: 91 91 100
Width: 307
Flags: HW
TeX: 749 249
ItalicCorrection: 187
HStem: -250 23<127 197.991> 727 23<365 442.962>
DStem2: 58.2481 -250 121.248 -250 0.242599 0.970127<38.9921 1022.23>
LayerCount: 2
Fore
SplineSet
63 -236 m 0
 63 -232 64 -227 65 -223 c 2
 298 709 l 2
 306 743 306 750 329 750 c 2
 421 750 l 2
 430 750 443 749 443 739 c 0
 443 729 431 727 420 727 c 2
 365 727 l 1
 127 -227 l 1
 174 -227 l 2
 186 -227 198 -228 198 -238 c 0
 198 -249 186 -250 177 -250 c 2
 85 -250 l 2
 73 -250 63 -248 63 -236 c 0
EndSplineSet
EndChar

StartChar: backslash
Encoding: 92 92 101
Width: 511
Flags: HW
TeX: 749 249
VStem: 262 23<647.75 747.851> 350 23<-247.851 -147.83>
LayerCount: 2
Fore
SplineSet
262 722 m 1
 262 732 l 2
 262 740 264 748 272 748 c 0
 283 748 284 735 285 723 c 2
 373 -223 l 1
 373 -233 l 2
 373 -245 367 -248 363 -248 c 0
 352 -248 351 -235 350 -223 c 2
 262 722 l 1
EndSplineSet
EndChar

StartChar: bracketright
Encoding: 93 93 102
Width: 307
Flags: HW
TeX: 749 249
ItalicCorrection: 105
HStem: -250 23<-10.9652 67> 727 23<233.038 305>
DStem2: 61.2484 -250 122.997 -250 0.242599 0.970127<23.7082 1006.95>
LayerCount: 2
Fore
SplineSet
-11 -239 m 0
 -11 -229 1 -227 12 -227 c 2
 67 -227 l 1
 305 727 l 1
 256 727 l 2
 245 727 233 728 233 738 c 0
 233 748 246 750 255 750 c 2
 347 750 l 2
 359 750 369 748 369 736 c 0
 369 732 368 728 367 724 c 2
 133 -210 l 2
 125 -243 126 -250 103 -250 c 2
 10 -250 l 2
 1 -250 -11 -249 -11 -239 c 0
EndSplineSet
EndChar

StartChar: asciicircum
Encoding: 94 94 103
Width: 613
Flags: HW
TeX: 688 0
ItalicCorrection: 66
HStem: 575 51<452 474.84>
LayerCount: 2
Fore
SplineSet
248 476 m 0
 248 485 257 491 269 499 c 0
 442 618 451 626 460 626 c 2
 461 626 l 2
 470 626 469 624 589 498 c 0
 594 492 603 485 603 477 c 0
 603 470 595 461 587 461 c 2
 586 461 l 2
 578 461 577 463 453 575 c 1
 452 575 l 1
 281 469 l 2
 276 466 269 461 262 461 c 0
 254 461 248 470 248 476 c 0
EndSplineSet
EndChar

StartChar: underscore
Encoding: 95 95 104
Width: 766
Flags: HW
TeX: 0 232
HStem: -233 40<50.003 608.982>
LayerCount: 2
Fore
SplineSet
50 -213 m 0
 50 -205 54 -193 79 -193 c 2
 580 -193 l 2
 606 -193 609 -205 609 -213 c 0
 609 -234 584 -233 581 -233 c 2
 79 -233 l 2
 54 -233 50 -221 50 -213 c 0
EndSplineSet
EndChar

StartChar: quoteleft
Encoding: 8216 8216 105
Width: 307
Flags: HW
TeX: 688 0
ItalicCorrection: 124
HStem: 394 106<231.7 300.725> 672 20G<345 350.5>
VStem: 206 113<411.798 480.83>
LayerCount: 2
Fore
SplineSet
206 456 m 0
 206 502 233 596 319 673 c 0
 337 689 342 692 348 692 c 0
 353 692 358 689 358 683 c 0
 358 665 263 623 231 483 c 1
 246 494 257 500 275 500 c 0
 301 500 319 483 319 458 c 0
 319 426 289 394 254 394 c 0
 235 394 206 405 206 456 c 0
EndSplineSet
EndChar

StartChar: a
Encoding: 97 97 106
Width: 511
Flags: HW
TeX: 430 0
ItalicCorrection: 76
HStem: -11 23<201.693 269.035 414.931 457.386> 419 23<302.796 368.832>
VStem: 107 68<51.2447 220.753> 502 32<82.375 152.952>
DStem2: 320.242 -11 386.491 -11 0.242599 0.970127<83.5005 348.569 406.431 433.175>
AnchorPoint: "ogonek" 434 0 basechar 0
AnchorPoint: "affricate-below" 462 -194 basechar 0
AnchorPoint: "affricate-above" 685 694 basechar 0
AnchorPoint: "below" 225 0 basechar 0
AnchorPoint: "above" 336 442 basechar 0
LayerCount: 2
Fore
SplineSet
107 144 m 0
 107 291 225 442 336 442 c 0
 379 442 402 416 420 383 c 1
 428 417 449 421 459 421 c 0
 476 421 487 408 487 394 c 0
 487 390 486 386 483 375 c 2
 420 123 l 2
 414 100 408 76 408 52 c 0
 408 18 424 12 434 12 c 0
 472 12 489 88 502 135 c 0
 506 149 513 153 519 153 c 0
 524 153 534 151 534 140 c 1
 534 140 517 33 469 -0 c 0
 458 -8 444 -11 431 -11 c 0
 398 -11 362 8 350 59 c 1
 323 29 281 -11 229 -11 c 0
 156 -11 107 52 107 144 c 0
175 100 m 0
 175 64 186 12 231 12 c 0
 283 12 338 83 350 108 c 0
 352 112 405 312 405 328 c 0
 405 345 391 419 336 419 c 0
 302 419 271 387 251 358 c 0
 203 289 175 138 175 100 c 0
EndSplineSet
EndChar

StartChar: b
Encoding: 98 98 107
Width: 460
Flags: HW
TeX: 688 0
ItalicCorrection: 63
HStem: -11 23<198.475 265.872> 419 23<297.463 364.306> 674 20G<285 293>
VStem: 113 57<48.2817 231.21> 225 78<611.328 685.228> 390 69<203.291 378.257>
DStem2: 65.9827 -11 131.233 -11 0.242599 0.970127<161.339 411.149 427.114 663.064>
AnchorPoint: "affricate-below" 411 -194 basechar 0
AnchorPoint: "affricate-above" 634 694 basechar 0
AnchorPoint: "below" 232 0 basechar 0
AnchorPoint: "above" 406 694 basechar 0
LayerCount: 2
Fore
SplineSet
113 142 m 0
 113 175 121 209 128 237 c 2
 220 607 l 2
 223 618 225 627 225 633 c 0
 225 668 153 637 153 666 c 0
 153 685 174 684 183 685 c 0
 218 688 283 694 287 694 c 0
 299 694 303 688 303 680 c 0
 303 673 300 664 298 657 c 2
 231 388 l 1
 260 416 294 442 337 442 c 0
 410 442 459 376 459 286 c 0
 459 140 343 -11 229 -11 c 0
 159 -11 113 52 113 142 c 0
170 107 m 0
 170 68 182 12 230 12 c 0
 262 12 294 41 315 71 c 0
 363 140 390 291 390 331 c 0
 390 388 369 419 336 419 c 0
 303 419 260 389 226 340 c 0
 209 316 211 308 194 240 c 0
 186 209 170 157 170 107 c 0
EndSplineSet
EndChar

StartChar: c
Encoding: 99 99 108
Width: 460
Flags: HW
TeX: 430 0
ItalicCorrection: 56
HStem: -11 23<219.274 321.336> 296 81<394.194 434.406> 419 23<320.238 406.494>
VStem: 108 71<62.9828 233.791> 385 84<305.957 367.651>
AnchorPoint: "affricate-below" 411 -194 basechar 0
AnchorPoint: "affricate-above" 634 694 basechar 0
AnchorPoint: "below" 259 0 basechar 0
AnchorPoint: "above" 362 442 basechar 0
LayerCount: 2
Fore
SplineSet
108 153 m 0
 108 301 239 442 362 442 c 0
 422 442 469 407 469 356 c 0
 469 310 438 296 418 296 c 0
 400 296 385 309 385 328 c 0
 385 339 392 373 435 377 c 1
 417 414 381 419 363 419 c 0
 330 419 242 397 197 225 c 0
 194 214 179 159 179 115 c 0
 179 63 201 12 258 12 c 0
 370 12 443 114 445 116 c 0
 455 123 467 112 467 103 c 0
 467 83 380 -11 256 -11 c 0
 168 -11 108 57 108 153 c 0
EndSplineSet
EndChar

StartChar: d
Encoding: 100 100 109
Width: 511
Flags: HW
TeX: 688 0
ItalicCorrection: 103
HStem: -11 23<201.693 269.035 414.931 456.981> 419 23<302.755 368.749> 674 20G<541 547>
VStem: 107 68<51.6799 220.771> 481 78<610.708 685.245> 503 31<84.7575 152.893>
DStem2: 320.242 -11 386.49 -11 0.242599 0.970127<83.1302 348.569 406.431 635.332>
AnchorPoint: "affricate-below" 462 -194 basechar 0
AnchorPoint: "affricate-above" 685 694 basechar 0
AnchorPoint: "below" 281 0 basechar 0
AnchorPoint: "above" 399 694 basechar 0
LayerCount: 2
Fore
SplineSet
107 144 m 0
 107 291 226 442 336 442 c 0
 387 442 410 405 420 383 c 1
 440 471 481 615 481 633 c 0
 481 667 409 637 409 666 c 0
 409 684 430 684 440 685 c 0
 474 688 539 694 543 694 c 0
 551 694 559 691 559 680 c 0xf8
 559 673 557 666 555 660 c 2
 422 131 l 2
 408 76 408 68 408 52 c 0
 408 18 424 12 434 12 c 0
 478 12 493 109 503 139 c 0
 506 149 514 153 520 153 c 0
 531 153 534 147 534 140 c 0xf4
 534 136 533 131 532 127 c 0
 514 56 491 -11 431 -11 c 0
 398 -11 362 8 350 59 c 1
 323 29 281 -11 229 -11 c 0
 156 -11 107 54 107 144 c 0
175 100 m 0xf0
 175 64 186 12 231 12 c 0
 283 12 338 83 350 108 c 0
 352 112 405 312 405 328 c 0
 405 345 391 419 336 419 c 0
 304 419 272 389 251 358 c 0
 203 289 175 138 175 100 c 0xf0
EndSplineSet
EndChar

StartChar: e
Encoding: 101 101 110
Width: 460
Flags: HW
TeX: 430 0
ItalicCorrection: 75
HStem: -11 22<222.271 316.621> 230 23<205 326.781> 419 23<315.536 399.631>
VStem: 113 69<65.7071 227.944> 425 37<306.307 401.872>
AnchorPoint: "ogonek" 260 0 basechar 0
AnchorPoint: "affricate-below" 411 -194 basechar 0
AnchorPoint: "affricate-above" 634 694 basechar 0
AnchorPoint: "below" 260 0 basechar 0
AnchorPoint: "above" 362 442 basechar 0
LayerCount: 2
Fore
SplineSet
113 166 m 0
 113 339 253 442 362 442 c 0
 419 442 462 408 462 357 c 0
 462 332 452 263 340 240 c 0
 293 231 246 230 199 230 c 1
 191 195 182 159 182 122 c 0
 182 72 200 11 259 11 c 0
 310 11 381 40 430 99 c 0
 434 104 443 118 453 118 c 0
 459 118 467 112 467 104 c 0
 467 83 378 -11 257 -11 c 0
 171 -11 113 59 113 166 c 0
205 253 m 1
 324 253 425 274 425 358 c 0
 425 393 400 419 362 419 c 0
 331 419 241 397 205 253 c 1
EndSplineSet
EndChar

StartChar: f
Encoding: 102 102 111
Width: 307
Flags: HW
TeX: 688 194
ItalicCorrection: 211
HStem: -205 22<22.5443 78.2629> -165 80<14 49.75> 400 30<126.01 212 283 384.874> 585 80<376.81 412> 682 23<346.273 404.654>
VStem: -25 83<-155.923 -94.5001> 368 83<593.875 655.011>
DStem2: 118 -70 208 47 0.196116 0.980581<-53.4474 479.308 522.65 738.194>
AnchorPoint: "affricate-below" 258 -194 basechar 0
AnchorPoint: "affricate-above" 481 694 basechar 0
AnchorPoint: "above" 350 694 basechar 0
AnchorPoint: "below" 80 -194 basechar 0
LayerCount: 2
Fore
SplineSet
-25 -139 m 0
 -25 -105 0 -85 25 -85 c 0
 47 -85 58 -101 58 -118 c 0
 58 -137 45 -159 14 -165 c 1
 24 -174 36 -183 53 -183 c 0
 92 -183 105 -125 118 -70 c 0
 146 46 212 400 212 400 c 1
 198 400 184 399 170 399 c 2
 157 399 l 2
 140 399 126 400 126 415 c 0
 126 424 135 430 154 430 c 2
 218 430 l 1
 240 545 252 623 288 663 c 0
 303 680 331 705 370 705 c 0
 413 705 451 679 451 639 c 0
 451 610 431 585 402 585 c 0
 382 585 368 598 368 617 c 0
 368 636 382 660 412 665 c 1
 398 677 386 682 374 682 c 0
 319 682 319 601 283 430 c 1
 363 430 l 2
 374 430 385 430 385 417 c 0
 385 400 368 399 354 399 c 2
 352 399 l 2
 346 399 339 400 333 400 c 2
 277 400 l 1
 271 365 216 82 208 47 c 0
 186 -55 147 -205 54 -205 c 0
 17 -205 -25 -183 -25 -139 c 0
EndSplineSet
EndChar

StartChar: g
Encoding: 103 103 112
Width: 460
Flags: HW
TeX: 430 194
ItalicCorrection: 88
HStem: -206 23<104.129 224.839> 0 23<204.193 272.077> 419 23<300.39 369.565>
VStem: 52 83<-165.676 -103.906> 109 69<62.478 233.584> 406 81<305.081 398.849>
DStem2: 273.232 -206 338.239 -206 0.242599 0.970127<81.4003 266.975 288.763 551.784 609.193 634.723>
AnchorPoint: "affricate-below" 411 -194 basechar 0
AnchorPoint: "affricate-above" 634 694 basechar 0
AnchorPoint: "below" 178 -194 basechar 0
AnchorPoint: "above" 336 442 basechar 0
LayerCount: 2
Fore
SplineSet
52 -147 m 0
 52 -124 71 -94 101 -94 c 0
 123 -94 135 -109 135 -127 c 0xf4
 135 -145 124 -162 103 -172 c 1
 116 -177 139 -183 175 -183 c 0
 251 -183 290 -113 302 -83 c 0
 309 -66 333 30 338 53 c 1
 309 26 274 0 231 0 c 0
 158 0 109 66 109 153 c 0xec
 109 298 228 442 336 442 c 0
 380 442 402 417 421 385 c 1
 429 419 453 421 460 421 c 0
 475 421 487 411 487 395 c 0
 487 391 486 386 485 382 c 2
 378 -47 l 2
 374 -62 371 -77 365 -91 c 0
 348 -130 289 -206 175 -206 c 0
 132 -206 52 -202 52 -147 c 0
178 109 m 0xec
 178 75 189 23 234 23 c 0
 265 23 304 49 338 95 c 0
 357 120 349 98 399 296 c 0
 402 307 406 321 406 330 c 0
 406 346 392 419 337 419 c 0
 303 419 272 388 252 360 c 0
 204 293 178 149 178 109 c 0xec
EndSplineSet
EndChar

StartChar: h
Encoding: 104 104 113
Width: 511
Flags: HW
TeX: 688 0
ItalicCorrection: 76
HStem: -11 23<392.167 442.113> 419 23<312.07 388.334> 674 20G<283.5 293>
VStem: 225 78<589.917 685.5> 332 56<12.5731 122.789> 406 61<243.16 407.39> 500 34<87.8281 149.809>
DStem2: 66.2445 -11 131.996 -11 0.242599 0.970127<28.7811 392.622 413.711 639.989>
AnchorPoint: "affricate-below" 462 -194 basechar 0
AnchorPoint: "affricate-above" 685 694 basechar 0
AnchorPoint: "below" 228 0 basechar 0
AnchorPoint: "above" 401 694 basechar 0
LayerCount: 2
Fore
SplineSet
75 16 m 0
 75 26 81 47 86 68 c 2
 219 599 l 2
 223 614 225 625 225 633 c 0
 225 670 154 634 154 666 c 0
 154 688 185 685 267 692 c 0
 274 693 280 694 287 694 c 0
 299 694 303 690 303 681 c 0
 303 667 252 477 228 375 c 1
 261 411 300 442 361 442 c 2
 362 442 l 2
 407 442 467 421 467 338 c 0
 467 248 388 93 388 40 c 0
 388 27 393 12 411 12 c 0
 429 12 470 23 500 129 c 0
 502 137 505 146 511 150 c 0
 520 156 534 153 534 140 c 0
 534 130 498 -11 407 -11 c 0
 362 -11 332 23 332 69 c 0
 332 119 406 261 406 354 c 0
 406 388 394 419 359 419 c 0
 267 419 213 302 206 284 c 0
 202 273 145 41 145 41 c 2
 143 32 137 -11 102 -11 c 0
 88 -11 75 0 75 16 c 0
EndSplineSet
EndChar

StartChar: i
Encoding: 105 105 114
Width: 307
Flags: HW
TeX: 661 0
ItalicCorrection: 101
HStem: -11 23<186.697 235.094> 393 34<154.275 218.962> 575 80<251.755 315.062>
VStem: 127 56<12.5702 121.037> 219 83<337.707 424.129> 243 81<583.807 646.532> 296 33<88.0858 152.791>
AnchorPoint: "above" 307 635 basechar 0
AnchorPoint: "ogonek" 206 0 basechar 0
AnchorPoint: "affricate-below" 258 -194 basechar 0
AnchorPoint: "affricate-above" 481 694 basechar 0
AnchorPoint: "below" 148 0 basechar 0
LayerCount: 2
Fore
SplineSet
243 608 m 0
 243 630 264 655 290 655 c 0
 308 655 324 642 324 622 c 0
 324 599 302 575 277 575 c 0xf4
 258 575 243 588 243 608 c 0
EndSplineSet
Refer: 34 305 S 1 0 0 1 0 -0 3
EndChar

StartChar: j
Encoding: 106 106 115
Width: 307
Flags: HW
TeX: 661 194
ItalicCorrection: 144
HStem: -207 26<15.3942 86.5378> -174 81<15 42.9011> 575 80<284.998 349.07>
VStem: -35 86<-165.905 -102.967> 261 80<349.141 423.07> 276 82<584.031 645.84>
DStem2: 118.988 -207 186.488 -207 0.242599 0.970127<85.7827 593.849>
AnchorPoint: "affricate-below" 258 -194 basechar 0
AnchorPoint: "affricate-above" 481 694 basechar 0
AnchorPoint: "below" 84 -194 basechar 0
LayerCount: 2
Fore
SplineSet
-35 -147 m 0
 -35 -120 -15 -93 16 -93 c 0
 35 -93 51 -107 51 -127 c 0
 51 -146 39 -164 15 -174 c 1
 24 -178 34 -181 46 -181 c 0
 69 -181 129 -168 162 -35 c 2
 255 340 l 2
 258 352 261 362 261 370 c 0xf8
 261 405 189 375 189 403 c 0
 189 422 206 423 278 427 c 0
 279 427 283 432 308 432 c 2
 316 432 l 2
 329 432 341 431 341 417 c 0
 341 412 340 406 339 403 c 2
 230 -33 l 2
 220 -72 214 -97 186 -132 c 0
 154 -172 102 -207 46 -207 c 0
 -1 -207 -35 -183 -35 -147 c 0
276 608 m 0
 276 630 298 655 324 655 c 0
 341 655 358 643 358 622 c 0
 358 595 331 575 310 575 c 0xf4
 290 575 276 591 276 608 c 0
EndSplineSet
EndChar

StartChar: k
Encoding: 107 107 116
Width: 460
Flags: HW
TeX: 688 0
ItalicCorrection: 107
HStem: -11 23<352.249 401.258> 326 80<426.216 464> 419 23<395.371 461.443> 652 42<155.531 224.988>
VStem: 225 78<613.031 685.228> 287 58<17.51 144.422> 294 64<69.9473 193.393> 418 83<335.409 396.682> 450 33<80.975 152.787>
DStem2: 66.4971 -11 131.233 -11 0.242599 0.970127<33.4729 263.195 296.262 661.924>
AnchorPoint: "affricate-below" 411 -194 basechar 0
AnchorPoint: "affricate-above" 634 694 basechar 0
AnchorPoint: "below" 218 0 basechar 0
AnchorPoint: "above" 391 694 basechar 0
LayerCount: 2
Fore
SplineSet
75 16 m 0
 75 21 76 26 77 31 c 2
 220 603 l 2
 223 616 225 625 225 632 c 0xf8
 225 650 209 652 192 652 c 2
 182 652 l 2
 169 652 157 652 154 662 c 1
 154 667 l 2
 154 689 196 686 277 693 c 0
 280 693 283 694 287 694 c 0xf4
 300 694 303 688 303 680 c 0xf8
 303 676 302 671 301 666 c 2
 200 261 l 1
 290 307 339 442 438 442 c 0
 476 442 501 416 501 381 c 0
 501 350 479 326 452 326 c 0
 433 326 418 339 418 358 c 0
 418 367 421 398 464 406 c 1
 455 414 449 419 437 419 c 0
 359 419 311 310 224 249 c 1
 272 243 358 220 358 146 c 0xf3
 358 118 345 90 345 52 c 0
 345 17 363 12 374 12 c 0
 420 12 438 86 450 131 c 0
 452 141 456 153 469 153 c 0
 479 153 483 149 483 140 c 0
 483 134 457 -11 371 -11 c 0
 320 -11 287 29 287 85 c 0xf480
 287 109 294 127 294 145 c 0
 294 204 226 223 191 228 c 1
 138 17 141 -11 102 -11 c 0xf2
 87 -11 75 0 75 16 c 0
EndSplineSet
EndChar

StartChar: l
Encoding: 108 108 117
Width: 255
Flags: HW
TeX: 688 0
ItalicCorrection: 103
HStem: -11 23<159.619 201.511> 674 20G<285 291.5>
VStem: 93 60<16.5852 157.414> 226 78<615.002 685.131>
DStem2: 66.7399 -11 132.492 -11 0.242599 0.970127<94.6383 663.031>
AnchorPoint: "affricate-below" 206 -194 basechar 0
AnchorPoint: "affricate-above" 429 694 basechar 0
AnchorPoint: "below" 102 0 basechar 0
AnchorPoint: "above" 275 694 basechar 0
LayerCount: 2
Fore
SplineSet
93 79 m 0
 93 100 100 121 103 134 c 2
 219 597 l 2
 223 613 226 625 226 633 c 0
 226 666 159 639 154 663 c 1
 152 682 172 683 180 684 c 0
 216 687 283 694 287 694 c 0
 296 694 304 691 304 680 c 0
 304 674 301 668 300 663 c 2
 162 107 l 2
 159 94 153 72 153 51 c 0
 153 18 169 12 179 12 c 0
 220 12 240 110 247 136 c 0
 251 150 258 153 264 153 c 0
 268 153 278 152 278 140 c 0
 278 121 264 80 257 61 c 0
 230 -7 195 -11 176 -11 c 0
 126 -11 93 29 93 79 c 0
EndSplineSet
EndChar

StartChar: m
Encoding: 109 109 118
Width: 818
Flags: HW
TeX: 430 0
ItalicCorrection: 76
HStem: -11 23<697.542 748.596> 419 23<363.937 439.679 618.024 695.91>
VStem: 381 70<-4.7793 108.641> 638 56<12.6402 122.249> 712 61<244.111 406.59> 817 24<125.484 153.855>
DStem2: 115.746 -12 183.497 -12 0.242599 0.970127<29.7309 393.227>
AnchorPoint: "affricate-below" 769 -194 basechar 0
AnchorPoint: "affricate-above" 992 694 basechar 0
AnchorPoint: "below" 406 0 basechar 0
AnchorPoint: "above" 516 442 basechar 0
LayerCount: 2
Fore
SplineSet
125 16 m 0
 125 23 128 35 130 45 c 2
 207 353 l 2
 208 360 210 365 210 370 c 0
 210 405 138 374 138 403 c 0
 138 422 156 423 227 427 c 1
 231 429 247 433 262 433 c 0
 277 433 290 429 290 418 c 0
 290 410 286 397 281 377 c 1
 321 419 361 442 414 442 c 0
 510 442 516 363 518 353 c 1
 545 393 594 442 668 442 c 0
 731 442 773 405 773 338 c 0
 773 250 694 91 694 39 c 0
 694 26 699 12 717 12 c 0
 785 12 805 142 817 151 c 0
 820 153 824 154 827 154 c 0
 834 154 841 150 841 141 c 0
 841 130 805 -11 714 -11 c 0
 669 -11 638 23 638 70 c 0
 638 116 712 264 712 357 c 0
 712 412 683 419 663 419 c 0
 579 419 524 312 513 284 c 0
 509 272 512 284 451 39 c 0
 449 32 444 -11 409 -11 c 0
 393 -11 381 1 381 17 c 0
 381 51 457 287 457 355 c 0
 457 386 448 419 410 419 c 0
 323 419 267 308 260 290 c 0
 255 278 259 291 193 26 c 0
 185 -6 165 -12 153 -12 c 0
 137 -12 125 1 125 16 c 0
EndSplineSet
EndChar

StartChar: n
Encoding: 110 110 119
Width: 562
Flags: HW
TeX: 430 0
ItalicCorrection: 76
HStem: -11 23<442.542 493.413> 419 23<361.8 439.937>
VStem: 383 56<12.6402 122.043> 457 61<242.945 407.318> 562 23<125.484 153.926>
DStem2: 116.246 -12 183.747 -12 0.242599 0.970127<29.6551 393.105>
AnchorPoint: "affricate-below" 513 -194 basechar 0
AnchorPoint: "affricate-above" 736 694 basechar 0
AnchorPoint: "below" 279 0 basechar 0
AnchorPoint: "above" 389 442 basechar 0
LayerCount: 2
Fore
SplineSet
125 16 m 0
 125 24 128 37 131 47 c 2
 207 352 l 2
 208 359 210 365 210 370 c 0
 210 405 138 375 138 402 c 0
 138 422 156 423 227 427 c 1
 236 432 238 432 254 432 c 2
 267 432 l 2
 280 432 290 430 290 417 c 0
 290 409 287 401 281 377 c 1
 313 411 352 442 413 442 c 2
 414 442 l 2
 458 442 518 421 518 337 c 0
 518 246 439 93 439 39 c 0
 439 26 444 12 462 12 c 0
 530 12 550 142 562 151 c 0
 565 153 569 154 572 154 c 0
 579 154 585 150 585 141 c 0
 585 128 549 -11 459 -11 c 0
 414 -11 383 23 383 70 c 0
 383 115 457 265 457 354 c 0
 457 410 428 419 408 419 c 0
 326 419 270 318 260 290 c 0
 255 278 259 290 196 37 c 0
 195 31 189 -12 153 -12 c 0
 137 -12 125 -1 125 16 c 0
EndSplineSet
EndChar

StartChar: o
Encoding: 111 111 120
Width: 511
Flags: HW
TeX: 430 0
ItalicCorrection: 63
HStem: -11 23<217.861 300.796> 419 23<319.205 398.255>
VStem: 108 71<62.3155 235.057> 438 70<194.614 368.39>
AnchorPoint: "ogonek" 257 0 basechar 0
AnchorPoint: "affricate-below" 462 -194 basechar 0
AnchorPoint: "affricate-above" 685 694 basechar 0
AnchorPoint: "below" 257 0 basechar 0
AnchorPoint: "above" 362 442 basechar 0
LayerCount: 2
Fore
SplineSet
108 153 m 0
 108 299 237 442 362 442 c 0
 450 442 508 374 508 277 c 0
 508 131 379 -11 254 -11 c 0
 166 -11 108 58 108 153 c 0
179 114 m 0
 179 50 209 12 255 12 c 0
 275 12 315 20 355 67 c 0
 408 129 438 258 438 316 c 0
 438 380 407 419 361 419 c 0
 341 419 302 410 262 363 c 0
 209 301 179 170 179 114 c 0
EndSplineSet
EndChar

StartChar: p
Encoding: 112 112 121
Width: 511
Flags: HW
TeX: 430 194
ItalicCorrection: 63
HStem: -193 20G<27.5 43.5 192.5 208.5> -12 25<247.583 317.761> 418 25<346.81 416.221>
VStem: 440 71<205.65 379.535>
DStem2: 71.4943 -194 136.483 -194 0.242599 0.970127<66.248 261.095 323.837 575.839>
AnchorPoint: "affricate-below" 462 -194 basechar 0
AnchorPoint: "affricate-above" 685 694 basechar 0
AnchorPoint: "below" 235 -194 basechar 0
AnchorPoint: "above" 394 442 basechar 0
LayerCount: 2
Fore
SplineSet
14 -181 m 0
 14 -151 58 -175 77 -152 c 0
 86 -141 88 -126 92 -112 c 2
 201 328 l 2
 206 347 209 360 209 369 c 0
 209 405 138 373 138 403 c 0
 138 422 158 423 226 427 c 1
 235 432 237 432 253 432 c 2
 261 432 l 2
 280 432 290 431 290 418 c 0
 290 413 288 408 284 392 c 1
 313 419 347 443 389 443 c 0
 463 443 511 376 511 287 c 0
 511 138 392 -12 281 -12 c 0
 238 -12 215 12 196 44 c 1
 186 -2 150 -134 150 -146 c 0
 150 -176 212 -153 221 -171 c 0
 222 -173 223 -175 223 -177 c 0
 223 -185 215 -194 202 -194 c 0
 183 -194 164 -192 108 -192 c 0
 73 -192 51 -193 36 -193 c 0
 19 -193 14 -191 14 -181 c 0
213 104 m 0
 213 86 227 13 281 13 c 0
 386 13 440 263 440 331 c 0
 440 385 420 418 386 418 c 0
 354 418 313 389 277 337 c 0
 263 316 270 337 217 127 c 0
 216 122 213 113 213 104 c 0
EndSplineSet
EndChar

StartChar: q
Encoding: 113 113 122
Width: 460
Flags: HW
TeX: 430 194
ItalicCorrection: 88
HStem: -194 21G<208 219.5 402 412> -11 23<201.693 269.203> 419 23<302.755 368.202>
VStem: 107 68<51.6799 220.948> 405 90<320 431.5>
DStem2: 275.733 -194 341.495 -194 0.242599 0.970127<66.0714 244.298 261.389 536.9>
AnchorPoint: "affricate-below" 411 -194 basechar 0
AnchorPoint: "affricate-above" 634 694 basechar 0
AnchorPoint: "below" 177 -194 basechar 0
AnchorPoint: "above" 336 442 basechar 0
LayerCount: 2
Fore
SplineSet
107 144 m 0
 107 292 226 442 336 442 c 0
 388 442 412 402 423 377 c 1
 424 377 l 1
 441 406 473 440 485 440 c 0
 491 440 495 435 495 428 c 0
 495 422 492 409 489 397 c 2
 360 -120 l 2
 357 -131 355 -140 355 -146 c 0
 355 -178 426 -149 427 -177 c 0
 427 -191 417 -194 407 -194 c 0
 397 -194 367 -192 307 -192 c 0
 252 -192 224 -194 215 -194 c 0
 201 -194 197 -188 197 -182 c 0
 197 -147 262 -179 284 -148 c 0
 291 -138 294 -119 335 43 c 1
 306 15 272 -11 229 -11 c 0
 156 -11 107 54 107 144 c 0
175 100 m 0
 175 64 186 12 231 12 c 0
 283 12 338 83 350 108 c 0
 352 112 405 312 405 328 c 0
 405 345 391 419 336 419 c 0
 304 419 272 389 251 358 c 0
 203 289 175 138 175 100 c 0
EndSplineSet
EndChar

StartChar: r
Encoding: 114 114 123
Width: 422
Flags: HW
TeX: 430 0
ItalicCorrection: 107
HStem: 326 79<413.197 442> 419 23<345.445 436.804>
VStem: 405 83<334.875 396.328>
DStem2: 120.747 10 188.998 10 0.242599 0.970127<14.8921 278.6>
AnchorPoint: "affricate-below" 373 -194 basechar 0
AnchorPoint: "affricate-above" 596 694 basechar 0
AnchorPoint: "below" 156 0 basechar 0
AnchorPoint: "above" 325 442 basechar 0
LayerCount: 2
Fore
SplineSet
125 24 m 0
 125 30 129 43 132 55 c 2
 203 337 l 2
 207 352 209 362 209 370 c 0
 209 405 137 375 137 403 c 0
 137 424 157 423 225 427 c 1
 232 440 244 453 263 453 c 0
 286 453 291 435 291 428 c 0
 291 422 289 412 284 390 c 1
 310 417 340 442 390 442 c 0
 430 442 488 426 488 378 c 0
 488 352 468 326 439 326 c 0
 420 326 405 339 405 358 c 0
 405 377 416 394 442 405 c 1
 427 413 411 419 389 419 c 0
 339 419 303 380 274 327 c 0
 261 302 268 327 197 42 c 0
 190 13 188 10 169 10 c 0
 162 10 155 10 148 10 c 0
 136 10 125 10 125 24 c 0
EndSplineSet
EndChar

StartChar: s
Encoding: 115 115 124
Width: 409
Flags: HW
TeX: 430 0
ItalicCorrection: 82
HStem: -11 22<151.916 259.747> 67 81<108.75 150.595> 302 68<352.168 384.429> 419 23<262.711 355.795>
VStem: 75 84<75.389 137.64> 153 57<285.706 367.165> 335 57<81.2077 171.188> 347 71<308.275 363.192>
AnchorPoint: "affricate-below" 360 -194 basechar 0
AnchorPoint: "affricate-above" 583 694 basechar 0
AnchorPoint: "below" 208 0 basechar 0
AnchorPoint: "above" 311 442 basechar 0
LayerCount: 2
Fore
SplineSet
75 86 m 0
 75 132 105 148 125 148 c 0
 145 148 159 134 159 115 c 0
 159 103 150 68 108 67 c 1
 125 23 168 11 206 11 c 0
 297 11 335 81 335 123 c 0xfa
 335 192 257 190 218 203 c 0
 190 212 153 239 153 293 c 0
 153 349 198 442 311 442 c 0
 373 442 418 408 418 356 c 0
 418 315 393 302 376 302 c 0
 360 302 347 314 347 330 c 0xf5
 347 346 359 365 385 370 c 1
 372 410 337 419 310 419 c 0
 240 419 210 363 210 328 c 0
 210 281 256 275 269 272 c 0
 287 268 392 257 392 158 c 0
 392 98 343 -11 205 -11 c 0xf6
 130 -11 75 28 75 86 c 0
EndSplineSet
EndChar

StartChar: t
Encoding: 116 116 125
Width: 332
Flags: HW
TeX: 614 0
ItalicCorrection: 94
HStem: -11 23<185.245 242.738> 400 30<92.1262 195 268 370.921>
VStem: 119 60<16.16 158.195> 239 68<546.806 603.77> 324 31<105.881 152.811>
DStem2: 92.4907 -11 157.991 -11 0.242599 0.970127<94.5163 423.591 470.404 635.611>
AnchorPoint: "affricate-below" 283 -194 basechar 0
AnchorPoint: "affricate-above" 506 694 basechar 0
AnchorPoint: "below" 184 0 basechar 0
AnchorPoint: "above" 278 604 basechar 0
LayerCount: 2
Fore
SplineSet
92 413 m 0
 92 429 106 430 114 430 c 0
 124 430 134 431 144 431 c 0
 164 431 183 430 203 430 c 1
 239 575 l 2
 245 598 245 604 267 604 c 0
 273 604 279 604 285 604 c 0
 297 604 307 604 307 591 c 0
 307 583 278 467 268 430 c 1
 350 430 l 2
 360 430 371 430 371 417 c 0
 371 401 359 399 335 399 c 2
 319 399 l 2
 299 399 280 400 260 400 c 1
 257 387 253 373 250 360 c 2
 190 117 l 2
 185 96 179 74 179 52 c 0
 179 32 183 12 207 12 c 0
 277 12 320 130 324 140 c 0
 328 150 336 153 342 153 c 0
 348 153 355 149 355 142 c 0
 355 126 300 -11 204 -11 c 0
 153 -11 119 27 119 79 c 0
 119 96 123 113 126 123 c 2
 195 400 l 1
 114 400 l 2
 103 400 92 400 92 413 c 0
EndSplineSet
EndChar

StartChar: u
Encoding: 117 117 126
Width: 537
Flags: HW
TeX: 430 0
ItalicCorrection: 76
HStem: -11 23<242.5 300.5 443.5 487.5> 410 20G<470 495.5>
VStem: 154 61<55 137.5> 209 80<368 422>
AnchorPoint: "ogonek" 460 0 basechar 0
AnchorPoint: "affricate-below" 488 -194 basechar 0
AnchorPoint: "affricate-above" 711 694 basechar 0
AnchorPoint: "below" 266 0 basechar 0
AnchorPoint: "above" 376 442 basechar 0
LayerCount: 2
Fore
SplineSet
138 403 m 0
 138 420 156 421 159 421 c 0
 168 422 268 431 274 431 c 0
 285 431 289 427 289 417 c 0xd0
 289 406 283 387 276 360 c 0
 255 280 215 167 215 90 c 0
 215 21 250 12 270 12 c 0
 331 12 368 79 373 90 c 1
 374 95 381 122 381 122 c 25
 445 380 l 2
 447 389 453 431 487 431 c 0xe0
 504 431 514 416 514 407 c 0
 514 392 501 346 452 147 c 0
 440 98 433 76 433 52 c 0
 433 18 448 12 459 12 c 0
 499 12 520 106 526 130 c 0
 531 148 539 154 545 154 c 0
 553 154 559 146 559 140 c 0
 559 136 558 132 557 128 c 0
 539 56 518 -11 457 -11 c 0
 430 -11 393 3 378 49 c 1
 343 9 311 -11 266 -11 c 0
 219 -11 154 11 154 105 c 0
 154 198 209 321 209 371 c 0
 209 404 138 375 138 403 c 0
EndSplineSet
EndChar

StartChar: v
Encoding: 118 118 127
Width: 460
Flags: HW
TeX: 430 0
ItalicCorrection: 107
HStem: -11 23<244.933 321.001> 422 20G<441.5 459.5>
VStem: 155 62<33.4587 211.294> 220 83<340.254 422.349> 444 48<248.179 401.5>
AnchorPoint: "affricate-below" 411 -194 basechar 0
AnchorPoint: "affricate-above" 634 694 basechar 0
AnchorPoint: "below" 281 0 basechar 0
AnchorPoint: "above" 451 442 basechar 0
LayerCount: 2
Fore
SplineSet
151 403 m 0
 151 424 167 420 266 429 c 0
 268 429 276 431 284 431 c 0
 296 431 303 429 303 418 c 0
 303 408 298 391 290 361 c 0
 287 351 286 340 274 334 c 1
 245 239 217 142 217 94 c 0
 217 25 256 12 282 12 c 0
 393 12 444 253 444 290 c 0
 444 359 404 368 404 396 c 0
 404 423 432 442 451 442 c 0
 468 442 492 428 492 375 c 0
 492 332 442 -11 278 -11 c 0
 227 -11 155 13 155 109 c 0
 155 180 220 362 220 374 c 0
 220 403 151 375 151 403 c 0
EndSplineSet
EndChar

StartChar: w
Encoding: 119 119 128
Width: 664
Flags: HW
TeX: 430 0
ItalicCorrection: 107
HStem: -12 25<248.509 321.125 460.864 538.568> 422 20G<642 663.5>
VStem: 154 65<36.2914 212.629> 647 50<246.945 400>
AnchorPoint: "affricate-below" 615 -194 basechar 0
AnchorPoint: "affricate-above" 838 694 basechar 0
AnchorPoint: "below" 498 0 basechar 0
AnchorPoint: "above" 476 442 basechar 0
LayerCount: 2
Fore
SplineSet
151 403 m 0
 151 426 175 420 230 427 c 0
 246 429 238 432 270 432 c 2
 281 432 l 2
 293 432 303 431 303 418 c 1
 303 418 293 346 275 334 c 1
 247 241 219 144 219 97 c 0
 219 26 262 13 286 13 c 0
 339 13 367 91 369 99 c 0
 372 111 369 126 377 163 c 0
 382 185 387 207 432 385 c 0
 434 393 441 431 475 431 c 0
 492 431 503 418 503 403 c 0
 503 376 435 158 435 94 c 0
 435 32 467 13 498 13 c 0
 579 13 613 135 633 214 c 0
 639 238 647 263 647 292 c 0
 647 359 608 371 608 397 c 0
 608 415 629 442 655 442 c 0
 672 442 697 428 697 372 c 0
 697 321 661 179 637 118 c 0
 599 21 552 -13 495 -13 c 0
 470 -13 408 -7 382 50 c 1
 359 17 335 -12 284 -12 c 0
 231 -12 154 13 154 111 c 0
 154 177 219 369 219 376 c 0
 219 400 151 377 151 403 c 0
EndSplineSet
EndChar

StartChar: x
Encoding: 120 120 129
Width: 464
Flags: HW
TeX: 430 0
ItalicCorrection: 120
HStem: -11 23<99.7004 174.719 307.249 374.115> 25 80<96 126.781> 326 79<442.608 473> 419 23<196.929 261.746 396.92 468.768>
VStem: 53 82<33.4688 96.566> 83 35<278.355 338.213> 435 82<335.433 396.408> 452 35<92.4153 152.693>
AnchorPoint: "affricate-below" 415 -194 basechar 0
AnchorPoint: "affricate-above" 638 694 basechar 0
AnchorPoint: "below" 231 0 basechar 0
AnchorPoint: "above" 342 442 basechar 0
LayerCount: 2
Fore
SplineSet
53 52 m 0
 53 78 71 105 101 105 c 0
 121 105 135 90 135 72 c 0xf9
 135 53 123 34 96 25 c 1
 112 16 127 12 140 12 c 0
 218 12 234 141 270 287 c 0
 275 309 282 332 282 355 c 0
 282 394 262 419 233 419 c 0
 187 419 141 369 118 303 c 0
 114 292 112 278 97 278 c 0
 90 278 83 282 83 291 c 0
 83 315 137 442 236 442 c 2
 237 442 l 1
 289 441 317 410 333 373 c 1
 349 402 380 442 431 442 c 0
 466 442 517 424 517 379 c 0
 517 346 491 326 468 326 c 0xf6
 450 326 435 339 435 358 c 0xf6
 435 377 447 398 473 405 c 1
 462 413 448 419 430 419 c 0
 412 419 366 409 340 304 c 0
 293 113 288 103 288 74 c 0
 288 40 305 12 337 12 c 0
 383 12 430 61 452 128 c 0
 457 141 458 153 473 153 c 0
 480 153 487 149 487 140 c 0
 487 115 432 -11 334 -11 c 0
 303 -11 258 3 238 57 c 1
 220 30 192 -11 139 -11 c 0
 101 -11 53 8 53 52 c 0
EndSplineSet
EndChar

StartChar: y
Encoding: 121 121 130
Width: 485
Flags: HW
TeX: 430 194
ItalicCorrection: 88
HStem: -206 23<156.051 237.872> -137 80<131.98 173.595> -11 23<237.528 310.712> 393 29<153.237 217.35>
VStem: 98 84<-128.357 -66.9028> 154 61<28.8994 202.799> 220 82<339.761 422.938>
DStem2: 297.487 -206 362.984 -206 0.242599 0.970127<116.518 239.265 251.218 643.061>
AnchorPoint: "affricate-below" 436 -194 basechar 0
AnchorPoint: "affricate-above" 659 694 basechar 0
AnchorPoint: "below" 180 -194 basechar 0
AnchorPoint: "above" 377 442 basechar 0
LayerCount: 2
Fore
SplineSet
98 -119 m 0
 98 -74 126 -57 148 -57 c 0
 168 -57 182 -71 182 -89 c 0xfa
 182 -102 174 -135 131 -137 c 1
 144 -173 170 -183 194 -183 c 0
 254 -183 311 -122 343 -24 c 0
 348 -8 352 9 356 26 c 1
 330 4 306 -11 266 -11 c 0
 218 -11 154 11 154 104 c 0xf6
 154 178 220 362 220 375 c 0
 220 398 167 384 155 393 c 0
 149 397 150 406 153 412 c 0
 158 420 167 421 175 422 c 0
 264 430 275 431 286 431 c 2
 287 431 l 2
 298 431 302 427 302 418 c 0
 302 407 297 389 290 361 c 0
 287 351 286 340 274 334 c 1
 238 213 215 136 215 87 c 0xf6
 215 38 235 12 270 12 c 0
 322 12 362 65 371 87 c 0
 375 97 376 108 379 118 c 2
 445 379 l 2
 447 387 452 430 487 430 c 0
 502 430 514 419 514 403 c 0
 514 397 512 393 511 387 c 2
 419 18 l 2
 370 -177 239 -206 194 -206 c 0
 139 -206 98 -171 98 -119 c 0
EndSplineSet
EndChar

StartChar: z
Encoding: 122 122 131
Width: 409
Flags: HW
TeX: 430 0
ItalicCorrection: 122
HStem: -11 64<233.59 346.224> 63 23<154.412 197.022> 344 23<342.691 369> 377 65<201.704 305.527>
VStem: 398 33<104.689 151.946>
AnchorPoint: "affricate-below" 360 -194 basechar 0
AnchorPoint: "affricate-above" 583 694 basechar 0
AnchorPoint: "below" 229 0 basechar 0
AnchorPoint: "above" 339 442 basechar 0
LayerCount: 2
Fore
SplineSet
62 -0 m 0
 62 5 64 8 74 24 c 0
 148 142 238 200 369 344 c 1
 318 345 291 377 249 377 c 0
 192 377 170 322 170 322 c 1
 167 318 162 316 157 316 c 0
 150 316 144 321 144 330 c 0
 144 352 189 442 259 442 c 0
 319 442 325 367 368 367 c 0
 401 367 422 422 434 435 c 0
 438 439 444 441 449 441 c 0
 454 441 462 439 462 431 c 0
 462 414 401 338 400 337 c 0
 327 250 247 190 154 85 c 1
 160 86 166 86 172 86 c 0
 220 86 249 53 291 53 c 0
 334 53 380 88 398 132 c 0
 401 140 403 151 414 152 c 0
 422 153 433 150 431 137 c 0
 425 94 365 -11 282 -11 c 0
 221 -11 216 63 170 63 c 0
 127 63 98 4 89 -5 c 0
 85 -9 81 -11 76 -11 c 0
 68 -11 62 -6 62 -0 c 0
EndSplineSet
EndChar

StartChar: braceleft
Encoding: 123 123 132
Width: 511
Flags: HW
TeX: 749 249
ItalicCorrection: 147
HStem: -250 21<309.374 357.841> 717 33<507.413 601.429>
VStem: 191 64<-198.225 -46.7741> 258 64<55.0772 208.993>
DStem2: 312 363 374 352 0.2859 0.958259<-55.1988 358.527>
LayerCount: 2
Fore
SplineSet
155 249 m 0
 155 264 173 260 201 267 c 0
 246 279 294 315 312 363 c 0
 316 374 314 363 374 604 c 0
 380 627 387 671 447 710 c 0
 489 737 544 750 586 750 c 0
 601 750 603 743 603 739 c 0
 603 723 576 730 540 717 c 0
 451 684 441 610 438 600 c 0
 376 352 379 363 374 352 c 0
 351 297 300 267 238 249 c 1
 299 228 322 191 322 152 c 0
 322 113 255 -110 255 -145 c 0
 255 -225 350 -228 352 -229 c 0
 356 -231 358 -235 358 -238 c 0
 358 -244 352 -250 339 -250 c 0
 296 -250 191 -229 191 -143 c 0
 191 -105 258 118 258 154 c 0
 258 201 223 230 182 237 c 0
 172 239 155 237 155 249 c 0
EndSplineSet
EndChar

StartChar: bar
Encoding: 124 124 133
Width: 307
Flags: HW
TeX: 749 249
ItalicCorrection: 105
DStem2: 69.2473 -249 111.248 -249 0.242599 0.970127<22.2841 1016.58>
LayerCount: 2
Fore
SplineSet
76 -228 m 0
 76 -222 78 -216 79 -210 c 2
 312 720 l 2
 313 724 317 749 335 749 c 0
 344 749 354 740 354 728 c 0
 354 721 355 727 314 564 c 2
 119 -218 l 2
 116 -228 112 -249 95 -249 c 0
 83 -249 76 -239 76 -228 c 0
EndSplineSet
EndChar

StartChar: braceright
Encoding: 125 125 134
Width: 511
Flags: HW
TeX: 749 249
ItalicCorrection: 22
HStem: -250 33<33.2431 126.718> 729 21<279.189 325.461>
VStem: 313 64<291.073 444.934> 380 64<545.921 697.418>
DStem2: 197 -100 247 -146 0.258675 0.965964<-82.6132 317.824>
LayerCount: 2
Fore
SplineSet
32 -239 m 0
 32 -222 53 -232 94 -217 c 0
 182 -184 194 -111 197 -100 c 0
 259 147 256 137 261 148 c 0
 284 203 335 232 397 251 c 1
 362 262 313 290 313 349 c 0
 313 388 380 608 380 644 c 0
 380 724 285 728 283 729 c 0
 277 732 274 740 279 745 c 0
 283 749 289 750 295 750 c 0
 340 750 444 728 444 642 c 0
 444 603 377 383 377 346 c 0
 377 296 416 269 453 263 c 0
 463 261 480 262 480 250 c 0
 480 235 458 240 433 233 c 0
 385 220 341 186 323 138 c 0
 305 89 263 -114 247 -146 c 0
 211 -220 113 -250 49 -250 c 0
 34 -250 32 -243 32 -239 c 0
EndSplineSet
EndChar

StartChar: asciitilde
Encoding: 126 126 135
Width: 613
Flags: HW
TeX: 661 0
ItalicCorrection: 115
HStem: 566 36<494.045 589.656> 632 36<331.408 425.915>
LayerCount: 2
Fore
SplineSet
248 577 m 0
 248 590 326 668 390 668 c 0
 455 668 489 602 542 602 c 0
 595 602 643 657 656 664 c 0
 664 668 672 664 672 656 c 0
 672 649 665 643 661 639 c 0
 636 614 582 566 530 566 c 0
 465 566 432 632 376 632 c 0
 319 632 274 569 257 569 c 0
 252 569 248 572 248 577 c 0
EndSplineSet
EndChar

StartChar: Abreve
Encoding: 258 258 137
Width: 743
Flags: HW
TeX: 891 0
HStem: 0 31<615.536 689.897> 1 23<439.026 499.084> 230 30<307 515> 696 20<540 558.5> 753 36<500.552 636.234>
VStem: 59 145<9 75.5> 449 23<824.504 888.565> 528 162<12 75> 696 32<840.386 886.961>
DStem2: 190 113 289 230 0.493698 0.869633<-33.9594 150.623 185.599 561.797> 568 688 493 587 0.0690778 -0.997611<95.5779 423.316 453.383 610.51>
AnchorPoint: "below" 370 0 basechar 0
AnchorPoint: "above" 584 858 basechar 0
LayerCount: 2
Fore
SplineSet
449 854 m 0
 449 872 452 889 463 889 c 0
 471 889 473 884 473 875 c 0
 473 871 472 865 472 860 c 0x3f80
 472 809 522 789 565 789 c 0
 614 789 671 815 696 858 c 0
 707 876 707 889 718 889 c 0
 722 889 728 887 728 878 c 0
 728 847 665 753 562 753 c 0
 498 753 449 793 449 854 c 0
EndSplineSet
Refer: 74 65 S 1 0 0 1 0 0 3
AlternateSubs2: "Stilistic set 01 subtable" Abreve.vn
AlternateSubs2: "Latin alternatives subtable" Abreve.vn
Substitution2: "Latin Vietnamese substitutions subtable" Abreve.vn
EndChar

StartChar: Aogonek
Encoding: 260 260 138
Width: 743
Flags: HW
TeX: 688 194
HStem: -216 44<520.513 603.74> 0 34<613.643 689.98> 1 25<440.086 506.077> 230 30<307 515> 696 20G<539.5 557.5>
VStem: 59 145<9 75.5> 458 48<-157.966 -68.8385> 528 162<9.5 80>
DStem2: 191 115 289 230 0.495157 0.868803<-36.1327 148.438 183.415 559.613> 568 692 493 587 0.0685779 -0.997646<99.6095 427.348 457.415 615.048>
AnchorPoint: "above" 546 705 basechar 0
LayerCount: 2
Fore
SplineSet
59 14 m 0
 59 55 121 -8 191 115 c 2
 517 687 l 2
 522 697 530 716 549 716 c 0
 566 716 567 703 568 692 c 2
 610 81 l 2
 612 59 609 39 634 34 c 0
 663 28 690 37 690 17 c 0
 690 2 678 0 662 0 c 0xdf
 647 0 627 3 612 3 c 0
 568 3 506 -63 506 -111 c 0
 506 -145 532 -172 564 -172 c 0
 607 -172 627 -129 638 -124 c 0
 646 -120 655 -126 652 -137 c 0
 648 -150 607 -216 541 -216 c 0
 497 -216 458 -183 458 -134 c 0
 458 -79 502 -34 553 3 c 1
 494 3 469 1 457 1 c 0
 443 1 440 6 440 12 c 0
 440 18 443 24 445 26 c 0
 456 36 482 26 510 40 c 0
 525 47 528 57 528 72 c 0
 528 88 525 104 517 230 c 1
 289 230 l 1
 226 118 204 86 204 65 c 0
 204 26 260 38 260 18 c 0
 260 15 258 12 256 8 c 0
 252 2 248 1 237 1 c 0
 220 1 203 3 151 3 c 0
 116 3 94 1 80 1 c 0xbf
 64 1 59 4 59 14 c 0
307 260 m 1x9f
 515 260 l 1
 493 587 l 1
 307 260 l 1x9f
EndSplineSet
Ligature2: "Latin ligatures subtable" A uni0328
EndChar

StartChar: Ccaron
Encoding: 268 268 140
Width: 715
Flags: HW
TeX: 891 0
ItalicCorrection: 145
HStem: -22 31<339.816 478.744> 674 31<500.48 640.08> 800 62<582.879 647.02>
VStem: 149 88<130 344.908> 661 35<188.171 248.761> 719 91<462.212 696.5>
AnchorPoint: "below" 400 0 basechar 0
AnchorPoint: "above" 619 910 basechar 0
LayerCount: 2
Fore
SplineSet
497 920 m 0
 497 925 501 930 507 930 c 0
 522 930 604 862 621 862 c 0
 634 862 752 930 767 930 c 0
 772 930 777 927 777 921 c 0
 777 914 771 908 762 902 c 0
 643 819 619 800 610 800 c 0
 600 800 589 815 581 823 c 0
 498 912 497 911 497 920 c 0
EndSplineSet
Refer: 76 67 S 1 0 0 1 0 0 3
EndChar

StartChar: Dcaron
Encoding: 270 270 141
Width: 755
Flags: HW
TeX: 891 0
ItalicCorrection: 94
HStem: 0 31<63.1642 159.344 244.006 453.968> 652 31<226.094 308.692 393.112 602.038> 800 62<510.879 575.02>
VStem: 691 83<336.444 554.668>
DStem2: 151.993 0 230.996 0 0.242599 0.970127<64.2652 651.905>
AnchorPoint: "below" 345 0 basechar 0
AnchorPoint: "above" 578 932 basechar 0
LayerCount: 2
Fore
SplineSet
425 920 m 0
 425 925 429 930 435 930 c 0
 450 930 532 862 549 862 c 0
 562 862 680 930 695 930 c 0
 700 930 705 927 705 921 c 0
 705 914 699 908 690 902 c 0
 571 819 547 800 538 800 c 0
 528 800 517 815 509 823 c 0
 426 912 425 911 425 920 c 0
EndSplineSet
Refer: 77 68 S 1 0 0 1 0 0 3
EndChar

StartChar: Ecaron
Encoding: 282 282 142
Width: 678
Flags: HW
TeX: 891 0
ItalicCorrection: 120
HStem: 0 31<62.0844 150.435 245.009 505.519> 338 31<325 471.759> 650 30<228.188 306.489 394.215 653.875> 800 62<496.879 561.02>
VStem: 526 33<421.052 483.752> 688 54<489.855 626.071>
DStem2: 150.994 0 232.476 0 0.242599 0.970127<125.467 368.176 400.19 649.677>
AnchorPoint: "below" 342 0 basechar 0
AnchorPoint: "above" 576 935 basechar 0
LayerCount: 2
Fore
SplineSet
411 920 m 0
 411 925 415 930 421 930 c 0
 436 930 518 862 535 862 c 0
 548 862 666 930 681 930 c 0
 686 930 691 927 691 921 c 0
 691 914 685 908 676 902 c 0
 557 819 533 800 524 800 c 0
 514 800 503 815 495 823 c 0
 412 912 411 911 411 920 c 0
EndSplineSet
Refer: 78 69 S 1 0 0 1 0 0 3
EndChar

StartChar: Eogonek
Encoding: 280 280 143
Width: 678
Flags: HW
TeX: 688 194
ItalicCorrection: 120
HStem: -216 43<422.433 505.371> -0 31<245.007 451 469.179 503.717> 338 31<325 471.759> 650 30<224.09 306.64 395.117 653.21>
VStem: 359 49<-158.601 -69.271> 526 33<421.052 483.752>
DStem2: 97.2283 -216 178.48 -216 0.242599 0.970127<288.311 590.767 622.781 872.268>
AnchorPoint: "above" 490 705 basechar 0
LayerCount: 2
Fore
SplineSet
62 14 m 0
 62 48 132 17 157 46 c 0
 163 53 166 59 175 95 c 2
 302 603 l 2
 305 615 307 624 307 631 c 0
 307 647 294 649 247 650 c 0
 237 650 224 649 224 663 c 0
 224 679 238 680 247 680 c 2
 722 680 l 2
 734 680 742 677 742 664 c 0
 742 655 743 664 719 477 c 0
 717 461 709 456 703 456 c 0
 700 456 688 456 688 471 c 0
 688 484 694 506 694 548 c 0
 694 642 642 650 543 650 c 2
 430 650 l 1
 391 649 392 637 376 572 c 2
 325 369 l 1
 403 369 l 2
 475 369 504 379 526 460 c 0
 528 470 531 484 545 484 c 0
 556 484 559 478 559 471 c 0
 559 465 557 457 556 452 c 0
 498 221 503 227 491 223 c 0
 482 220 472 224 472 235 c 0
 472 248 481 271 481 295 c 0
 481 335 448 338 396 338 c 2
 317 338 l 1
 249 66 l 2
 247 56 245 49 245 44 c 0
 245 32 254 31 273 31 c 2
 374 31 l 2
 552 31 584 74 654 241 c 0
 660 254 666 257 672 257 c 0
 683 257 685 252 685 245 c 0
 685 237 681 227 681 227 c 1
 592 9 593 8 585 3 c 0
 578 -1 568 0 558 -0 c 2
 509 -0 l 2
 472 0 408 -58 408 -111 c 0
 408 -146 434 -173 465 -173 c 0
 512 -173 529 -123 545 -123 c 0
 547 -123 554 -125 554 -132 c 0
 554 -148 510 -216 443 -216 c 0
 399 -216 359 -184 359 -134 c 0
 359 -75 415 -24 451 -0 c 1
 84 -0 l 2
 76 0 62 0 62 14 c 0
EndSplineSet
EndChar

StartChar: Gbreve
Encoding: 286 286 144
Width: 773
Flags: HW
TeX: 891 0
ItalicCorrection: 87
HStem: -22 31<341.125 485.363> 241 31<506.237 608.985 700.666 765.504> 674 31<502.96 667.9> 753 36<528.307 662.133>
VStem: 149 88<129.818 345.732> 475 24<823.797 888.411> 732 23<854.953 888.858>
LayerCount: 2
Fore
SplineSet
149 244 m 0
 149 477 360 705 573 705 c 0
 667 705 715 669 729 657 c 1
 778 693 784 698 791 701 c 0
 800 706 810 703 810 692 c 0
 810 686 811 691 777 556 c 0
 774 545 772 535 758 535 c 0
 728 535 763 582 712 631 c 0
 678 664 625 674 587 674 c 0
 484 674 388 606 330 518 c 0
 271 429 237 291 237 207 c 0
 237 58 335 9 412 9 c 0
 483 9 559 49 583 111 c 0
 587 122 610 208 610 219 c 0
 610 232 603 241 547 241 c 2
 532 241 l 2
 515 241 506 245 506 254 c 0
 506 257 507 260 509 263 c 0
 513 270 516 272 529 272 c 0
 542 272 580 269 656 269 c 0
 711 269 737 271 749 271 c 0
 762 271 766 266 766 260 c 0
 766 253 760 245 755 243 c 0
 742 238 714 246 700 229 c 0
 689 215 672 130 643 19 c 0
 640 9 636 2 630 2 c 0
 617 2 598 37 589 61 c 1
 541 3 462 -22 394 -22 c 0
 247 -22 149 90 149 244 c 0
475 854 m 0
 475 872 479 889 490 889 c 0
 498 889 500 884 500 875 c 0
 500 871 499 865 499 860 c 0
 499 809 550 789 593 789 c 0
 647 789 709 818 732 875 c 0
 734 881 738 889 745 889 c 0
 749 889 755 887 755 878 c 0
 755 847 692 753 589 753 c 0
 528 753 475 791 475 854 c 0
EndSplineSet
EndChar

StartChar: Lcaron
Encoding: 317 317 146
Width: 627
Flags: HW
TeX: 891 0
HStem: -0 31<61.1619 158.051 246.004 442.416> 652 31<224.094 306.608 399.066 515.839> 673 105<584.789 654.3>
VStem: 567 115<691.608 760.026> 598 24<230.113 256.855>
DStem2: 150.744 -0 232.994 -0 0.242599 0.970127<66.1619 650.477>
LayerCount: 2
Fore
SplineSet
545 554 m 0
 545 571 623 591 655 690 c 1
 640 679 629 673 611 673 c 0
 585 673 567 689 567 714 c 0
 567 744 594 778 632 778 c 0
 662 778 682 755 682 719 c 0xb0
 682 636 582 545 555 545 c 0
 549 545 545 549 545 554 c 0
EndSplineSet
Refer: 85 76 S 1 0 0 1 0 -0 3
EndChar

StartChar: Lslash
Encoding: 321 321 147
Width: 627
Flags: HW
TeX: 688 0
HStem: 0 31<61.0652 157.613 245.005 438.582> 652 31<224.25 307.583 397.806 515.839>
DStem2: 150.979 0 232.245 0 0.242599 0.970127<65.7702 305.115 327.426 427.804 447.731 592.736> 237 341 225 296 0.803557 0.595228<-130.347 -36.4279 125.839 322.245>
LayerCount: 2
Fore
SplineSet
61 14 m 0
 61 32 79 32 100 32 c 2
 103 32 l 2
 124 32 148 32 160 49 c 0
 167 60 164 51 225 296 c 1
 164 251 155 243 147 243 c 0
 139 243 134 249 134 257 c 0
 134 269 151 279 237 341 c 1
 241 359 308 622 308 633 c 0
 308 663 243 645 229 656 c 0
 226 658 224 661 224 665 c 0
 224 673 231 683 244 683 c 0
 256 683 294 680 368 680 c 0
 446 680 484 683 497 683 c 0
 507 683 516 681 516 669 c 0
 515 652 504 652 481 652 c 2
 476 652 l 2
 399 652 392 641 383 603 c 0
 345 453 341 434 337 415 c 1
 480 521 l 2
 488 527 494 529 499 529 c 0
 506 529 509 524 511 517 c 0
 513 506 502 499 495 494 c 0
 306 355 327 380 318 342 c 2
 250 71 l 2
 247 59 245 50 245 44 c 0
 245 33 252 31 270 31 c 2
 350 31 l 2
 572 31 569 245 603 256 c 0
 611 259 622 254 622 244 c 0
 622 238 621 240 543 19 c 0
 538 4 535 0 520 0 c 2
 84 0 l 2
 71 0 61 2 61 14 c 0
EndSplineSet
EndChar

StartChar: Ncaron
Encoding: 327 327 149
Width: 743
Flags: HW
TeX: 891 0
ItalicCorrection: 163
HStem: 1 31<62.1436 140.93> 652 31<227.19 313 773.954 850.925> 800 62<546.879 611.02>
VStem: 62 144<8.5 78.5> 706 145<605 674>
DStem2: 150.989 0 185.493 0 0.242599 0.970127<84.6663 642.239> 409 653 340 615 0.339839 -0.940484<12.2895 539.356> 556.49 0 589.998 0 0.242599 0.970127<150.496 627.593>
LayerCount: 2
Fore
SplineSet
461 920 m 0
 461 925 465 930 471 930 c 0
 486 930 568 862 585 862 c 0
 598 862 716 930 731 930 c 0
 736 930 741 927 741 921 c 0
 741 914 735 908 726 902 c 0
 607 819 583 800 574 800 c 0
 564 800 553 815 545 823 c 0
 462 912 461 911 461 920 c 0
EndSplineSet
Refer: 87 78 S 1 0 0 1 -0 0 3
EndChar

StartChar: Eng
Encoding: 330 330 150
Width: 780
Flags: HW
TeX: 688 0
ItalicCorrection: 170
HStem: -22 23<483.684 565.11> 3 28<62.214 157.358> 66 96<445.409 501.579> 652 31<225.095 307.643> 679 31<520.916 658.641>
VStem: 308 91<594.533 674> 413 102<79.9713 145.568> 744 80<406.599 602.797>
DStem2: 145.992 -22 226.993 -22 0.242599 0.970127<95.6423 658.114>
LayerCount: 2
Fore
SplineSet
62 14 m 0
 62 30 74 31 86 31 c 2
 92 31 l 1
 161 33 161 39 173 86 c 2
 302 604 l 2
 305 617 308 626 308 633 c 0
 308 651 288 652 267 652 c 2
 258 652 l 2xf7
 232 652 225 655 225 666 c 0
 225 673 230 683 248 683 c 0xf7
 263 683 293 680 358 680 c 0
 370 680 379 682 385 682 c 0
 392 682 399 679 399 669 c 0
 399 661 395 647 387 616 c 1
 441 663 516 710 615 710 c 0
 733 710 824 631 824 513 c 0
 824 474 814 442 806 410 c 0
 731 108 736 128 727 108 c 0
 691 31 609 -22 531 -22 c 0
 464 -22 413 21 413 86 c 0
 413 144 450 162 474 162 c 0
 502 162 515 144 515 124 c 0
 515 102 498 66 453 66 c 2
 445 66 l 1
 460 12 500 1 528 1 c 0
 555 1 627 25 662 163 c 2
 725 415 l 2
 733 448 744 477 744 516 c 0
 744 612 682 679 589 679 c 0xef
 509 679 438 634 390 580 c 0
 371 559 372 555 367 537 c 2
 251 74 l 2
 249 65 247 58 247 51 c 0
 247 15 330 47 330 18 c 0
 330 9 326 0 310 0 c 0
 298 0 263 3 192 3 c 0
 137 3 105 1 86 1 c 0
 66 1 62 4 62 14 c 0
EndSplineSet
EndChar

StartChar: Ohungarumlaut
Encoding: 336 336 151
Width: 766
Flags: HW
TeX: 855 0
ItalicCorrection: 94
HStem: -22 27<327.463 445.189> 680 25<490.161 608.349> 750 120
VStem: 147 91<121.13 356.535> 449 211 701 86<342.563 561.772>
AnchorPoint: "below" 383 0 basechar 0
AnchorPoint: "above" 595 851 basechar 0
LayerCount: 2
Fore
SplineSet
601 764 m 0
 601 778 608 779 757 861 c 0
 762 864 774 871 786 871 c 0
 803 871 813 857 813 843 c 0
 813 820 793 811 777 805 c 0
 633 755 622 750 615 750 c 0
 608 750 601 756 601 764 c 0
EndSplineSet
Refer: 266 -1 S 1 0 0 1 115 252 2
Refer: 88 79 S 1 0 0 1 0 -0 3
EndChar

StartChar: Rcaron
Encoding: 344 344 153
Width: 729
Flags: HW
TeX: 891 0
ItalicCorrection: 38
HStem: -22 23<590.164 643.003> 0 31<246.486 327.852> 1 37<63.9521 165.073> 330 23<320 472.913> 652 31<226.065 308.736 392.207 579.906> 800 62<494.879 559.02>
VStem: 484 96<18.7307 189.551> 515 78<141.028 290.257> 627 90<462.15 605.425> 687 35<44.7264 103.621>
DStem2: 146.493 -22 225.975 -22 0.242599 0.970127<139.287 382.122 405.89 674.536>
AnchorPoint: "below" 306 0 basechar 0
AnchorPoint: "above" 539 932 basechar 0
LayerCount: 2
Fore
SplineSet
409 920 m 0
 409 925 413 930 419 930 c 0
 434 930 516 862 533 862 c 0x1c
 546 862 664 930 679 930 c 0
 684 930 689 927 689 921 c 0
 689 914 683 908 674 902 c 0
 555 819 531 800 522 800 c 0
 512 800 501 815 493 823 c 0
 410 912 409 911 409 920 c 0
EndSplineSet
Refer: 91 82 S 1 0 0 1 0 0 3
EndChar

StartChar: Scaron
Encoding: 352 352 155
Width: 562
Flags: HW
TeX: 891 0
ItalicCorrection: 119
HStem: -22 31<226.065 362.873> 677 28<371.038 489.276> 800 62<456.879 521.02>
VStem: 74 78<-13.5 181.715> 199 67<442.014 560.536> 470 67<139.361 268.237> 546 32<456.058 533.28> 551 80<503.237 696.5>
AnchorPoint: "below" 305 0 basechar 0
AnchorPoint: "above" 482 910 basechar 0
LayerCount: 2
Fore
SplineSet
371 920 m 0
 371 925 375 930 381 930 c 0
 396 930 478 862 495 862 c 0xfc
 508 862 626 930 641 930 c 0
 646 930 651 927 651 921 c 0
 651 914 645 908 636 902 c 0
 517 819 493 800 484 800 c 0
 474 800 463 815 455 823 c 0
 372 912 371 911 371 920 c 0
EndSplineSet
Refer: 92 83 S 1 0 0 1 0 0 3
EndChar

StartChar: Scedilla
Encoding: 350 350 156
Width: 562
Flags: HW
TeX: 688 170
ItalicCorrection: 119
HStem: -192 22<154.099 272> -21 21G<81 90> 677 28<371.244 489.058>
VStem: 74 78<-12.5 181.715> 199 67<443.07 560.497> 321 65<-146.065 -77.4422> 470 67<140.902 268.182> 551 80<503.736 696.5>
LayerCount: 2
Fore
SplineSet
74 -9 m 0
 74 1 128 208 128 208 c 2
 132 223 139 227 145 227 c 0
 149 227 159 225 159 215 c 0
 159 203 152 180 152 149 c 0
 152 37 239 9 302 9 c 0
 392 9 470 108 470 200 c 0
 470 250 446 278 423 290 c 0
 403 300 304 324 276 337 c 0
 246 351 199 389 199 467 c 0
 199 588 311 705 431 705 c 0
 508 705 543 666 560 637 c 1
 598 684 611 704 621 704 c 0
 625 704 631 701 631 692 c 0
 631 688 579 476 578 474 c 0
 574 460 567 456 561 456 c 0
 555 456 545 459 545 471 c 0
 545 481 551 496 551 536 c 0
 551 661 472 677 429 677 c 0
 346 677 266 591 266 505 c 0
 266 369 443 428 509 334 c 0
 529 306 537 272 537 238 c 0
 537 123 446 3 333 -19 c 1
 325 -53 l 1
 353 -59 386 -72 386 -108 c 0
 386 -175 296 -192 187 -192 c 2
 178 -192 l 2
 165 -192 156 -192 154 -184 c 0
 153 -179 155 -170 176 -170 c 2
 193 -170 l 1
 233 -169 321 -164 321 -108 c 0
 321 -88 303 -78 291 -74 c 0
 277 -70 260 -73 260 -57 c 0
 260 -50 265 -35 268 -20 c 1
 191 -11 162 27 147 47 c 1
 107 -3 96 -21 84 -21 c 0
 78 -21 74 -16 74 -9 c 0
EndSplineSet
EndChar

StartChar: Tcaron
Encoding: 356 356 157
Width: 715
Flags: HW
TeX: 891 0
ItalicCorrection: 133
HStem: 0 31<187.313 319.822 414.491 533.922> 647 30<311.179 472.993 558.564 725.968> 800 62<532.879 597.02>
VStem: 753 51<528.161 669>
DStem2: 316.245 0 398.245 0 0.242599 0.970127<76.0872 652.812>
AnchorPoint: "below" 357 0 basechar 0
AnchorPoint: "above" 591 938 basechar 0
LayerCount: 2
Fore
SplineSet
447 920 m 0
 447 925 451 930 457 930 c 0
 472 930 554 862 571 862 c 0
 584 862 702 930 717 930 c 0
 722 930 727 927 727 921 c 0
 727 914 721 908 712 902 c 0
 593 819 569 800 560 800 c 0
 550 800 539 815 531 823 c 0
 448 912 447 911 447 920 c 0
EndSplineSet
Refer: 93 84 S 1 0 0 1 0 0 3
EndChar

StartChar: Tcommaaccent
Encoding: 354 354 158
Width: 715
Flags: HW
TeX: 688 170
ItalicCorrection: 133
HStem: -192 22<205.004 324.129> 0 31<187.463 319.62 414.266 527.67> 647 30<307.817 472.995 559.297 725.533>
VStem: 372 65<-146.453 -76.8983> 753 51<528.185 668.5>
DStem2: 276.236 -192 341.24 -192 0.242599 0.970127<158.941 201.005 272.196 848.783>
LayerCount: 2
Fore
SplineSet
176 466 m 0
 176 476 240 661 240 661 c 2
 245 675 251 677 265 677 c 2
 782 677 l 2
 797 677 804 675 804 662 c 0
 804 653 772 469 772 469 c 2
 769 457 763 453 756 453 c 0
 752 453 742 455 742 467 c 0
 742 483 753 527 753 571 c 0
 753 612 745 647 647 647 c 2
 609 647 l 2
 563 647 560 645 548 600 c 2
 420 87 l 2
 416 72 413 62 413 54 c 0
 413 36 428 31 502 31 c 0
 512 31 522 33 529 28 c 0
 537 22 535 9 528 4 c 0
 521 -2 512 1 501 1 c 0
 490 1 434 3 390 3 c 1
 376 -53 l 1
 385 -55 437 -65 437 -109 c 0
 437 -124 432 -165 360 -182 c 0
 317 -192 274 -192 224 -192 c 0
 211 -192 205 -186 205 -181 c 0
 205 -175 211 -170 225 -170 c 2
 242 -170 l 2
 353 -170 372 -132 372 -108 c 0
 372 -62 312 -81 312 -57 c 0
 312 -48 316 -30 325 3 c 1
 250 3 220 0 206 0 c 0
 192 0 187 6 187 12 c 0
 187 19 192 26 195 28 c 0
 199 30 204 31 209 31 c 2
 227 31 l 1
 310 32 325 36 336 78 c 2
 467 603 l 2
 471 618 473 628 473 634 c 0
 473 646 466 647 432 647 c 2
 397 647 l 2
 274 647 253 599 211 479 c 0
 206 466 203 453 189 453 c 0
 182 453 176 457 176 466 c 0
EndSplineSet
EndChar

StartChar: Uhungarumlaut
Encoding: 368 368 159
Width: 743
Flags: HW
TeX: 855 0
ItalicCorrection: 163
HStem: -22 31<328.829 452.83> 639 43<752.474 849.01> 652 31<225.078 307.51 636.189 698.498> 750 120
VStem: 201 75<70.8501 253.977> 437 211 709 142<604 674>
DStem2: 145.481 -22 227.983 -22 0.242599 0.970127<196.379 673.707> 553.73 -22 585.23 -22 0.242599 0.970127<163.129 649.363>
AnchorPoint: "below" 386 0 basechar 0
AnchorPoint: "above" 589 873 basechar 0
LayerCount: 2
Fore
SplineSet
589 764 m 0
 589 778 597 780 745 861 c 0
 750 864 762 871 774 871 c 0x9e
 791 871 801 857 801 843 c 0
 801 820 781 811 765 805 c 0
 621 755 610 750 603 750 c 0
 596 750 589 756 589 764 c 0
EndSplineSet
Refer: 266 -1 S 1 0 0 1 103 252 2
Refer: 94 85 S 1 0 0 1 0 0 3
EndChar

StartChar: Uring
Encoding: 366 366 160
Width: 743
Flags: HW
TeX: 891 0
ItalicCorrection: 163
HStem: -22 31<328.829 452.83> 639 43<752.474 849.01> 652 31<225.078 307.51 636.189 698.498> 730 23<547.254 624.616> 891 22<579.172 653.962>
VStem: 201 75<70.8501 253.977> 507 29<762.043 849.199> 666 30<793.121 882.261> 709 142<604 674>
DStem2: 145.481 -22 227.983 -22 0.242599 0.970127<196.379 673.707> 553.73 -22 585.23 -22 0.242599 0.970127<163.129 649.363>
LayerCount: 2
Fore
SplineSet
507 800 m 0
 507 855 562 913 624 913 c 0
 665 913 696 885 696 843 c 0
 696 786 638 730 579 730 c 0
 538 730 507 758 507 800 c 0
536 794 m 0
 536 768 552 753 584 753 c 0
 660 753 666 837 666 849 c 0x9f80
 666 875 651 891 619 891 c 0
 544 891 536 809 536 794 c 0
EndSplineSet
Refer: 94 85 S 1 0 0 1 0 -0 3
EndChar

StartChar: Zcaron
Encoding: 381 381 163
Width: 613
Flags: HW
TeX: 891 0
ItalicCorrection: 145
HStem: 0 33<177 426.707> 652 31<374.505 608> 800 62<475.879 540.02>
DStem2: 97 43 177 33 0.642779 0.766052<43.7618 794.986>
AnchorPoint: "below" 308 0 basechar 0
AnchorPoint: "above" 542 932 basechar 0
LayerCount: 2
Fore
SplineSet
390 920 m 0
 390 925 394 930 400 930 c 0
 415 930 497 862 514 862 c 0
 527 862 645 930 660 930 c 0
 665 930 670 927 670 921 c 0
 670 914 664 908 655 902 c 0
 536 819 512 800 503 800 c 0
 493 800 482 815 474 823 c 0
 391 912 390 911 390 920 c 0
EndSplineSet
Refer: 99 90 S 1 0 0 1 0 0 3
EndChar

StartChar: IJ
Encoding: 306 306 165
Width: 845
Flags: HW
TeX: 688 0
ItalicCorrection: 140
HStem: -22 23<485.231 568.816> 0 33<57.2688 160.711 248.008 335.907> 66 96<447.228 501.859> 652 31<220.092 307.665 397.471 497.924 669.162 779.053>
VStem: 414 101<79.9713 146.125>
DStem2: 146.492 -22 227.741 -22 0.242599 0.970127<94.9803 674.11> 619.236 -22 697.987 -22 0.242599 0.970127<157.162 671.251>
LayerCount: 2
Fore
SplineSet
57 13 m 0
 57 36 80 29 123 33 c 0x78
 168 38 166 56 176 96 c 2
 296 577 l 2
 303 606 308 622 308 633 c 0
 308 649 296 651 249 652 c 0
 241 652 230 651 225 656 c 0
 222 658 220 662 220 666 c 0
 220 674 227 683 240 683 c 0
 244 683 249 682 253 682 c 0
 289 681 325 680 362 680 c 0
 432 680 467 683 479 683 c 0
 489 683 498 680 498 669 c 0
 498 645 472 654 433 650 c 0
 388 645 390 626 380 587 c 2
 260 107 l 2
 253 78 248 61 248 50 c 0
 248 34 259 32 307 31 c 0
 315 31 326 32 331 27 c 0
 334 24 336 21 336 18 c 0
 336 10 328 0 316 0 c 0x78
 312 0 307 1 303 1 c 0xb8
 271 2 238 3 196 3 c 0
 124 3 89 0 77 0 c 0
 67 0 57 2 57 13 c 0
414 86 m 0
 414 145 450 162 475 162 c 0
 497 162 515 147 515 124 c 0
 515 101 498 66 454 66 c 2
 446 66 l 1
 458 16 499 1 529 1 c 0
 580 1 633 59 656 130 c 0
 661 146 665 161 669 177 c 2
 777 610 l 2
 779 618 780 624 780 630 c 0
 780 648 766 651 696 652 c 1
 691 652 l 2
 678 652 669 656 669 665 c 0xb8
 669 670 671 683 690 683 c 0
 694 683 770 680 831 680 c 0
 887 680 915 682 924 682 c 0
 933 682 940 679 940 669 c 0
 940 640 891 662 870 642 c 0
 862 634 859 622 856 612 c 2
 745 166 l 2
 740 148 736 130 729 113 c 0
 699 41 619 -22 532 -22 c 0
 465 -22 414 21 414 86 c 0
EndSplineSet
Ligature2: "Latin Dutch ligatures subtable" I J
EndChar

StartChar: dcroat
Encoding: 273 273 167
Width: 511
Flags: HW
TeX: 688 0
ItalicCorrection: 103
HStem: -11 23<201.693 269.035 414.714 456.495> 419 23<302.755 368.749> 531 32<357.193 457 530 580.863> 655 37<412.548 480.424>
VStem: 107 68<51.6799 220.771> 481 77<587.185 685.116> 502 32<79.4231 152.952>
DStem2: 321.473 -11 386.992 -11 0.242599 0.970127<82.0929 348.27 406.133 558.688 607.441 661.894>
LayerCount: 2
Fore
SplineSet
107 144 m 0
 107 291 226 442 336 442 c 0
 387 442 410 405 420 383 c 1
 457 531 l 1
 380 531 l 2
 372 531 361 530 357 539 c 0
 356 541 355 543 355 545 c 0
 355 553 363 563 377 563 c 2
 465 563 l 1
 473 598 481 619 481 632 c 0
 481 662 430 646 415 655 c 0
 408 659 408 670 412 676 c 0
 418 685 418 683 523 692 c 0
 529 693 535 694 541 694 c 0
 554 694 558 688 558 680 c 0xfc
 558 677 540 601 530 563 c 1
 559 563 l 2
 569 563 581 562 581 549 c 0
 581 533 566 531 557 531 c 2
 522 531 l 1
 502 446 512 489 417 109 c 0
 412 90 408 72 408 51 c 0
 408 18 424 12 434 12 c 0
 475 12 495 109 502 135 c 0
 506 149 513 153 519 153 c 0
 530 153 534 146 534 139 c 0xfa
 534 135 533 130 532 127 c 0
 514 56 491 -11 431 -11 c 0
 398 -11 362 8 350 59 c 1
 323 29 281 -11 229 -11 c 0
 156 -11 107 54 107 144 c 0
175 100 m 0xf8
 175 64 186 12 231 12 c 0
 283 12 338 83 350 108 c 0
 352 112 405 312 405 328 c 0
 405 345 391 419 336 419 c 0
 304 419 272 389 251 358 c 0
 203 289 175 138 175 100 c 0xf8
EndSplineSet
AlternateSubs2: "Stilistic set 01 subtable" dcroat.vn
AlternateSubs2: "Latin alternatives subtable" dcroat.vn
Substitution2: "Latin Vietnamese substitutions subtable" dcroat.vn
EndChar

StartChar: section
Encoding: 167 167 168
Width: 460
Flags: HW
TeX: 688 194
HStem: -206 23<140.805 225.035> -115 63<108.195 141.225> 552 63<441.775 474.805> 683 23<357.718 443.32>
VStem: 77 68<-110.511 -57.4072> 147 43<184.527 298.562> 221 42<481.871 592.557> 319 43<-92.7787 20.3746> 393 43<202.233 315.94> 438 68<557.407 610.649>
LayerCount: 2
Fore
SplineSet
77 -109 m 0
 77 -60 104 -52 118 -52 c 0
 132 -52 145 -62 145 -78 c 0
 145 -93 134 -112 108 -115 c 1
 117 -176 161 -183 180 -183 c 0
 257 -183 319 -85 319 -30 c 0
 319 30 246 55 219 73 c 0
 171 106 147 155 147 210 c 0
 147 302 209 367 264 394 c 1
 236 426 221 461 221 506 c 0
 221 616 315 706 403 706 c 0
 460 706 506 667 506 609 c 0
 506 560 479 552 465 552 c 0
 451 552 438 562 438 578 c 0
 438 597 454 613 475 615 c 1
 468 675 422 683 403 683 c 0
 325 683 263 584 263 530 c 0
 263 472 338 444 360 430 c 0
 399 405 436 359 436 290 c 0
 436 210 386 140 320 106 c 1
 347 73 362 39 362 -6 c 0
 362 -116 268 -206 180 -206 c 0
 121 -206 77 -165 77 -109 c 0
190 234 m 0
 190 167 300 128 300 128 c 1
 327 128 393 207 393 266 c 0
 393 328 322 348 284 376 c 1
 225 348 190 273 190 234 c 0
EndSplineSet
EndChar

StartChar: aogonek
Encoding: 261 261 170
Width: 511
Flags: HW
TeX: 430 194
ItalicCorrection: 76
HStem: -216 39<352.807 437.072> -11 23<201.693 269.035 414.964 456.413> 419 23<300.321 368.832>
VStem: 107 68<51.2447 220.93> 288 48<-162.533 -78.4594> 501 33<78.2412 153.686>
DStem2: 268.977 -216 335.227 -216 0.242599 0.970127<294.677 559.882 617.744 645.458>
AnchorPoint: "above" 336 442 basechar 0
LayerCount: 2
Fore
SplineSet
107 144 m 0
 107 292 226 442 336 442 c 0
 379 442 402 416 420 383 c 1
 428 417 449 421 459 421 c 0
 476 421 487 409 487 395 c 0
 487 391 487 387 484 376 c 2
 418 115 l 2
 413 95 408 73 408 52 c 0
 408 18 424 12 434 12 c 0
 471 12 491 91 501 131 c 0
 505 148 513 154 520 154 c 0
 528 154 534 147 534 140 c 0
 534 131 517 57 491 22 c 0
 471 -5 449 -11 431 -11 c 0
 427 -11 424 -10 421 -10 c 1
 378 -38 336 -73 336 -117 c 0
 336 -153 367 -177 397 -177 c 0
 444 -177 456 -134 472 -134 c 0
 479 -134 482 -140 481 -146 c 0
 477 -164 437 -216 376 -216 c 0
 329 -216 288 -185 288 -138 c 0
 288 -86 341 -35 394 -3 c 1
 394 -2 l 1
 370 10 358 29 350 59 c 1
 323 29 281 -11 229 -11 c 0
 156 -11 107 52 107 144 c 0
175 100 m 0
 175 64 186 12 231 12 c 0
 283 12 338 83 350 108 c 0
 352 112 405 312 405 328 c 0
 405 345 391 419 336 419 c 0
 302 419 271 387 251 358 c 0
 203 289 175 138 175 100 c 0
EndSplineSet
EndChar

StartChar: dcaron
Encoding: 271 271 173
Width: 511
Flags: HW
TeX: 688 0
ItalicCorrection: 103
HStem: -11 23<201.693 269.035 414.931 456.981> 419 23<302.755 368.749> 631 105<615.944 686.3> 674 20<541 547>
VStem: 107 68<51.6799 220.771> 481 78<610.708 685.245> 503 31<84.7575 152.893> 599 115<649.608 718.593>
DStem2: 320.242 -11 386.49 -11 0.242599 0.970127<83.1302 348.569 406.431 635.332>
LayerCount: 2
Fore
SplineSet
576 513 m 0
 576 530 655 549 687 648 c 1
 672 637 661 631 643 631 c 0
 617 631 599 647 599 672 c 0
 599 702 625 736 663 736 c 0
 693 736 714 713 714 677 c 0xe9
 714 594 614 503 587 503 c 0
 581 503 576 508 576 513 c 0
EndSplineSet
Refer: 109 100 S 1 0 0 1 0 -0 3
EndChar

StartChar: eogonek
Encoding: 281 281 175
Width: 460
Flags: HW
TeX: 430 194
ItalicCorrection: 75
HStem: -216 41<274.202 355.38> -11 22<221.798 294.503> 230 23<205 326.904> 419 23<316.315 399.837>
VStem: 113 69<65.7954 228.47> 210 48<-161.338 -71.7926> 425 37<306.036 401.872>
AnchorPoint: "above" 362 442 basechar 0
LayerCount: 2
Fore
SplineSet
113 165 m 0
 113 345 258 442 362 442 c 0
 420 442 462 408 462 357 c 0
 462 318 439 266 358 244 c 0
 313 232 258 230 204 230 c 2
 199 230 l 1
 191 195 182 159 182 122 c 0
 182 73 200 11 259 11 c 0
 278 11 363 18 431 100 c 0
 437 107 444 117 451 118 c 0
 459 119 467 112 467 104 c 0
 467 94 450 73 428 54 c 0
 373 6 258 -32 258 -114 c 0
 258 -146 283 -175 316 -175 c 0
 362 -175 382 -124 396 -124 c 0
 399 -124 405 -125 405 -133 c 0
 405 -150 359 -216 295 -216 c 0
 251 -216 210 -184 210 -136 c 0
 210 -86 250 -40 296 -8 c 1
 283 -10 269 -11 256 -11 c 0
 170 -11 113 59 113 165 c 0
205 253 m 1
 324 253 425 274 425 358 c 0
 425 393 400 419 362 419 c 0
 331 419 241 397 205 253 c 1
EndSplineSet
EndChar

StartChar: gbreve
Encoding: 287 287 176
Width: 460
Flags: HW
TeX: 641 194
ItalicCorrection: 88
HStem: -206 23<104.129 224.839> 0 23<204.193 272.077> 419 23<300.39 369.565> 504 37<294.647 435.951>
VStem: 52 83<-165.676 -103.906> 109 69<62.478 233.584> 245 23<574.369 636.566> 406 81<305.081 398.849> 500 24<602.693 636.693>
DStem2: 273.232 -206 338.239 -206 0.242599 0.970127<81.4003 266.975 288.763 551.784 609.193 634.723>
LayerCount: 2
Fore
SplineSet
245 603 m 0
 245 620 248 637 259 637 c 0
 267 637 268 630 268 621 c 2
 268 610 l 2xf380
 268 554 327 541 362 541 c 0
 420 541 480 573 500 622 c 0
 502 628 507 637 514 637 c 0
 518 637 524 634 524 625 c 0
 524 595 463 504 359 504 c 0
 294 504 245 544 245 603 c 0
EndSplineSet
Refer: 112 103 S 1 0 0 1 0 0 3
EndChar

StartChar: lcaron
Encoding: 318 318 178
Width: 255
Flags: HW
TeX: 688 0
ItalicCorrection: 103
HStem: -11 23<159.619 201.511> 631 105<360.944 431.3> 674 20<285 291.5>
VStem: 93 60<16.5852 157.414> 226 78<615.002 685.131> 344 115<649.608 718.593>
DStem2: 66.7399 -11 132.492 -11 0.242599 0.970127<94.6383 663.031>
LayerCount: 2
Fore
SplineSet
322 513 m 0
 322 530 400 549 432 648 c 1
 417 637 406 631 388 631 c 0
 362 631 344 647 344 672 c 0
 344 702 370 736 408 736 c 0
 438 736 459 713 459 677 c 0xdc
 459 594 359 503 332 503 c 0
 326 503 322 508 322 513 c 0
EndSplineSet
Refer: 117 108 S 1 0 0 1 -0 0 3
EndChar

StartChar: lslash
Encoding: 322 322 179
Width: 319
Flags: HW
TeX: 688 0
ItalicCorrection: 103
HStem: -11 23<171.455 213.485> 674 20G<298 306>
VStem: 105 60<17.0297 159.867> 238 78<611.813 685.228> 261 30<89.3959 152.856>
AnchorPoint: "above" 287 694 basechar 0
LayerCount: 2
Fore
SplineSet
68 266 m 0
 68 276 78 282 151 335 c 0
 171 350 170 352 175 373 c 0
 227 581 238 621 238 634 c 0
 238 666 166 637 166 667 c 0
 166 684 186 684 199 685 c 0
 233 688 296 694 300 694 c 0
 312 694 316 688 316 680 c 0xf0
 316 678 316 675 315 672 c 2
 249 407 l 1
 319 458 337 474 347 474 c 0
 349 474 350 474 352 473 c 0
 356 470 360 465 360 460 c 0
 360 449 351 447 254 374 c 0
 234 359 236 357 231 337 c 0
 166 76 165 81 165 51 c 0
 165 17 181 12 191 12 c 0
 235 12 254 122 261 141 c 0
 264 149 272 153 278 153 c 0
 285 153 291 149 291 142 c 0
 291 129 275 70 258 38 c 0
 240 4 217 -11 189 -11 c 0
 142 -11 105 26 105 79 c 0
 105 100 103 85 157 303 c 1
 94 257 92 252 81 252 c 0xe8
 72 252 68 261 68 266 c 0
EndSplineSet
EndChar

StartChar: nacute
Encoding: 324 324 180
Width: 562
Flags: HW
TeX: 641 0
ItalicCorrection: 76
HStem: -11 23<442.542 493.413> 419 23<361.8 439.937>
VStem: 383 56<12.6402 122.043> 457 61<242.945 407.318> 562 23<125.484 153.926>
DStem2: 116.246 -12 183.747 -12 0.242599 0.970127<29.6551 393.105>
LayerCount: 2
Fore
SplineSet
346 514 m 0
 346 525 343 520 490 639 c 0
 497 645 507 651 518 651 c 0
 533 651 546 638 546 623 c 0
 546 604 528 593 515 585 c 0
 370 501 367 499 360 499 c 0
 352 499 346 507 346 514 c 0
EndSplineSet
Refer: 119 110 S 1 0 0 1 0 0 3
EndChar

StartChar: eng
Encoding: 331 331 182
Width: 562
Flags: HW
TeX: 430 194
ItalicCorrection: 76
HStem: -206 23<236.628 286.981> -170 79<234 267.598> -12 21G<144.5 170> 419 23<362.28 439.783>
VStem: 193 83<-161.416 -99.9134> 457 61<244.131 406.85>
DStem2: 67.7327 -206 135.483 -206 0.242599 0.970127<229.717 593.078>
AnchorPoint: "affricate-below" 513 -194 basechar 0
AnchorPoint: "affricate-above" 736 694 basechar 0
AnchorPoint: "below" 230 -194 basechar 0
AnchorPoint: "above" 389 442 basechar 0
LayerCount: 2
Fore
SplineSet
125 16 m 0
 125 26 128 37 130 43 c 2
 207 353 l 2
 208 359 210 365 210 370 c 0
 210 404 138 375 138 402 c 0
 138 422 157 423 227 427 c 1
 231 429 247 433 262 433 c 0
 277 433 290 429 290 418 c 0
 290 410 286 397 281 377 c 1
 308 406 349 442 413 442 c 0
 480 442 518 402 518 337 c 0
 518 263 465 148 448 81 c 0
 417 -40 376 -206 267 -206 c 0
 231 -206 193 -184 193 -144 c 0
 193 -117 212 -91 242 -91 c 0
 260 -91 276 -103 276 -123 c 0
 276 -139 266 -162 234 -170 c 1
 246 -179 255 -183 264 -183 c 0
 329 -183 371 54 399 134 c 0
 437 241 457 310 457 354 c 0
 457 393 443 419 409 419 c 0
 320 419 266 307 260 290 c 0
 255 278 195 32 195 32 c 2
 193 25 187 -12 153 -12 c 0
 136 -12 125 1 125 16 c 0
EndSplineSet
EndChar

StartChar: sacute
Encoding: 347 347 186
Width: 409
Flags: HW
TeX: 641 0
ItalicCorrection: 82
HStem: -11 22<152.248 266.728> 67 81<108.521 149.884> 302 68<352.168 384.429> 419 23<259.052 354.153> 499 152
VStem: 75 84<77.9711 137.481> 153 57<285.794 369.208> 270 199 335 57<77.7936 171.966> 347 71<308.275 363.192>
AnchorPoint: "below" 208 0 basechar 0
AnchorPoint: "above" 358 631 basechar 0
LayerCount: 2
Fore
SplineSet
75 86 m 0
 75 132 106 148 126 148 c 0
 146 148 159 135 159 116 c 0
 159 97 144 68 108 67 c 1
 121 34 152 11 207 11 c 0
 325 11 335 105 335 123 c 0xfc80
 335 194 256 189 213 205 c 1
 184 217 153 246 153 293 c 0
 153 330 178 442 310 442 c 0
 373 442 418 408 418 356 c 0
 418 315 393 302 376 302 c 0
 360 302 347 314 347 330 c 0xfa40
 347 346 359 365 385 370 c 1
 372 410 336 419 309 419 c 0
 224 419 210 348 210 328 c 0
 210 240 340 301 384 200 c 0
 389 188 392 175 392 158 c 0xfa80
 392 123 370 -11 206 -11 c 0
 129 -11 75 28 75 86 c 0
EndSplineSet
Refer: 11 180 S 1 0 0 1 -76 0 2
EndChar

StartChar: scaron
Encoding: 353 353 187
Width: 409
Flags: HW
TeX: 641 0
ItalicCorrection: 134
HStem: -11 22<152.505 266.341> 67 81<108.521 149.884> 302 68<352.168 384.429> 419 23<258.684 354.957> 488 149
VStem: 75 84<77.9711 137.481> 154 57<288.973 370.967> 220 280 335 57<76.3001 165.48> 347 71<308.275 363.192>
AnchorPoint: "below" 208 0 basechar 0
AnchorPoint: "above" 355 617 basechar 0
LayerCount: 2
Fore
SplineSet
75 86 m 0
 75 132 106 148 126 148 c 0
 146 148 159 135 159 116 c 0
 159 97 144 68 108 67 c 1
 112 58 128 11 207 11 c 0
 323 11 335 102 335 120 c 0xfc80
 335 220 154 166 154 295 c 0
 154 331 177 442 309 442 c 0
 372 442 418 408 418 356 c 0
 418 315 393 302 376 302 c 0
 360 302 347 314 347 330 c 0xfa40
 347 346 359 365 385 370 c 1
 372 410 336 419 309 419 c 0
 224 419 211 349 211 330 c 0
 211 251 341 289 382 199 c 0
 387 187 392 173 392 155 c 0xfa80
 392 122 370 -11 206 -11 c 0
 129 -11 75 28 75 86 c 0
EndSplineSet
Refer: 17 711 S 1 0 0 1 -26 0 2
EndChar

StartChar: scedilla
Encoding: 351 351 188
Width: 409
Flags: HW
TeX: 430 170
ItalicCorrection: 82
HStem: -193 23<52.0376 171.752> 67 80<109.944 151.049> 302 68<352.111 385.413> 419 23<258.585 356.057>
VStem: 76 83<75.6609 137.92> 153 57<286.07 368.259> 219 65<-146.497 -77.9276> 336 56<77.4986 171.436> 347 71<307.847 362.199>
LayerCount: 2
Fore
SplineSet
52 -181 m 0
 52 -176 56 -170 73 -170 c 2
 90 -170 l 1
 201 -169 219 -133 219 -109 c 0
 219 -63 158 -80 158 -57 c 0
 158 -50 162 -38 170 -8 c 1
 123 2 76 29 76 86 c 0
 76 133 105 147 125 147 c 0
 148 147 159 132 159 115 c 0
 159 102 151 69 109 67 c 1
 120 38 140 22 175 14 c 1
 183 22 185 22 207 22 c 2
 219 22 l 2
 231 22 235 18 239 14 c 1
 322 29 336 103 336 123 c 0xfb
 336 182 272 191 267 192 c 0
 242 198 153 205 153 294 c 0
 153 325 175 442 310 442 c 0
 374 442 418 407 418 355 c 0
 418 323 401 302 375 302 c 0
 358 302 347 315 347 330 c 0xf680
 347 337 350 362 386 370 c 1
 374 410 336 419 309 419 c 0
 224 419 210 348 210 328 c 0
 210 310 221 285 252 276 c 0
 282 267 392 262 392 157 c 0
 392 126 374 5 234 -10 c 1
 223 -53 l 1
 251 -59 284 -73 284 -109 c 0xf7
 284 -176 196 -192 85 -192 c 0
 83 -192 79 -193 75 -193 c 0
 65 -193 52 -191 52 -181 c 0
EndSplineSet
EndChar

StartChar: tcaron
Encoding: 357 357 189
Width: 332
Flags: HW
TeX: 688 0
ItalicCorrection: 94
HStem: -11 23<185.245 242.738> 400 30<92.1262 195 268 369.807> 594 106<382.128 451.3>
VStem: 119 60<16.16 158.195> 239 68<546.806 603.835> 324 31<105.881 152.811> 365 115<612.608 682.503>
DStem2: 92.4907 -11 157.991 -11 0.242599 0.970127<94.5163 423.591>
LayerCount: 2
Fore
SplineSet
92 413 m 0
 92 429 106 430 114 430 c 0
 124 430 134 431 144 431 c 0
 164 431 183 430 203 430 c 1
 239 575 l 2
 245 599 246 604 266 604 c 2
 273 604 l 2
 299 604 307 603 307 592 c 0
 307 585 268 432 268 430 c 1
 347 430 l 2
 355 430 366 431 370 422 c 0
 373 414 369 405 362 402 c 0
 358 400 347 399 337 399 c 2
 319 399 l 2
 299 399 280 400 260 400 c 1
 257 387 253 373 250 360 c 2
 190 117 l 2
 185 96 179 74 179 52 c 0
 179 32 183 12 207 12 c 0
 277 12 320 130 324 140 c 0
 328 150 336 153 342 153 c 0
 348 153 355 149 355 142 c 0
 355 126 300 -11 204 -11 c 0
 153 -11 119 27 119 79 c 0
 119 96 123 113 126 123 c 2
 195 400 l 1
 114 400 l 2
 103 400 92 400 92 413 c 0
342 476 m 0
 342 493 420 512 452 611 c 1
 437 600 426 594 408 594 c 0
 382 594 365 611 365 636 c 0
 365 666 391 700 429 700 c 0
 459 700 480 676 480 640 c 0
 480 557 379 466 352 466 c 0
 346 466 342 471 342 476 c 0
EndSplineSet
EndChar

StartChar: tcommaaccent
Encoding: 355 355 190
Width: 332
Flags: HW
TeX: 614 170
ItalicCorrection: 94
HStem: -192 22<52.0109 168.588> 400 30<91.0401 195 267 370.921>
VStem: 119 59<22.2564 160.011> 219 65<-146.515 -77.3837> 239 68<546.806 603.833> 322 33<100.292 152.947>
DStem2: 46.9588 -192 111.959 -192 0.242599 0.970127<402.695 610.23 656.801 822.293>
LayerCount: 2
Fore
SplineSet
52 -181 m 0
 52 -172 61 -170 73 -170 c 2
 90 -170 l 1
 201 -169 219 -132 219 -108 c 0xf4
 219 -62 158 -81 158 -57 c 0
 158 -50 162 -37 170 -5 c 1
 147 6 119 28 119 79 c 0
 119 102 116 84 195 400 c 1
 113 400 l 2
 102 400 91 400 91 414 c 0
 91 422 97 430 114 430 c 0
 124 430 133 431 143 431 c 0
 163 431 183 430 203 430 c 1
 239 575 l 2
 245 598 244 604 266 604 c 2xec
 285 604 l 2
 296 604 307 604 307 591 c 0xec
 307 584 277 466 267 430 c 1
 350 430 l 2
 360 430 371 430 371 417 c 0
 371 401 359 399 335 399 c 2
 319 399 l 2
 299 399 280 400 260 400 c 1
 233 275 178 96 178 52 c 0
 178 40 179 33 183 22 c 1
 209 22 l 2
 219 22 229 22 236 19 c 1
 283 44 305 96 322 136 c 0
 325 143 329 152 338 153 c 0
 348 154 357 149 355 138 c 0
 352 121 310 20 235 -6 c 1
 223 -53 l 1
 251 -59 284 -72 284 -108 c 0
 284 -191 142 -192 84 -192 c 2
 80 -192 l 2
 67 -192 52 -192 52 -181 c 0
EndSplineSet
EndChar

StartChar: uhungarumlaut
Encoding: 369 369 191
Width: 537
Flags: HW
TeX: 641 0
ItalicCorrection: 200
HStem: -11 23<241.741 306.9 439.384 482.543> 499 152
VStem: 162 60<31.9204 233.17> 207 82<339.007 388> 282 199 435 199 537 23<128.375 151.292>
AnchorPoint: "below" 266 0 basechar 0
AnchorPoint: "above" 426 642 basechar 0
LayerCount: 2
Fore
SplineSet
138 403 m 0
 138 421 155 421 167 422 c 0
 203 425 269 431 273 431 c 0
 285 431 289 427 289 417 c 0xd0
 289 415 279 347 263 334 c 1
 249 232 222 174 222 97 c 0
 222 57 229 12 270 12 c 0
 290 12 329 22 368 92 c 0
 381 115 375 100 446 385 c 0
 447 389 453 430 487 430 c 0xe0
 504 430 514 415 514 406 c 0
 514 390 501 346 451 146 c 0
 444 116 433 77 433 52 c 0
 433 17 449 12 459 12 c 0
 510 12 521 143 537 151 c 0
 546 156 560 152 560 140 c 0
 560 133 545 69 524 33 c 0
 506 2 484 -11 457 -11 c 0
 427 -11 392 3 376 53 c 1
 335 -4 292 -11 267 -11 c 0
 225 -11 162 11 162 119 c 0xe2
 162 206 205 326 209 337 c 1
 207 341 207 344 207 348 c 0
 207 356 209 363 209 370 c 0
 209 404 138 375 138 403 c 0
EndSplineSet
Refer: 15 733 S 1 0 0 1 13 0 2
EndChar

StartChar: uring
Encoding: 367 367 192
Width: 537
Flags: HW
TeX: 641 0
ItalicCorrection: 76
HStem: -11 23<234.874 311.901 439.102 482.511> 500 22<353.403 448.084> 638 23<376.487 471.465>
VStem: 152 61<25.8798 198.715> 317 30<526.864 609.066> 478 30<550.543 632.728> 537 23<128.375 151.165>
LayerCount: 2
Fore
SplineSet
138 403 m 0
 138 418 150 420 159 421 c 0
 227 428 258 431 272 431 c 0
 286 431 290 425 290 418 c 0
 290 413 288 407 287 402 c 0
 272 343 273 338 259 334 c 1
 242 194 213 145 213 82 c 0
 213 21 247 12 270 12 c 0
 293 12 326 21 358 66 c 0
 374 89 375 97 381 122 c 2
 445 380 l 2
 447 387 452 430 487 430 c 0
 503 430 514 415 514 406 c 0
 514 390 502 346 452 147 c 0
 444 117 433 77 433 52 c 0
 433 17 449 12 459 12 c 0
 510 12 521 143 537 151 c 0
 545 155 560 153 560 140 c 1
 560 140 542 29 492 -2 c 0
 481 -8 469 -11 457 -11 c 0
 429 -11 393 2 378 49 c 1
 353 20 322 -11 266 -11 c 0
 213 -11 152 10 152 97 c 0
 152 165 204 309 213 335 c 1
 209 339 207 342 207 348 c 0
 207 355 209 363 209 370 c 0
 209 405 138 374 138 403 c 0
317 554 m 0
 317 580 330 661 433 661 c 0
 479 661 508 645 508 606 c 0
 508 582 497 500 391 500 c 0
 337 500 317 521 317 554 c 0
347 552 m 0
 347 525 369 522 399 522 c 0
 450 522 463 536 475 586 c 0
 477 593 478 600 478 608 c 0
 478 636 454 638 425 638 c 0
 378 638 362 627 350 575 c 0
 348 568 347 560 347 552 c 0
EndSplineSet
EndChar

StartChar: ydieresis
Encoding: 255 255 193
Width: 485
Flags: HW
TeX: 641 194
ItalicCorrection: 88
HStem: -206 23<156.051 237.872> -137 80<131.98 173.595> -11 23<235.037 313.156> 393 29<153.237 217.263> 553 106<269.161 339.839 446.803 519.202>
VStem: 98 84<-128.357 -66.9028> 152 62<26.531 199.737> 220 83<358.207 422.78> 251 107<571.045 640.955> 429 108<571.047 640.953>
DStem2: 297.984 -206 362.984 -206 0.242599 0.970127<116.398 239.144 250.573 642.941>
AnchorPoint: "below" 180 -194 basechar 0
AnchorPoint: "above" 429 650 basechar 0
LayerCount: 2
Fore
SplineSet
98 -119 m 0
 98 -74 126 -57 148 -57 c 0
 168 -57 182 -71 182 -89 c 0xfc40
 182 -102 174 -135 131 -137 c 1
 144 -173 170 -183 194 -183 c 0
 254 -183 311 -122 343 -24 c 0
 348 -8 352 9 356 26 c 1
 327 2 301 -11 265 -11 c 0
 213 -11 152 11 152 98 c 0xfa40
 152 173 220 364 220 375 c 0
 220 398 167 384 155 393 c 0
 149 397 150 406 153 412 c 0
 158 420 167 421 175 422 c 0
 249 428 277 431 288 431 c 0
 300 431 303 425 303 418 c 0
 303 412 301 406 300 402 c 0
 285 344 287 341 274 334 c 1
 243 231 214 132 214 82 c 0xfb40
 214 20 248 12 270 12 c 0
 331 12 367 76 371 87 c 0
 375 97 377 107 379 117 c 2
 445 379 l 2
 447 387 452 430 487 430 c 0
 503 430 514 418 514 403 c 0
 514 397 512 393 511 387 c 2
 419 18 l 2
 370 -177 239 -206 194 -206 c 0
 139 -206 98 -171 98 -119 c 0
429 596 m 0
 429 629 461 659 493 659 c 0
 519 659 537 640 537 616 c 0
 537 583 505 553 473 553 c 0xf840
 449 553 429 570 429 596 c 0
EndSplineSet
Refer: 55 46 S 1 0 0 1 139 553 2
EndChar

StartChar: zdotaccent
Encoding: 380 380 196
Width: 409
Flags: HW
TeX: 661 0
ItalicCorrection: 122
HStem: -11 64<233.59 346.224> 63 23<154.412 197.022> 344 23<342.691 369> 377 65<201.704 305.527> 575 80<337.998 401.341>
VStem: 329 81<583.468 646.193> 398 33<104.689 151.946>
AnchorPoint: "below" 229 0 basechar 0
AnchorPoint: "above" 387 635 basechar 0
LayerCount: 2
Fore
SplineSet
329 608 m 0
 329 631 351 655 377 655 c 0
 395 655 410 642 410 622 c 0
 410 600 389 575 363 575 c 0xfc
 345 575 329 588 329 608 c 0
EndSplineSet
Refer: 131 122 S 1 0 0 1 0 -0 3
EndChar

StartChar: ij
Encoding: 307 307 197
Width: 562
Flags: HW
TeX: 661 194
ItalicCorrection: 101
HStem: -207 26<269.876 338.828> -174 81<269 296.901> -11 22<188.473 234.888> 389 43<152.193 219.961 444.394 514.985> 575 80<251.859 315.895 539.998 604.07>
VStem: 127 57<11.25 120.523> 220 85<-165.905 -102.208 345.339 423.268> 243 82<584.07 646.062> 276 54<76.1292 132.671> 515 81<348.641 423.913> 531 82<584.308 645.982>
DStem2: 372.988 -207 440.488 -207 0.242599 0.970127<81.7685 592.925>
LayerCount: 2
Fore
SplineSet
127 68 m 2
 127 76 l 2
 127 95 131 106 216 361 c 0
 218 367 220 371 220 375 c 0xfe
 220 395 166 385 156 392 c 0
 149 396 149 406 153 412 c 0
 157 418 157 422 239 427 c 1
 248 432 252 432 265 432 c 2
 284 432 l 2
 297 432 302 428 302 418 c 0
 302 408 296 390 289 362 c 0
 285 345 285 341 276 334 c 1
 184 56 184 65 184 41 c 0
 184 21 193 11 207 11 c 0
 227 11 256 31 276 73 c 0
 305 132 293 153 317 153 c 0
 327 153 330 147 330 140 c 0xfc80
 330 126 292 -11 203 -11 c 0
 158 -11 127 22 127 68 c 2
220 -147 m 0
 220 -120 239 -93 270 -93 c 0
 289 -93 305 -107 305 -127 c 0
 305 -146 293 -164 269 -174 c 1
 278 -178 287 -181 299 -181 c 0
 322 -181 382 -169 416 -35 c 2
 510 340 l 2
 513 353 515 362 515 369 c 0xfe40
 515 388 495 389 477 389 c 2
 475 389 l 2
 459 389 443 389 443 403 c 0
 443 422 460 423 533 427 c 1
 542 432 546 432 560 432 c 2
 565 432 l 2
 586 432 596 432 596 419 c 0
 596 415 595 410 593 403 c 2
 484 -33 l 2
 477 -59 475 -77 459 -105 c 0
 426 -163 364 -207 300 -207 c 0
 255 -207 220 -183 220 -147 c 0
243 608 m 0
 243 633 267 655 291 655 c 0
 309 655 325 642 325 622 c 0xfd
 325 600 303 575 277 575 c 0
 259 575 243 588 243 608 c 0
531 609 m 0xfc20
 531 630 553 655 579 655 c 0
 596 655 613 643 613 622 c 0
 613 595 586 575 565 575 c 0
 547 575 531 590 531 609 c 0xfc20
EndSplineSet
Ligature2: "Latin Dutch ligatures subtable" i j
EndChar

StartChar: exclamdown
Encoding: 161 161 198
Width: 307
Flags: HW
TeX: 499 194
ItalicCorrection: 75
HStem: -216 529<101 228> 394 105<227.789 300.031>
VStem: 57 110<-198.494 -107.507> 210 108<412.047 480.34>
LayerCount: 2
Fore
SplineSet
57 -176 m 0
 57 -164 62 -153 65 -143 c 2
 204 281 l 2
 207 291 211 313 228 313 c 0
 235 313 242 309 242 298 c 0
 242 290 238 271 236 260 c 2
 167 -149 l 2
 166 -158 159 -216 101 -216 c 0
 76 -216 57 -199 57 -176 c 0
EndSplineSet
Refer: 366 183 S 1 0 0 1 51 205 2
EndChar

StartChar: questiondown
Encoding: 191 191 199
Width: 511
Flags: HW
TeX: 499 194
HStem: -216 22<161.77 252.281> -11 80<368.264 396> 290 23<293.593 347.655> 394 106<330.161 402.202>
VStem: 83 36<-160.788 -40.3659> 219 33<213.19 255.097> 312 108<412.047 481.955> 353 35<208.254 288.287> 359 82<-6.71467 59.7231>
LayerCount: 2
Fore
SplineSet
83 -93 m 0
 83 -35 113 18 147 52 c 0
 172 78 316 187 332 204 c 0
 343 216 353 236 353 257 c 0
 353 280 341 290 326 290 c 0
 302 290 267 265 252 229 c 0
 250 224 249 217 245 213 c 0
 237 205 219 206 219 220 c 0
 219 244 263 313 328 313 c 0
 366 313 388 283 388 244 c 0xfd
 388 210 373 177 356 157 c 0
 345 144 329 132 217 43 c 0
 198 28 119 -22 119 -106 c 0
 119 -156 152 -194 204 -194 c 0
 281 -194 353 -123 396 -11 c 1
 364 -10 359 8 359 21 c 0
 359 46 383 69 407 69 c 0
 426 69 441 56 441 37 c 0xfc80
 441 -6 357 -216 203 -216 c 0
 131 -216 83 -164 83 -93 c 0
312 437 m 0
 312 467 342 500 376 500 c 0
 402 500 420 481 420 457 c 0
 420 424 388 394 356 394 c 0xfe
 332 394 312 411 312 437 c 0
EndSplineSet
EndChar

StartChar: sterling
Encoding: 163 163 200
Width: 769
Flags: HW
TeX: 688 0
HStem: -11 42<397.001 524.939> -11 23<129.328 194.418> 97 42<146.043 255.199> 332 31<256.191 330 403 503.817> 481 80<617.47 666> 684 23<540.963 623.11>
VStem: 87 38<13.6907 73.7381> 585 34<93.91 147.76> 667 30<563.186 640.296>
DStem2: 241.49 -11 308.489 -11 0.242599 0.970127<142.761 354.226 402.009 643.111>
LayerCount: 2
Fore
SplineSet
87 38 m 0
 87 79 139 139 217 139 c 0
 235 139 254 136 276 127 c 1
 287 157 299 209 330 332 c 1
 276 332 l 2
 269 332 260 332 256 339 c 0
 255 341 254 343 254 345 c 0
 254 354 263 363 279 363 c 2
 338 363 l 1
 347 403 379 532 388 554 c 0
 423 642 505 707 582 707 c 0
 651 707 697 654 697 574 c 0
 697 494 665 481 643 481 c 0
 624 481 609 494 609 513 c 0
 609 530 622 561 660 561 c 0
 662 561 664 560 666 560 c 1
 666 565 667 571 667 577 c 0
 667 643 633 684 582 684 c 0
 531 684 481 635 456 564 c 0
 442 525 419 423 403 363 c 1
 483 363 l 2
 493 363 504 362 504 350 c 0
 504 332 488 332 473 332 c 2
 395 332 l 1
 391 313 354 165 348 147 c 0
 342 130 333 114 325 99 c 1
 366 73 411 31 468 31 c 0
 532 31 572 91 585 124 c 0
 590 136 591 148 605 148 c 0
 612 148 619 144 619 135 c 0
 619 112 562 -11 452 -11 c 0xbf80
 390 -11 350 24 297 61 c 1
 296 61 l 1
 263 25 210 -11 153 -11 c 0
 114 -11 87 9 87 38 c 0
125 38 m 0
 125 22 137 12 155 12 c 0
 175 12 219 25 256 84 c 1
 238 91 219 97 200 97 c 0x7f80
 154 97 125 62 125 38 c 0
EndSplineSet
EndChar

StartChar: Agrave
Encoding: 192 192 201
Width: 743
Flags: HW
TeX: 855 0
HStem: 0 31<615.536 689.897> 1 23<439.026 499.084> 230 30<307 515> 696 20<540 558.5>
VStem: 59 145<9 75.5> 528 162<12 75>
DStem2: 190 113 289 230 0.493698 0.869633<-33.9594 150.623 185.599 561.797> 568 688 493 587 0.0690778 -0.997611<95.5779 423.316 453.383 610.51>
AnchorPoint: "below" 370 0 basechar 0
AnchorPoint: "above" 580 840 basechar 0
LayerCount: 2
Fore
SplineSet
448 834 m 0
 448 849 464 871 485 871 c 0
 495 871 503 866 511 860 c 0
 622 776 624 777 624 767 c 0x3c
 624 760 618 750 608 750 c 0
 603 750 605 750 474 805 c 0
 462 810 448 817 448 834 c 0
EndSplineSet
Refer: 74 65 S 1 0 0 1 -0 0 3
AlternateSubs2: "Stilistic set 01 subtable" Agrave.vn
AlternateSubs2: "Latin alternatives subtable" Agrave.vn
Substitution2: "Latin Vietnamese substitutions subtable" Agrave.vn
EndChar

StartChar: Acircumflex
Encoding: 194 194 203
Width: 743
Flags: HW
TeX: 891 0
HStem: 0 31<615.536 689.897> 1 23<439.026 499.084> 230 30<307 515> 696 20<540 558.5>
VStem: 59 145<9 75.5> 528 162<12 75>
DStem2: 190 113 289 230 0.493698 0.869633<-33.9594 150.623 185.599 561.797> 568 688 493 587 0.0690778 -0.997611<95.5779 423.316 453.383 610.51>
AnchorPoint: "below" 370 0 basechar 0
AnchorPoint: "above" 587 869 basechar 0
LayerCount: 2
Fore
SplineSet
433 755 m 0
 433 762 440 768 445 773 c 0
 584 898 584 900 593 900 c 0
 604 900 614 881 621 869 c 0
 686 764 687 762 687 756 c 0
 687 748 678 741 670 741 c 0x3c
 660 741 658 747 585 847 c 1
 573 838 561 828 466 751 c 0
 464 750 455 741 447 741 c 0
 439 741 433 747 433 755 c 0
EndSplineSet
Refer: 74 65 S 1 0 0 1 -0 0 3
AlternateSubs2: "Stilistic set 01 subtable" Acircumflex.vn
AlternateSubs2: "Latin alternatives subtable" Acircumflex.vn
Substitution2: "Latin Vietnamese substitutions subtable" Acircumflex.vn
EndChar

StartChar: Atilde
Encoding: 195 195 204
Width: 743
Flags: HW
TeX: 891 0
HStem: 0 31<615.536 689.897> 1 23<439.026 499.084> 230 30<307 515> 696 20<540 558.5> 800 36<607.907 698.264> 855 36<464.306 556.297>
VStem: 59 145<9 75.5> 528 162<12 75>
DStem2: 190 113 289 230 0.493698 0.869633<-33.9594 150.623 185.599 561.797> 568 688 493 587 0.0690778 -0.997611<95.5779 423.316 453.383 610.51>
AnchorPoint: "below" 370 0 basechar 0
AnchorPoint: "above" 585 860 basechar 0
LayerCount: 2
Fore
SplineSet
397 811 m 0
 397 817 402 823 406 827 c 0
 433 853 476 891 522 891 c 0
 579 891 608 836 655 836 c 0
 690 836 722 864 743 882 c 0
 758 895 767 888 767 880 c 0
 767 867 697 800 642 800 c 0
 586 800 556 855 508 855 c 0
 459 855 423 802 406 802 c 0x3f
 401 802 397 806 397 811 c 0
EndSplineSet
Refer: 74 65 S 1 0 0 1 -0 -0 3
AlternateSubs2: "Stilistic set 01 subtable" Atilde.vn
AlternateSubs2: "Latin alternatives subtable" Atilde.vn
Substitution2: "Latin Vietnamese substitutions subtable" Atilde.vn
EndChar

StartChar: Aring
Encoding: 197 197 206
Width: 743
Flags: HW
TeX: 855 0
HStem: 0 31<614.694 689.903> 1 41<60.6027 151.077> 230 30<307 515> 890 23<556.304 624.846>
VStem: 59 145<9 74.5> 475 29<727.514 828.287> 639 28<779.769 878.671>
DStem2: 197 125 307 260 0.494009 0.869457<-47.1558 136.742 171.718 547.916> 571 639 493 587 0.069039 -0.997614<46.4909 374.23 404.296 563.769>
LayerCount: 2
Fore
SplineSet
59 14 m 0
 59 38 87 26 122 42 c 0x7e
 157 58 178 92 197 125 c 2
 522 697 l 1
 482 712 475 749 475 772 c 0
 475 845 539 913 598 913 c 0
 643 913 667 877 667 835 c 0
 667 775 623 714 567 697 c 1
 569 678 570 658 571 639 c 2
 607 119 l 2
 613 32 606 33 667 31 c 0
 675 31 690 31 690 17 c 0
 690 6 682 0 670 0 c 0xbe
 659 0 628 3 564 3 c 0
 503 3 470 1 458 1 c 0x7e
 448 1 440 3 440 13 c 0
 440 50 528 8 528 70 c 0
 528 89 523 129 517 230 c 1
 289 230 l 1
 206 84 204 83 204 66 c 0
 204 22 259 42 259 16 c 0
 259 8 253 0 239 0 c 0xbe
 230 0 203 3 149 3 c 0
 116 3 95 1 81 1 c 0
 65 1 59 4 59 14 c 0
307 260 m 1
 515 260 l 1
 493 587 l 1
 307 260 l 1
504 764 m 0
 504 735 521 717 550 717 c 0x3e
 621 717 639 814 639 843 c 0
 639 873 622 890 592 890 c 0
 517 890 504 783 504 764 c 0
EndSplineSet
EndChar

StartChar: AE
Encoding: 198 198 207
Width: 883
Flags: HW
TeX: 688 0
ItalicCorrection: 120
HStem: -0 31<211.082 259.91 344.145 417.657 498.006 713.065> 313 31<359 487 571 707.881> 652 31<431.092 505 646.811 864.992>
VStem: 59 146<9 75> 763 33<393.622 459.77> 900 48<486.207 673.5>
DStem2: 196 119 341 313 0.502253 0.864721<46.9344 240.583 276.429 615.228> 408.728 -0 485.728 -0 0.242599 0.970127<102.58 322.638 373.091 646.589>
AnchorPoint: "below" 442 0 basechar 0
AnchorPoint: "above" 623 705 basechar 0
LayerCount: 2
Fore
SplineSet
59 14 m 0
 59 47 107 11 162 71 c 0
 175 85 186 102 196 119 c 2
 505 651 l 1
 492 651 481 652 468 652 c 2
 454 652 l 2
 438 652 431 658 431 666 c 0
 431 673 436 683 455 683 c 2
 926 683 l 2
 938 683 948 681 948 666 c 0
 948 657 923 473 923 473 c 2
 921 462 914 458 907 458 c 0
 896 458 893 464 893 476 c 0
 893 492 900 519 900 557 c 0
 900 642 858 652 763 652 c 2
 693 652 l 2
 678 652 665 653 655 646 c 0
 643 637 646 646 591 424 c 0
 584 397 577 371 571 344 c 1
 642 344 l 2
 714 344 740 353 763 437 c 0
 765 447 769 460 782 460 c 0
 793 460 796 453 796 446 c 0
 796 438 740 216 739 213 c 0
 736 201 728 197 722 197 c 0
 718 197 708 200 708 210 c 0
 708 223 718 249 718 271 c 0
 718 310 685 313 641 313 c 2
 564 313 l 1
 564 313 498 55 498 44 c 0
 498 32 506 31 527 31 c 2
 602 31 l 2
 769 31 793 86 858 241 c 0
 863 253 871 257 877 257 c 0
 884 257 891 252 891 245 c 0
 891 238 881 219 800 20 c 0
 793 4 790 0 774 -0 c 2
 366 -0 l 2
 356 0 347 0 344 8 c 0
 342 14 343 22 348 26 c 0
 358 36 398 24 415 43 c 0
 424 53 422 53 487 313 c 1
 341 313 l 1
 223 109 205 84 205 66 c 0
 205 28 248 34 256 26 c 0
 258 24 260 20 260 17 c 0
 260 9 253 0 240 0 c 0
 222 0 205 3 152 3 c 0
 118 3 96 1 82 1 c 0
 65 1 59 4 59 14 c 0
359 344 m 1
 495 344 l 1
 559 601 l 2
 562 613 564 621 564 628 c 0
 564 642 556 647 536 649 c 1
 359 344 l 1
EndSplineSet
EndChar

StartChar: Ccedilla
Encoding: 199 199 208
Width: 715
Flags: HW
TeX: 688 170
ItalicCorrection: 145
HStem: -192 22<246.099 364.875> -20 29<341.917 360 425 478.589> 674 31<500.187 641.797>
VStem: 149 88<128.755 344.213> 413 65<-146.949 -77.8213> 663 34<189.481 250.803> 719 91<462.689 696.5>
AnchorPoint: "above" 569 705 basechar 0
LayerCount: 2
Fore
SplineSet
149 245 m 0
 149 478 364 705 569 705 c 0
 605 705 676 697 719 620 c 1
 791 702 790 704 800 704 c 0
 804 704 810 701 810 692 c 0
 810 687 810 688 748 440 c 0
 744 424 738 419 731 419 c 0
 726 419 715 422 715 433 c 0
 715 441 719 453 719 492 c 0
 719 585 679 674 577 674 c 0
 477 674 380 599 326 513 c 0
 270 424 237 287 237 206 c 0
 237 57 332 9 407 9 c 0
 518 9 625 108 663 228 c 0
 667 240 669 251 683 251 c 0
 690 251 697 247 697 238 c 0
 697 199 602 1 425 -20 c 1
 417 -53 l 1
 445 -60 478 -74 478 -109 c 0
 478 -184 366 -192 275 -192 c 2
 270 -192 l 2
 257 -192 248 -192 246 -184 c 0
 244 -178 247 -170 267 -170 c 2
 286 -170 l 1
 327 -169 413 -164 413 -108 c 0
 413 -91 398 -79 382 -74 c 0
 367 -70 352 -73 352 -57 c 0
 352 -50 357 -31 360 -20 c 1
 229 -1 149 104 149 245 c 0
EndSplineSet
EndChar

StartChar: Egrave
Encoding: 200 200 209
Width: 678
Flags: HW
TeX: 855 0
ItalicCorrection: 120
HStem: -0 31<62.0844 150.435 245.009 505.519> 338 31<325 471.759> 650 30<228.188 306.489 394.215 653.875>
VStem: 526 33<421.052 483.752> 688 54<489.855 626.071>
DStem2: 150.994 -0 232.476 -0 0.242599 0.970127<125.467 368.176 400.19 649.677>
AnchorPoint: "below" 342 0 basechar 0
AnchorPoint: "above" 561 876 basechar 0
LayerCount: 2
Fore
SplineSet
449 834 m 0
 449 852 467 871 486 871 c 0
 501 871 509 862 605 790 c 0
 613 784 625 776 625 767 c 0
 625 760 619 750 609 750 c 0
 604 750 604 750 474 805 c 0
 462 810 449 817 449 834 c 0
EndSplineSet
Refer: 78 69 S 1 0 0 1 -0 -0 3
AlternateSubs2: "Stilistic set 01 subtable" Egrave.vn
AlternateSubs2: "Latin alternatives subtable" Egrave.vn
Substitution2: "Latin Vietnamese substitutions subtable" Egrave.vn
EndChar

StartChar: Eacute
Encoding: 201 201 210
Width: 678
Flags: HW
TeX: 855 0
ItalicCorrection: 120
HStem: 0 31<62.0844 150.435 245.009 505.519> 338 31<325 471.759> 650 30<228.188 306.489 394.215 653.875>
VStem: 526 33<421.052 483.752> 688 54<489.855 626.071>
DStem2: 150.994 0 232.476 0 0.242599 0.970127<125.467 368.176 400.19 649.677>
AnchorPoint: "below" 342 0 basechar 0
AnchorPoint: "above" 561 876 basechar 0
LayerCount: 2
Fore
SplineSet
487 765 m 0
 487 777 484 774 643 861 c 0
 648 864 660 871 672 871 c 0
 689 871 699 857 699 843 c 0
 699 820 679 811 663 805 c 0
 519 755 508 750 501 750 c 0
 492 750 487 757 487 765 c 0
EndSplineSet
Refer: 78 69 S 1 0 0 1 -0 0 3
AlternateSubs2: "Stilistic set 01 subtable" Eacute.vn
AlternateSubs2: "Latin alternatives subtable" Eacute.vn
Substitution2: "Latin Vietnamese substitutions subtable" Eacute.vn
EndChar

StartChar: Ecircumflex
Encoding: 202 202 211
Width: 678
Flags: HW
TeX: 891 0
ItalicCorrection: 120
HStem: 0 31<62.0844 150.435 245.009 505.519> 338 31<325 471.759> 650 30<228.188 306.489 394.215 653.875>
VStem: 526 33<421.052 483.752> 688 54<489.855 626.071>
DStem2: 150.994 0 232.476 0 0.242599 0.970127<125.467 368.176 400.19 649.677>
AnchorPoint: "below" 342 0 basechar 0
AnchorPoint: "above" 568 905 basechar 0
LayerCount: 2
Fore
SplineSet
407 755 m 0
 407 762 415 768 420 773 c 0
 559 898 559 900 568 900 c 0
 579 900 589 881 596 869 c 0
 661 764 661 762 661 756 c 0
 661 748 653 741 645 741 c 0
 635 741 633 747 560 847 c 1
 548 838 536 828 441 751 c 0
 439 750 430 741 422 741 c 0
 414 741 407 747 407 755 c 0
EndSplineSet
Refer: 78 69 S 1 0 0 1 -0 0 3
AlternateSubs2: "Stilistic set 01 subtable" Ecircumflex.vn
AlternateSubs2: "Latin alternatives subtable" Ecircumflex.vn
Substitution2: "Latin Vietnamese substitutions subtable" Ecircumflex.vn
EndChar

StartChar: Igrave
Encoding: 204 204 213
Width: 385
Flags: HW
TeX: 855 0
ItalicCorrection: 158
HStem: 0 33<57.4446 160.711 248.008 335.907> 656 27<220.509 305.531 405.554 497.981>
DStem2: 151.993 0 233.243 0 0.242599 0.970127<72.3029 651.432>
AnchorPoint: "below" 192 0 basechar 0
AnchorPoint: "above" 411 873 basechar 0
LayerCount: 2
Fore
SplineSet
283 834 m 0
 283 849 299 871 320 871 c 0
 330 871 338 866 346 860 c 0
 457 776 459 777 459 767 c 0
 459 760 453 750 443 750 c 0
 438 750 440 750 309 805 c 0
 297 810 283 817 283 834 c 0
EndSplineSet
Refer: 82 73 S 1 0 0 1 -0 0 3
AlternateSubs2: "Stilistic set 01 subtable" Igrave.vn
AlternateSubs2: "Latin alternatives subtable" Igrave.vn
Substitution2: "Latin Vietnamese substitutions subtable" Igrave.vn
EndChar

StartChar: Icircumflex
Encoding: 206 206 215
Width: 385
Flags: HW
TeX: 891 0
ItalicCorrection: 158
HStem: 0 33<57.4446 160.711 248.008 335.907> 656 27<220.509 305.531 405.554 497.981>
DStem2: 151.993 0 233.243 0 0.242599 0.970127<72.3029 651.432>
AnchorPoint: "below" 192 0 basechar 0
AnchorPoint: "above" 418 902 basechar 0
LayerCount: 2
Fore
SplineSet
255 755 m 0
 255 762 262 768 267 773 c 0
 406 898 406 900 415 900 c 0
 426 900 436 881 443 869 c 0
 507 764 509 762 509 756 c 0
 509 748 500 741 492 741 c 0
 482 741 480 746 407 847 c 1
 395 838 383 828 288 751 c 0
 286 750 277 741 269 741 c 0
 261 741 255 748 255 755 c 0
EndSplineSet
Refer: 82 73 S 1 0 0 1 0 0 3
EndChar

StartChar: Idieresis
Encoding: 207 207 216
Width: 385
Flags: HW
TeX: 891 0
ItalicCorrection: 158
HStem: 0 33<57.4446 160.711 248.008 335.907> 656 27<220.509 305.531 405.554 497.981> 786 105<275.944 349.211 454.803 527.211>
VStem: 259 108<803.592 873.429> 437 108<803.969 873.408>
DStem2: 151.993 0 233.243 0 0.242599 0.970127<72.3029 651.432>
AnchorPoint: "below" 192 0 basechar 0
AnchorPoint: "above" 416 893 basechar 0
LayerCount: 2
Fore
SplineSet
259 829 m 0
 259 862 291 891 323 891 c 0
 349 891 367 872 367 848 c 0
 367 818 337 786 303 786 c 0
 277 786 259 805 259 829 c 0
437 829 m 0
 437 859 467 891 501 891 c 0
 527 891 545 872 545 848 c 0
 545 818 515 786 481 786 c 0
 457 786 437 803 437 829 c 0
EndSplineSet
Refer: 82 73 S 1 0 0 1 -0 0 3
EndChar

StartChar: Eth
Encoding: 208 208 217
Width: 755
Flags: HW
TeX: 688 0
ItalicCorrection: 94
HStem: -0 31<244.007 456.504> 320 30<143.116 232 319 487.809> 652 31<225.104 308.464 392.875 601.581>
VStem: 691 83<340.226 553.453>
DStem2: 151.978 -0 230.978 -0 0.242599 0.970127<110.278 329.854 380.064 599.902>
LayerCount: 2
Fore
SplineSet
63 14 m 0
 63 48 130 18 157 44 c 0
 168 54 164 50 232 320 c 1
 217 320 202 319 187 319 c 2
 169 319 l 2
 153 319 143 320 143 333 c 0
 143 348 158 351 173 351 c 0
 179 351 185 350 189 350 c 2
 240 350 l 1
 262 444 309 614 309 632 c 0
 309 650 288 652 267 652 c 2
 257 652 l 2
 244 652 233 652 229 657 c 0
 227 660 225 663 225 666 c 0
 225 675 234 683 248 683 c 2
 556 683 l 2
 730 683 774 536 774 438 c 0
 774 240 610 0 385 -0 c 2
 85 -0 l 2
 72 0 63 2 63 14 c 0
244 44 m 0
 244 32 253 31 278 31 c 2
 375 31 l 2
 486 31 560 104 596 157 c 0
 650 236 691 392 691 478 c 0
 691 557 658 652 525 652 c 2
 428 652 l 2
 390 652 391 641 372 565 c 2
 319 350 l 1
 464 350 l 2
 476 350 491 348 491 338 c 0
 491 335 491 332 488 328 c 0
 484 321 475 319 467 319 c 0
 464 319 461 320 459 320 c 2
 311 320 l 1
 290 227 244 60 244 44 c 0
EndSplineSet
EndChar

StartChar: Ntilde
Encoding: 209 209 218
Width: 743
Flags: HW
TeX: 891 0
ItalicCorrection: 163
HStem: 1 31<62.1436 140.93> 652 31<227.19 313 773.954 850.925> 800 36<607.907 698.264> 855 36<465.814 556.297>
VStem: 62 144<8.5 78.5> 706 145<605 674>
DStem2: 150.989 0 185.493 0 0.242599 0.970127<84.6663 642.239> 409 653 340 615 0.339839 -0.940484<12.2895 539.356> 556.49 0 589.998 0 0.242599 0.970127<150.496 627.593>
LayerCount: 2
Fore
SplineSet
397 811 m 0
 397 823 466 891 522 891 c 0
 579 891 608 836 655 836 c 0
 690 836 722 864 743 882 c 0
 758 895 767 888 767 880 c 0
 767 867 697 800 642 800 c 0
 586 800 556 855 508 855 c 0
 459 855 423 802 406 802 c 0
 401 802 397 806 397 811 c 0
EndSplineSet
Refer: 87 78 S 1 0 0 1 -0 0 3
EndChar

StartChar: Ograve
Encoding: 210 210 219
Width: 766
Flags: HW
TeX: 855 0
ItalicCorrection: 94
HStem: -22 27<327.463 445.189> 680 25<490.161 608.349>
VStem: 147 91<121.13 356.535> 701 86<342.563 561.772>
AnchorPoint: "below" 383 0 basechar 0
AnchorPoint: "above" 595 851 basechar 0
LayerCount: 2
Fore
SplineSet
486 834 m 0
 486 852 503 871 522 871 c 0
 537 871 545 862 641 790 c 0
 649 784 662 776 662 767 c 0
 662 760 655 750 645 750 c 0
 640 750 641 750 511 805 c 0
 499 810 486 817 486 834 c 0
EndSplineSet
Refer: 88 79 S 1 0 0 1 -0 -0 3
AlternateSubs2: "Stilistic set 01 subtable" Ograve.vn
AlternateSubs2: "Latin alternatives subtable" Ograve.vn
Substitution2: "Latin Vietnamese substitutions subtable" Ograve.vn
EndChar

StartChar: Ocircumflex
Encoding: 212 212 221
Width: 766
Flags: HW
TeX: 891 0
ItalicCorrection: 94
HStem: -22 27<327.463 445.189> 680 25<490.161 608.349>
VStem: 147 91<121.13 356.535> 701 86<342.563 561.772>
AnchorPoint: "below" 383 0 basechar 0
AnchorPoint: "above" 602 880 basechar 0
LayerCount: 2
Fore
SplineSet
444 755 m 0
 444 762 452 768 457 773 c 0
 596 898 596 900 605 900 c 0
 616 900 626 881 633 869 c 0
 697 765 698 763 698 756 c 0
 698 748 690 741 682 741 c 0
 672 741 670 746 597 847 c 1
 585 838 573 828 478 751 c 0
 476 750 467 741 459 741 c 0
 451 741 444 747 444 755 c 0
EndSplineSet
Refer: 88 79 S 1 0 0 1 0 0 3
AlternateSubs2: "Stilistic set 01 subtable" Ocircumflex.vn
AlternateSubs2: "Latin alternatives subtable" Ocircumflex.vn
Substitution2: "Latin Vietnamese substitutions subtable" Ocircumflex.vn
EndChar

StartChar: Otilde
Encoding: 213 213 222
Width: 766
Flags: HW
TeX: 891 0
ItalicCorrection: 94
HStem: -22 27<327.463 445.189> 680 25<490.161 608.349> 800 36<619.836 710.187> 855 36<477.091 567.761>
VStem: 147 91<121.13 356.535> 701 86<342.563 561.772>
AnchorPoint: "below" 383 0 basechar 0
AnchorPoint: "above" 600 871 basechar 0
LayerCount: 2
Fore
SplineSet
409 811 m 0
 409 823 477 891 534 891 c 0
 590 891 620 836 668 836 c 0
 716 836 753 889 770 889 c 0
 775 889 779 885 779 880 c 0
 779 869 711 800 654 800 c 0
 598 800 567 855 519 855 c 0
 470 855 434 802 417 802 c 0
 412 802 409 806 409 811 c 0
EndSplineSet
Refer: 88 79 S 1 0 0 1 0 0 3
AlternateSubs2: "Stilistic set 01 subtable" Otilde.vn
AlternateSubs2: "Latin alternatives subtable" Otilde.vn
Substitution2: "Latin Vietnamese substitutions subtable" Otilde.vn
EndChar

StartChar: Odieresis
Encoding: 214 214 223
Width: 766
Flags: HW
TeX: 891 0
ItalicCorrection: 94
HStem: -22 27<327.463 445.189> 680 25<490.161 608.349> 786 105<466.128 539.056> 786 106<646.161 716.839>
VStem: 147 91<121.13 356.535> 449 107<803.571 873.408> 628 107<804.045 873.955> 701 86<342.563 561.772>
AnchorPoint: "below" 383 0 basechar 0
AnchorPoint: "above" 600 872 basechar 0
LayerCount: 2
Fore
SplineSet
449 829 m 0
 449 859 478 891 512 891 c 0
 538 891 556 872 556 848 c 0
 556 815 524 786 492 786 c 0xec
 466 786 449 805 449 829 c 0
EndSplineSet
Refer: 55 46 S 1 0 0 1 516 786 2
Refer: 88 79 S 1 0 0 1 0 0 3
EndChar

StartChar: OE
Encoding: 338 338 224
Width: 985
Flags: HW
TeX: 688 0
ItalicCorrection: 120
HStem: -0 31<582.009 816.739> 339 31<662 827.105> 652 31<731.815 965> 682 23<511.905 617.535>
VStem: 161 91<119.134 367.988> 884 33<419.622 485.735> 995 32<458.077 553.319> 1001 48<481.388 672.5>
AnchorPoint: "above" 710 705 basechar 0
LayerCount: 2
Fore
SplineSet
161 236 m 0
 161 476 375 705 570 705 c 0xdd
 629 705 642 683 722 683 c 2
 1029 683 l 2
 1041 683 1049 679 1049 666 c 0xed
 1049 660 1035 546 1027 486 c 0xee
 1027 485 1025 458 1010 458 c 0
 998 458 995 464 995 476 c 0xee
 995 492 1001 519 1001 555 c 0
 1001 646 953 652 857 652 c 2
 777 652 l 2xed
 741 652 733 652 722 610 c 2
 662 370 l 1
 757 370 l 2
 842 370 865 391 884 461 c 0
 887 471 889 486 903 486 c 0
 914 486 917 479 917 472 c 0
 917 464 861 242 860 239 c 0
 857 227 849 223 843 223 c 0
 837 223 829 226 829 236 c 0
 829 249 838 271 838 294 c 0
 838 338 798 339 745 339 c 2
 654 339 l 1
 654 339 582 53 582 44 c 0
 582 31 595 31 609 31 c 2
 697 31 l 2
 853 31 887 68 957 235 c 0
 962 247 966 257 980 257 c 0
 986 257 992 253 992 245 c 0
 992 237 987 226 904 23 c 0
 895 1 890 0 874 -0 c 2
 546 -0 l 2
 475 0 447 -22 388 -22 c 0
 273 -22 161 67 161 236 c 0
252 220 m 0
 252 98 304 1 397 1 c 0
 426 1 457 7 479 28 c 0
 518 64 531 131 610 449 c 0
 635 549 642 584 642 618 c 0
 642 649 632 682 567 682 c 0xdc
 412 682 252 447 252 220 c 0
EndSplineSet
EndChar

StartChar: Oslash
Encoding: 216 216 225
Width: 766
Flags: HW
TeX: 731 48
ItalicCorrection: 94
HStem: -22 23<322.675 445.284> 683 22<491.394 610.146>
VStem: 148 73<118.357 337.74> 715 73<340.791 563.396>
DStem2: 174 24 221 40 0.657899 0.753107<-90.7303 42.9709 97.0823 767.232 822.096 955.764>
LayerCount: 2
Fore
SplineSet
117 -47 m 0
 117 -40 115 -44 174 24 c 2
 204 58 l 1
 204 59 l 1
 193 72 148 130 148 236 c 0
 148 473 358 705 558 705 c 0
 652 705 704 654 715 643 c 1
 722 652 730 660 789 728 c 0
 794 733 800 741 808 741 c 0
 814 741 819 736 819 730 c 0
 819 722 822 727 762 658 c 2
 732 624 l 1
 742 609 788 553 788 445 c 0
 788 204 577 -22 377 -22 c 0
 284 -22 233 29 222 40 c 1
 221 40 l 1
 138 -56 136 -58 128 -58 c 0
 122 -58 117 -53 117 -47 c 0
221 195 m 0
 221 157 224 135 238 97 c 1
 685 609 l 1
 662 648 618 683 553 683 c 0
 472 683 399 630 352 575 c 0
 252 458 221 264 221 195 c 0
250 73 m 1
 274 34 318 1 383 1 c 0
 416 1 508 11 591 113 c 0
 685 228 715 418 715 486 c 0
 715 524 712 546 698 585 c 1
 250 73 l 1
EndSplineSet
EndChar

StartChar: Ugrave
Encoding: 217 217 226
Width: 743
Flags: HW
TeX: 855 0
ItalicCorrection: 163
HStem: -22 31<328.829 452.83> 639 43<752.474 849.01> 652 31<225.078 307.51 636.189 698.498>
VStem: 201 75<70.8501 253.977> 709 142<604 674>
DStem2: 145.481 -22 227.983 -22 0.242599 0.970127<196.379 673.707> 553.73 -22 585.23 -22 0.242599 0.970127<163.129 649.363>
AnchorPoint: "below" 386 0 basechar 0
AnchorPoint: "above" 589 873 basechar 0
LayerCount: 2
Fore
SplineSet
475 834 m 0
 475 849 490 871 511 871 c 0
 521 871 530 866 538 860 c 0
 649 776 650 777 650 767 c 0x98
 650 760 644 750 634 750 c 0
 629 750 632 750 501 805 c 0
 489 810 475 817 475 834 c 0
EndSplineSet
Refer: 94 85 S 1 0 0 1 -0 0 3
AlternateSubs2: "Stilistic set 01 subtable" Ugrave.vn
AlternateSubs2: "Latin alternatives subtable" Ugrave.vn
Substitution2: "Latin Vietnamese substitutions subtable" Ugrave.vn
EndChar

StartChar: Ucircumflex
Encoding: 219 219 228
Width: 743
Flags: HW
TeX: 891 0
ItalicCorrection: 163
HStem: -22 31<328.829 452.83> 639 43<752.474 849.01> 652 31<225.078 307.51 636.189 698.498>
VStem: 201 75<70.8501 253.977> 709 142<604 674>
DStem2: 145.481 -22 227.983 -22 0.242599 0.970127<196.379 673.707> 553.73 -22 585.23 -22 0.242599 0.970127<163.129 649.363>
AnchorPoint: "below" 386 0 basechar 0
AnchorPoint: "above" 596 902 basechar 0
LayerCount: 2
Fore
SplineSet
445 755 m 0
 445 762 453 768 458 773 c 0
 597 898 597 900 606 900 c 0
 617 900 627 881 634 869 c 0
 699 764 699 763 699 757 c 0
 699 749 691 741 683 741 c 0x98
 673 741 671 747 598 847 c 1
 586 838 574 828 479 751 c 0
 477 750 468 741 460 741 c 0
 452 741 445 747 445 755 c 0
EndSplineSet
Refer: 94 85 S 1 0 0 1 -0 0 3
EndChar

StartChar: Thorn
Encoding: 222 222 231
Width: 627
Flags: HW
TeX: 688 0
ItalicCorrection: 102
HStem: 0 31<64.0818 159.631 244.374 326.915> 177 31<282 439.994> 521 31<368 518.007> 651 32<227.115 309.889>
VStem: 555 91<324.447 487.821>
DStem2: 153.741 0 229.738 0 0.242599 0.970127<71.0265 200.887 232.902 555.474 587.489 651.723>
LayerCount: 2
Fore
SplineSet
64 14 m 0
 64 31 81 32 100 32 c 2
 111 32 l 2
 170 32 166 49 187 133 c 2
 305 606 l 2
 308 618 310 627 310 633 c 0
 310 650 293 652 274 652 c 0
 269 652 263 651 258 651 c 0
 241 651 227 652 227 665 c 0
 227 679 237 683 247 683 c 2
 248 683 l 2
 259 683 294 680 362 680 c 0
 428 680 461 682 472 682 c 0
 486 682 490 676 490 670 c 0
 490 636 425 664 398 640 c 0
 384 628 386 620 368 552 c 1
 488 552 l 2
 601 552 646 479 646 409 c 0
 646 314 560 203 440 181 c 0
 421 177 401 177 382 177 c 2
 274 177 l 1
 274 177 244 62 244 50 c 0
 244 33 265 31 285 31 c 2
 297 31 l 2
 314 31 327 31 327 17 c 0
 327 9 321 0 307 0 c 0
 296 0 261 3 193 3 c 0
 127 3 98 1 84 1 c 0
 71 1 64 4 64 14 c 0
282 208 m 1
 378 208 l 2
 480 208 555 321 555 417 c 0
 555 462 538 521 468 521 c 2
 360 521 l 1
 282 208 l 1
EndSplineSet
EndChar

StartChar: Germandbls
Encoding: 61699 61699 232
Width: 1073
Flags: HW
TeX: 688 0
ItalicCorrection: 119
HStem: -22 31<226.721 362.873 737.721 874.079> 677 28<371.02 489.163 882.02 1000.06>
VStem: 74 78<-13.5 181.715> 199 67<440.876 560.698> 470 67<139.361 268.181> 546 32<456.058 533.28> 551 80<503.237 694.5> 586 77<-12 181.715> 710 67<440.721 560.698> 981 67<139.761 268.181> 1056 33<456.02 533.28> 1062 80<503.237 694.5>
LayerCount: 2
Fore
SplineSet
74 -9 m 0
 74 1 128 208 128 208 c 2
 132 223 139 227 145 227 c 0
 149 227 159 225 159 215 c 0
 159 203 152 180 152 149 c 0
 152 37 239 9 302 9 c 0
 392 9 470 108 470 200 c 0
 470 317 359 298 276 337 c 0
 231 358 199 403 199 467 c 0
 199 588 311 705 431 705 c 0
 508 705 543 666 560 637 c 1
 613 702 612 704 622 704 c 0
 628 704 631 697 631 692 c 0xfac0
 631 688 631 688 578 475 c 0xfcc0
 574 460 567 456 561 456 c 0
 555 456 546 459 546 471 c 0xfcc0
 546 481 551 498 551 535 c 0
 551 661 473 677 428 677 c 0
 346 677 266 592 266 505 c 0
 266 371 437 425 505 339 c 0
 528 310 537 274 537 238 c 0
 537 113 428 -22 299 -22 c 0
 201 -22 163 26 147 47 c 1
 105 -6 94 -21 84 -21 c 0
 80 -21 74 -18 74 -9 c 0
586 -9 m 0
 586 -4 587 2 588 7 c 0
 642 225 639 222 651 226 c 0
 659 229 670 226 670 215 c 0
 670 203 663 180 663 149 c 0
 663 37 750 9 813 9 c 0
 904 9 981 110 981 200 c 0
 981 317 869 298 786 337 c 0
 741 358 710 402 710 467 c 0
 710 588 822 705 942 705 c 0
 1019 705 1053 666 1070 637 c 1
 1123 702 1123 704 1133 704 c 0
 1139 704 1142 697 1142 692 c 0xf9d0
 1142 688 1142 688 1089 475 c 0
 1085 460 1078 456 1072 456 c 0xf8e0
 1066 456 1056 459 1056 471 c 0xf8e0
 1056 481 1062 498 1062 535 c 0
 1062 661 984 677 939 677 c 0
 857 677 777 592 777 505 c 0
 777 371 948 425 1016 339 c 0
 1039 310 1048 274 1048 238 c 0
 1048 113 939 -22 810 -22 c 0
 712 -22 674 26 658 47 c 1
 616 -6 605 -21 595 -21 c 0
 587 -21 586 -15 586 -9 c 0
EndSplineSet
EndChar

StartChar: acircumflex
Encoding: 226 226 235
Width: 511
Flags: HW
TeX: 641 0
ItalicCorrection: 76
HStem: -11 23<201.693 269.035 414.931 457.386> 419 23<302.796 368.832>
VStem: 107 68<51.2447 220.753> 502 32<82.375 152.952>
DStem2: 320.242 -11 386.491 -11 0.242599 0.970127<83.5005 348.569 406.431 433.175>
AnchorPoint: "below" 225 0 basechar 0
AnchorPoint: "above" 380 616 basechar 0
LayerCount: 2
Fore
SplineSet
249 484 m 0
 249 493 247 489 369 603 c 0
 393 625 403 636 412 636 c 0
 423 636 421 635 497 502 c 0
 498 500 503 492 503 486 c 0
 503 478 495 470 487 470 c 0
 477 470 472 479 436 533 c 0
 425 549 413 566 403 583 c 1
 284 481 l 2
 282 479 272 470 264 470 c 0
 257 470 249 476 249 484 c 0
EndSplineSet
Refer: 106 97 S 1 0 0 1 0 0 3
AlternateSubs2: "Stilistic set 01 subtable" acircumflex.vn
AlternateSubs2: "Latin alternatives subtable" acircumflex.vn
Substitution2: "Latin Vietnamese substitutions subtable" acircumflex.vn
EndChar

StartChar: aring
Encoding: 229 229 238
Width: 511
Flags: HW
TeX: 641 0
ItalicCorrection: 76
HStem: -11 23<201.693 269.035 414.931 457.386> 419 23<302.796 368.832> 500 22<322.578 402.534> 638 23<346.28 427.592>
VStem: 107 68<51.2447 220.753> 281 30<530.637 608.668> 438 30<552.494 629.919> 502 32<82.375 152.952>
DStem2: 320.242 -11 386.491 -11 0.242599 0.970127<83.5005 348.569 406.431 433.175>
LayerCount: 2
Fore
SplineSet
281 564 m 0
 281 613 335 661 394 661 c 0
 435 661 468 635 468 597 c 0
 468 548 414 500 355 500 c 0
 314 500 281 526 281 564 c 0
311 560 m 0
 311 533 331 522 360 522 c 0
 432 522 438 585 438 601 c 0
 438 627 418 638 389 638 c 0
 325 638 311 587 311 560 c 0
EndSplineSet
Refer: 106 97 S 1 0 0 1 -0 -0 3
EndChar

StartChar: ae
Encoding: 230 230 239
Width: 715
Flags: HW
TeX: 430 0
ItalicCorrection: 75
HStem: -11 22<202.143 264.621 474.83 563.015> 230 23<449 584.488> 419 23<300.438 372.993 567.556 654.095>
VStem: 108 68<52.4315 226.926> 680 37<305.185 401.368>
AnchorPoint: "below" 366 0 basechar 0
AnchorPoint: "above" 477 442 basechar 0
LayerCount: 2
Fore
SplineSet
108 147 m 0
 108 302 228 442 336 442 c 0
 390 442 412 405 425 385 c 1
 431 411 436 441 465 441 c 0
 481 441 488 427 488 418 c 0
 488 414 487 407 483 389 c 1
 519 417 563 442 617 442 c 0
 673 442 717 408 717 357 c 0
 717 337 710 267 605 242 c 0
 561 232 508 230 456 230 c 2
 443 230 l 1
 436 200 429 167 429 133 c 0
 429 58 462 11 512 11 c 0
 542 11 605 25 661 98 c 0
 666 104 673 118 682 118 c 0
 688 118 696 112 696 103 c 0
 696 80 611 -11 512 -11 c 0
 435 -11 394 50 383 113 c 1
 371 95 310 -11 228 -11 c 0
 156 -11 108 55 108 147 c 0
176 104 m 0
 176 64 187 11 230 11 c 0
 270 11 325 60 363 136 c 0
 382 174 378 172 381 196 c 0
 388 258 410 310 410 332 c 0
 410 351 396 419 337 419 c 0
 302 419 269 387 249 358 c 0
 205 295 176 149 176 104 c 0
449 253 m 1
 538 253 680 257 680 358 c 0
 680 393 654 419 616 419 c 0
 554 419 480 363 449 253 c 1
EndSplineSet
EndChar

StartChar: ccedilla
Encoding: 231 231 240
Width: 460
Flags: HW
TeX: 430 170
ItalicCorrection: 56
HStem: -192 22<103.008 222.167> 296 81<393.945 434.195> 419 23<320.445 406.785>
VStem: 109 70<63.1257 233.638> 270 65<-145.669 -77.4766> 385 84<306.192 367.651>
AnchorPoint: "above" 362 442 basechar 0
LayerCount: 2
Fore
SplineSet
103 -181 m 0
 103 -172 112 -170 124 -170 c 2
 141 -170 l 1
 253 -169 270 -132 270 -108 c 0
 270 -62 209 -81 209 -58 c 0
 209 -51 213 -38 221 -7 c 1
 135 15 109 92 109 153 c 0
 109 298 236 442 363 442 c 0
 422 442 469 407 469 356 c 0
 469 312 439 296 419 296 c 0
 399 296 385 309 385 328 c 0
 385 339 392 373 435 377 c 1
 422 404 396 419 365 419 c 0
 234 419 179 196 179 114 c 0
 179 75 189 39 228 17 c 1
 236 22 238 22 248 22 c 2
 270 22 l 2
 282 22 285 18 289 14 c 1
 408 41 434 118 453 118 c 2
 454 118 l 1
 460 117 466 113 466 105 c 0
 466 99 463 92 455 82 c 0
 415 33 358 1 285 -10 c 1
 274 -53 l 1
 302 -59 335 -74 335 -109 c 0
 335 -185 221 -192 130 -192 c 2
 124 -192 l 2
 114 -192 103 -191 103 -181 c 0
EndSplineSet
EndChar

StartChar: ecircumflex
Encoding: 234 234 243
Width: 460
Flags: HW
TeX: 641 0
ItalicCorrection: 75
HStem: -11 22<222.271 316.621> 230 23<205 326.781> 419 23<315.536 399.631>
VStem: 113 69<65.7071 227.944> 425 37<306.307 401.872>
AnchorPoint: "below" 260 0 basechar 0
AnchorPoint: "above" 406 616 basechar 0
LayerCount: 2
Fore
SplineSet
223 484 m 0
 223 493 221 489 343 603 c 0
 367 625 377 636 386 636 c 0
 397 636 405 618 413 603 c 0
 477 492 478 493 478 486 c 0
 478 478 469 470 461 470 c 0
 451 470 446 479 410 533 c 0
 399 549 387 566 377 583 c 1
 257 481 l 2
 255 479 246 470 238 470 c 0
 231 470 223 476 223 484 c 0
EndSplineSet
Refer: 110 101 S 1 0 0 1 -0 -0 3
AlternateSubs2: "Stilistic set 01 subtable" ecircumflex.vn
AlternateSubs2: "Latin alternatives subtable" ecircumflex.vn
Substitution2: "Latin Vietnamese substitutions subtable" ecircumflex.vn
EndChar

StartChar: edieresis
Encoding: 235 235 244
Width: 460
Flags: HW
TeX: 641 0
ItalicCorrection: 75
HStem: -11 22<222.271 316.621> 230 23<205 326.781> 419 23<315.536 399.631> 553 106<255.969 326.839 433.803 506.202>
VStem: 113 69<65.7071 227.944> 238 107<571.045 640.953> 416 108<571.047 640.953> 425 37<306.307 401.872>
AnchorPoint: "below" 260 0 basechar 0
AnchorPoint: "above" 411 639 basechar 0
LayerCount: 2
Fore
SplineSet
238 596 m 0
 238 629 270 659 302 659 c 0
 328 659 345 640 345 616 c 0
 345 586 315 553 281 553 c 0
 255 553 238 572 238 596 c 0
416 596 m 0
 416 629 448 659 480 659 c 0
 506 659 524 640 524 616 c 0
 524 583 492 553 460 553 c 0xfe
 436 553 416 570 416 596 c 0
EndSplineSet
Refer: 110 101 S 1 0 0 1 -0 0 3
EndChar

StartChar: igrave
Encoding: 236 236 245
Width: 307
Flags: HW
TeX: 641 0
ItalicCorrection: 76
HStem: -11 23<186.697 235.094> 393 34<154.275 218.962>
VStem: 127 56<12.5702 121.037> 219 83<337.707 424.129> 296 33<88.0858 152.791>
AnchorPoint: "below" 148 0 basechar 0
AnchorPoint: "above" 308 641 basechar 0
LayerCount: 2
Fore
SplineSet
171 614 m 0
 171 635 193 651 209 651 c 0
 227 651 229 644 288 563 c 0
 299 548 318 524 318 515 c 0xf0
 318 505 309 499 302 499 c 0
 294 499 286 507 188 587 c 0
 180 594 171 601 171 614 c 0
EndSplineSet
Refer: 34 305 S 1 0 0 1 -0 0 3
AlternateSubs2: "Stilistic set 01 subtable" igrave.vn
AlternateSubs2: "Latin alternatives subtable" igrave.vn
Substitution2: "Latin Vietnamese substitutions subtable" igrave.vn
Ligature2: "Latin ligatures excepting Turkic subtable" i gravecomb
EndChar

StartChar: icircumflex
Encoding: 238 238 247
Width: 307
Flags: HW
TeX: 641 0
ItalicCorrection: 76
HStem: -11 23<186.697 235.094> 393 34<154.275 218.962>
VStem: 127 56<12.5702 121.037> 219 83<337.707 424.129> 296 33<88.0858 152.791>
AnchorPoint: "below" 148 0 basechar 0
AnchorPoint: "above" 304 626 basechar 0
LayerCount: 2
Fore
SplineSet
147 484 m 0xe0
 147 493 144 489 266 603 c 0
 290 625 300 636 309 636 c 0
 320 636 328 618 336 603 c 0
 399 492 401 492 401 485 c 0
 401 477 392 470 384 470 c 0
 374 470 369 479 333 533 c 0
 322 549 310 566 300 583 c 1
 180 481 l 2
 178 479 169 470 161 470 c 0
 154 470 147 476 147 484 c 0xe0
EndSplineSet
Refer: 34 305 S 1 0 0 1 0 -0 3
Ligature2: "Latin ligatures excepting Turkic subtable" i uni0302
EndChar

StartChar: idieresis
Encoding: 239 239 248
Width: 307
Flags: HW
TeX: 641 0
ItalicCorrection: 76
HStem: -11 23<186.697 235.094> 393 34<154.275 218.962> 553 105<177.789 250.031> 553 106<356.798 428.839>
VStem: 127 56<12.5702 121.037> 160 108<571.047 639.34> 219 83<337.707 424.129> 296 33<88.0858 152.791> 339 108<571.045 640.953>
AnchorPoint: "above" 308 639 basechar 0
LayerCount: 2
Fore
SplineSet
339 596 m 0
 339 629 371 659 403 659 c 0
 429 659 447 640 447 616 c 0
 447 586 417 553 383 553 c 0xd080
 357 553 339 572 339 596 c 0
EndSplineSet
Refer: 366 183 S 1 0 0 1 1 364 2
Refer: 34 305 S 1 0 0 1 0 0 3
Ligature2: "Latin ligatures excepting Turkic subtable" i uni0308
EndChar

StartChar: eth
Encoding: 240 240 249
Width: 511
Flags: HW
TeX: 688 0
ItalicCorrection: 107
HStem: -11 25<213.195 310.246> 425 22<312.51 399.29> 672 20G<283.5 292 516 562.087>
VStem: 96 71<66.5866 241.438> 447 86<212.949 436.897>
DStem2: 236 533 244 510 0.893308 0.449445<0 145.344 211.027 354.135>
LayerCount: 2
Fore
SplineSet
96 153 m 0
 96 300 235 447 364 447 c 0
 418 447 442 412 453 392 c 1
 445 471 424 521 382 580 c 1
 244 510 l 1
 236 533 l 1
 366 598 l 1
 336 631 299 658 259 677 c 1
 275 688 280 692 287 692 c 0
 297 692 362 670 416 624 c 1
 556 694 l 1
 563 671 l 1
 435 607 l 1
 499 542 533 459 533 357 c 0
 533 289 514 219 503 187 c 0
 462 73 355 -11 252 -11 c 0
 159 -11 96 59 96 153 c 0
167 118 m 0
 167 35 222 14 259 14 c 0
 268 14 310 16 354 55 c 0
 427 121 447 264 447 309 c 0
 447 380 412 425 360 425 c 0
 311 425 267 394 238 355 c 0
 189 289 167 150 167 118 c 0
EndSplineSet
EndChar

StartChar: ograve
Encoding: 242 242 251
Width: 511
Flags: HW
TeX: 641 0
ItalicCorrection: 63
HStem: -11 23<217.861 300.796> 419 23<319.205 398.255>
VStem: 108 71<62.3155 235.057> 438 70<194.614 368.39>
AnchorPoint: "below" 257 0 basechar 0
AnchorPoint: "above" 409 631 basechar 0
LayerCount: 2
Fore
SplineSet
274 614 m 0
 274 635 296 651 311 651 c 0
 330 651 340 632 347 623 c 0
 408 538 421 524 421 515 c 0
 421 505 411 499 404 499 c 0
 396 499 382 510 290 587 c 0
 283 594 274 601 274 614 c 0
EndSplineSet
Refer: 120 111 S 1 0 0 1 0 -0 3
AlternateSubs2: "Stilistic set 01 subtable" ograve.vn
AlternateSubs2: "Latin alternatives subtable" ograve.vn
Substitution2: "Latin Vietnamese substitutions subtable" ograve.vn
EndChar

